<svg xmlns="http://www.w3.org/2000/svg" xmlns:xlink="http://www.w3.org/1999/xlink" id="processonSvg1000" viewBox="109.0 60.0 770.0 830.0" width="770.0" height="830.0"><defs id="ProcessOnDefs1001"><marker id="ProcessOnMarker1063" markerUnits="userSpaceOnUse" orient="auto" markerWidth="16.23606797749979" markerHeight="10.550836550532098" viewBox="-1.0 -1.3763819204711736 16.23606797749979 10.550836550532098" refX="-1.0" refY="3.8990363547948754"><path id="ProcessOnPath1064" d="M12.0 3.8990363547948754L0.0 7.798072709589751V0.0Z" stroke="#323232" stroke-width="2.0" fill="#323232" transform="matrix(1.0,0.0,0.0,1.0,0.0,0.0)"/></marker><marker id="ProcessOnMarker1070" markerUnits="userSpaceOnUse" orient="auto" markerWidth="16.23606797749979" markerHeight="10.550836550532098" viewBox="-1.0 -1.3763819204711736 16.23606797749979 10.550836550532098" refX="-1.0" refY="3.8990363547948754"><path id="ProcessOnPath1071" d="M12.0 3.8990363547948754L0.0 7.798072709589751V0.0Z" stroke="#323232" stroke-width="2.0" fill="#323232" transform="matrix(1.0,0.0,0.0,1.0,0.0,0.0)"/></marker><marker id="ProcessOnMarker1077" markerUnits="userSpaceOnUse" orient="auto" markerWidth="16.23606797749979" markerHeight="10.550836550532098" viewBox="-1.0 -1.3763819204711736 16.23606797749979 10.550836550532098" refX="-1.0" refY="3.8990363547948754"><path id="ProcessOnPath1078" d="M12.0 3.8990363547948754L0.0 7.798072709589751V0.0Z" stroke="#323232" stroke-width="2.0" fill="#323232" transform="matrix(1.0,0.0,0.0,1.0,0.0,0.0)"/></marker><marker id="ProcessOnMarker1086" markerUnits="userSpaceOnUse" orient="auto" markerWidth="16.23606797749979" markerHeight="10.550836550532098" viewBox="-1.0 -1.3763819204711736 16.23606797749979 10.550836550532098" refX="-1.0" refY="3.8990363547948754"><path id="ProcessOnPath1087" d="M12.0 3.8990363547948754L0.0 7.798072709589751V0.0Z" stroke="#323232" stroke-width="2.0" fill="#323232" transform="matrix(1.0,0.0,0.0,1.0,0.0,0.0)"/></marker><marker id="ProcessOnMarker1090" markerUnits="userSpaceOnUse" orient="auto" markerWidth="16.23606797749979" markerHeight="10.550836550532098" viewBox="-1.0 -1.3763819204711736 16.23606797749979 10.550836550532098" refX="-1.0" refY="3.8990363547948754"><path id="ProcessOnPath1091" d="M12.0 3.8990363547948754L0.0 7.798072709589751V0.0Z" stroke="#323232" stroke-width="2.0" fill="#323232" transform="matrix(1.0,0.0,0.0,1.0,0.0,0.0)"/></marker><marker id="ProcessOnMarker1101" markerUnits="userSpaceOnUse" orient="auto" markerWidth="16.23606797749979" markerHeight="10.550836550532098" viewBox="-1.0 -1.3763819204711736 16.23606797749979 10.550836550532098" refX="-1.0" refY="3.8990363547948754"><path id="ProcessOnPath1102" d="M12.0 3.8990363547948754L0.0 7.798072709589751V0.0Z" stroke="#323232" stroke-width="2.0" fill="#323232" transform="matrix(1.0,0.0,0.0,1.0,0.0,0.0)"/></marker><marker id="ProcessOnMarker1108" markerUnits="userSpaceOnUse" orient="auto" markerWidth="16.23606797749979" markerHeight="10.550836550532098" viewBox="-1.0 -1.3763819204711736 16.23606797749979 10.550836550532098" refX="-1.0" refY="3.8990363547948754"><path id="ProcessOnPath1109" d="M12.0 3.8990363547948754L0.0 7.798072709589751V0.0Z" stroke="#323232" stroke-width="2.0" fill="#323232" transform="matrix(1.0,0.0,0.0,1.0,0.0,0.0)"/></marker><marker id="ProcessOnMarker1143" markerUnits="userSpaceOnUse" orient="auto" markerWidth="16.23606797749979" markerHeight="10.550836550532098" viewBox="-1.0 -1.3763819204711736 16.23606797749979 10.550836550532098" refX="-1.0" refY="3.8990363547948754"><path id="ProcessOnPath1144" d="M12.0 3.8990363547948754L0.0 7.798072709589751V0.0Z" stroke="#323232" stroke-width="2.0" fill="#323232" transform="matrix(1.0,0.0,0.0,1.0,0.0,0.0)"/></marker><marker id="ProcessOnMarker1151" markerUnits="userSpaceOnUse" orient="auto" markerWidth="16.23606797749979" markerHeight="10.550836550532098" viewBox="-1.0 -1.3763819204711736 16.23606797749979 10.550836550532098" refX="-1.0" refY="3.8990363547948754"><path id="ProcessOnPath1152" d="M12.0 3.8990363547948754L0.0 7.798072709589751V0.0Z" stroke="#323232" stroke-width="2.0" fill="#323232" transform="matrix(1.0,0.0,0.0,1.0,0.0,0.0)"/></marker><marker id="ProcessOnMarker1159" markerUnits="userSpaceOnUse" orient="auto" markerWidth="16.23606797749979" markerHeight="10.550836550532098" viewBox="-1.0 -1.3763819204711736 16.23606797749979 10.550836550532098" refX="-1.0" refY="3.8990363547948754"><path id="ProcessOnPath1160" d="M12.0 3.8990363547948754L0.0 7.798072709589751V0.0Z" stroke="#323232" stroke-width="2.0" fill="#323232" transform="matrix(1.0,0.0,0.0,1.0,0.0,0.0)"/></marker><marker id="ProcessOnMarker1171" markerUnits="userSpaceOnUse" orient="auto" markerWidth="16.23606797749979" markerHeight="10.550836550532098" viewBox="-1.0 -1.3763819204711736 16.23606797749979 10.550836550532098" refX="-1.0" refY="3.8990363547948754"><path id="ProcessOnPath1172" d="M12.0 3.8990363547948754L0.0 7.798072709589751V0.0Z" stroke="#323232" stroke-width="2.0" fill="#323232" transform="matrix(1.0,0.0,0.0,1.0,0.0,0.0)"/></marker><marker id="ProcessOnMarker1180" markerUnits="userSpaceOnUse" orient="auto" markerWidth="16.23606797749979" markerHeight="10.550836550532098" viewBox="-1.0 -1.3763819204711736 16.23606797749979 10.550836550532098" refX="-1.0" refY="3.8990363547948754"><path id="ProcessOnPath1181" d="M12.0 3.8990363547948754L0.0 7.798072709589751V0.0Z" stroke="#323232" stroke-width="2.0" fill="#323232" transform="matrix(1.0,0.0,0.0,1.0,0.0,0.0)"/></marker><marker id="ProcessOnMarker1184" markerUnits="userSpaceOnUse" orient="auto" markerWidth="16.23606797749979" markerHeight="10.550836550532098" viewBox="-1.0 -1.3763819204711736 16.23606797749979 10.550836550532098" refX="-1.0" refY="3.8990363547948754"><path id="ProcessOnPath1185" d="M12.0 3.8990363547948754L0.0 7.798072709589751V0.0Z" stroke="#323232" stroke-width="2.0" fill="#323232" transform="matrix(1.0,0.0,0.0,1.0,0.0,0.0)"/></marker><marker id="ProcessOnMarker1188" markerUnits="userSpaceOnUse" orient="auto" markerWidth="16.23606797749979" markerHeight="10.550836550532098" viewBox="-1.0 -1.3763819204711736 16.23606797749979 10.550836550532098" refX="-1.0" refY="3.8990363547948754"><path id="ProcessOnPath1189" d="M12.0 3.8990363547948754L0.0 7.798072709589751V0.0Z" stroke="#323232" stroke-width="2.0" fill="#323232" transform="matrix(1.0,0.0,0.0,1.0,0.0,0.0)"/></marker></defs><g id="ProcessOnG1002"><path id="ProcessOnPath1003" d="M109.0 60.0H879.0V890.0H109.0V60.0Z" fill="none"/><g id="ProcessOnG1004"><g id="ProcessOnG1005" transform="matrix(1.0,0.0,0.0,1.0,380.0,142.0)" opacity="1.0"><path id="ProcessOnPath1006" d="M0.0 0.0L64.0 0.0L64.0 30.0L0.0 30.0Z" stroke="#323232" stroke-width="2.0" stroke-dasharray="none" opacity="1.0" fill="#ffffff"/><g id="ProcessOnG1007" transform="matrix(1.0,0.0,0.0,1.0,10.0,6.875)"><text id="ProcessOnText1008" fill="#000000" font-size="13" x="21.0" y="13.325" font-family="微软雅黑" font-weight="normal" font-style="normal" text-decoration="none" family="微软雅黑" text-anchor="middle" size="13">.java</text></g></g><g id="ProcessOnG1009" transform="matrix(1.0,0.0,0.0,1.0,380.0,229.0)" opacity="1.0"><path id="ProcessOnPath1010" d="M0.0 0.0L64.0 0.0L64.0 30.0L0.0 30.0Z" stroke="#323232" stroke-width="2.0" stroke-dasharray="none" opacity="1.0" fill="#ffffff"/><g id="ProcessOnG1011" transform="matrix(1.0,0.0,0.0,1.0,10.0,6.875)"><text id="ProcessOnText1012" fill="#000000" font-size="13" x="21.0" y="13.325" font-family="微软雅黑" font-weight="normal" font-style="normal" text-decoration="none" family="微软雅黑" text-anchor="middle" size="13">.class</text></g></g><g id="ProcessOnG1013" transform="matrix(1.0,0.0,0.0,1.0,380.0,322.0)" opacity="1.0"><path id="ProcessOnPath1014" d="M0.0 0.0L64.0 0.0L64.0 30.0L0.0 30.0Z" stroke="#323232" stroke-width="2.0" stroke-dasharray="none" opacity="1.0" fill="#ffffff"/><g id="ProcessOnG1015" transform="matrix(1.0,0.0,0.0,1.0,10.0,6.875)"><text id="ProcessOnText1016" fill="#000000" font-size="13" x="21.0" y="13.325" font-family="微软雅黑" font-weight="normal" font-style="normal" text-decoration="none" family="微软雅黑" text-anchor="middle" size="13">.dex</text></g></g><g id="ProcessOnG1017" transform="matrix(1.0,0.0,0.0,1.0,380.0,410.0)" opacity="1.0"><path id="ProcessOnPath1018" d="M0.0 0.0L64.0 0.0L64.0 30.0L0.0 30.0Z" stroke="#323232" stroke-width="2.0" stroke-dasharray="none" opacity="1.0" fill="#ffffff"/><g id="ProcessOnG1019" transform="matrix(1.0,0.0,0.0,1.0,10.0,6.875)"><text id="ProcessOnText1020" fill="#000000" font-size="13" x="21.0" y="13.325" font-family="微软雅黑" font-weight="normal" font-style="normal" text-decoration="none" family="微软雅黑" text-anchor="middle" size="13">.apk</text></g></g><g id="ProcessOnG1021" transform="matrix(1.0,0.0,0.0,1.0,259.0,590.0)" opacity="1.0"><path id="ProcessOnPath1022" d="M0.0 0.0L59.0 0.0L59.0 30.0L0.0 30.0Z" stroke="#323232" stroke-width="2.0" stroke-dasharray="none" opacity="1.0" fill="#cce5ff"/><g id="ProcessOnG1023" transform="matrix(1.0,0.0,0.0,1.0,10.0,6.875)"><text id="ProcessOnText1024" fill="#000000" font-size="13" x="18.5" y="13.325" font-family="微软雅黑" font-weight="normal" font-style="normal" text-decoration="none" family="微软雅黑" text-anchor="middle" size="13">.odex</text></g></g><g id="ProcessOnG1025" transform="matrix(1.0,0.0,0.0,1.0,380.0,590.0)" opacity="1.0"><path id="ProcessOnPath1026" d="M0.0 0.0L60.0 0.0L60.0 30.0L0.0 30.0Z" stroke="#323232" stroke-width="2.0" stroke-dasharray="none" opacity="1.0" fill="#cce5ff"/><g id="ProcessOnG1027" transform="matrix(1.0,0.0,0.0,1.0,10.0,6.875)"><text id="ProcessOnText1028" fill="#000000" font-size="13" x="19.0" y="13.325" font-family="微软雅黑" font-weight="normal" font-style="normal" text-decoration="none" family="微软雅黑" text-anchor="middle" size="13">.oat</text></g></g><g id="ProcessOnG1029" transform="matrix(1.0,0.0,0.0,1.0,189.75,81.0)" opacity="1.0"><path id="ProcessOnPath1030" d="M0.0 0.0L119.25 0.0L119.25 33.0L0.0 33.0Z" stroke="none" stroke-width="0.0" stroke-dasharray="none" opacity="1.0" fill="none"/><g id="ProcessOnG1031" transform="matrix(1.0,0.0,0.0,1.0,0.0,-1.0)"><text id="ProcessOnText1032" fill="#ff3333" font-size="14" x="58.625" y="14.350000000000001" font-family="微软雅黑" font-weight="bold" font-style="normal" text-decoration="none" family="微软雅黑" text-anchor="middle" size="14">Dalvik </text><text id="ProcessOnText1033" fill="#ff3333" font-size="14" x="58.625" y="31.85" font-family="微软雅黑" font-weight="bold" font-style="normal" text-decoration="none" family="微软雅黑" text-anchor="middle" size="14">Android 2.x~4.x</text></g></g><g id="ProcessOnG1034" transform="matrix(1.0,0.0,0.0,1.0,357.0,81.0)" opacity="1.0"><path id="ProcessOnPath1035" d="M0.0 0.0L116.0 0.0L116.0 33.0L0.0 33.0Z" stroke="none" stroke-width="0.0" stroke-dasharray="none" opacity="1.0" fill="none"/><g id="ProcessOnG1036" transform="matrix(1.0,0.0,0.0,1.0,0.0,-1.0)"><text id="ProcessOnText1037" fill="#ff3333" font-size="14" x="57.0" y="14.350000000000001" font-family="微软雅黑" font-weight="bold" font-style="normal" text-decoration="none" family="微软雅黑" text-anchor="middle" size="14">ART</text><text id="ProcessOnText1038" fill="#ff3333" font-size="14" x="57.0" y="31.85" font-family="微软雅黑" font-weight="bold" font-style="normal" text-decoration="none" family="微软雅黑" text-anchor="middle" size="14"> Android 5.x 6.x</text></g></g><g id="ProcessOnG1039" transform="matrix(1.0,0.0,0.0,1.0,553.0,81.0)" opacity="1.0"><path id="ProcessOnPath1040" d="M0.0 0.0L99.0 0.0L99.0 33.0L0.0 33.0Z" stroke="none" stroke-width="0.0" stroke-dasharray="none" opacity="1.0" fill="none"/><g id="ProcessOnG1041" transform="matrix(1.0,0.0,0.0,1.0,0.0,-1.0)"><text id="ProcessOnText1042" fill="#ff3333" font-size="14" x="48.5" y="14.350000000000001" font-family="微软雅黑" font-weight="bold" font-style="normal" text-decoration="none" family="微软雅黑" text-anchor="middle" size="14">ART</text><text id="ProcessOnText1043" fill="#ff3333" font-size="14" x="48.5" y="31.85" font-family="微软雅黑" font-weight="bold" font-style="normal" text-decoration="none" family="微软雅黑" text-anchor="middle" size="14"> Android 7.x</text></g></g><g id="ProcessOnG1044" transform="matrix(1.0,0.0,0.0,1.0,259.0,501.0)" opacity="1.0"><path id="ProcessOnPath1045" d="M0.0 0.0L59.0 0.0L59.0 30.0L0.0 30.0Z" stroke="#323232" stroke-width="2.0" stroke-dasharray="none" opacity="1.0" fill="#cce5ff"/><g id="ProcessOnG1046" transform="matrix(1.0,0.0,0.0,1.0,10.0,6.875)"><text id="ProcessOnText1047" fill="#000000" font-size="13" x="18.5" y="13.325" font-family="微软雅黑" font-weight="normal" font-style="normal" text-decoration="none" family="微软雅黑" text-anchor="middle" size="13">.dex</text></g></g><g id="ProcessOnG1048" transform="matrix(1.0,0.0,0.0,1.0,259.0,753.0)" opacity="1.0"><path id="ProcessOnPath1049" d="M0.0 0.0L59.0 0.0L59.0 32.0L0.0 32.0Z" stroke="#323232" stroke-width="2.0" stroke-dasharray="none" opacity="1.0" fill="#cce5ff"/><g id="ProcessOnG1050" transform="matrix(1.0,0.0,0.0,1.0,10.0,-0.25)"><text id="ProcessOnText1051" fill="#000000" font-size="13" x="18.5" y="13.325" font-family="微软雅黑" font-weight="normal" font-style="normal" text-decoration="none" family="微软雅黑" text-anchor="middle" size="13">机器</text><text id="ProcessOnText1052" fill="#000000" font-size="13" x="18.5" y="29.575" font-family="微软雅黑" font-weight="normal" font-style="normal" text-decoration="none" family="微软雅黑" text-anchor="middle" size="13">码</text></g></g><g id="ProcessOnG1053" transform="matrix(1.0,0.0,0.0,1.0,380.0,501.0)" opacity="1.0"><path id="ProcessOnPath1054" d="M0.0 0.0L60.0 0.0L60.0 30.0L0.0 30.0Z" stroke="#323232" stroke-width="2.0" stroke-dasharray="none" opacity="1.0" fill="#cce5ff"/><g id="ProcessOnG1055" transform="matrix(1.0,0.0,0.0,1.0,10.0,6.875)"><text id="ProcessOnText1056" fill="#000000" font-size="13" x="19.0" y="13.325" font-family="微软雅黑" font-weight="normal" font-style="normal" text-decoration="none" family="微软雅黑" text-anchor="middle" size="13">.dex</text></g></g><g id="ProcessOnG1057" transform="matrix(1.0,0.0,0.0,1.0,561.0,501.0)" opacity="1.0"><path id="ProcessOnPath1058" d="M0.0 0.0L60.0 0.0L60.0 30.0L0.0 30.0Z" stroke="#323232" stroke-width="2.0" stroke-dasharray="none" opacity="1.0" fill="#cce5ff"/><g id="ProcessOnG1059" transform="matrix(1.0,0.0,0.0,1.0,10.0,6.875)"><text id="ProcessOnText1060" fill="#000000" font-size="13" x="19.0" y="13.325" font-family="微软雅黑" font-weight="normal" font-style="normal" text-decoration="none" family="微软雅黑" text-anchor="middle" size="13">.dex</text></g></g><g id="ProcessOnG1061"><path id="ProcessOnPath1062" d="M412.0 172.0L412.0 200.5L412.0 200.5L412.0 213.7639320225002" stroke="#323232" stroke-width="2.0" stroke-dasharray="none" fill="none" marker-end="url(#ProcessOnMarker1063)"/><g id="ProcessOnG1065" transform="matrix(1.0,0.0,0.0,1.0,412.0,184.75696601125009)"><path id="ProcessOnPath1066" d="M0 0H31.0V16.25H0Z" fill="#fff" transform="matrix(1.0,0.0,0.0,1.0,-15.5,0.0)"/><text id="ProcessOnText1067" fill="#000000" font-size="13" x="0.0" y="13.325" font-family="微软雅黑" font-weight="normal" font-style="normal" text-decoration="none" family="微软雅黑" text-anchor="middle" size="13">javac</text></g></g><g id="ProcessOnG1068"><path id="ProcessOnPath1069" d="M412.0 259.0L412.0 290.5L412.0 290.5L412.0 306.7639320225002" stroke="#323232" stroke-width="2.0" stroke-dasharray="none" fill="none" marker-end="url(#ProcessOnMarker1070)"/><g id="ProcessOnG1072" transform="matrix(1.0,0.0,0.0,1.0,412.0,274.75696601125014)"><path id="ProcessOnPath1073" d="M0 0H22.0V16.25H0Z" fill="#fff" transform="matrix(1.0,0.0,0.0,1.0,-11.0,0.0)"/><text id="ProcessOnText1074" fill="#000000" font-size="13" x="0.0" y="13.325" font-family="微软雅黑" font-weight="normal" font-style="normal" text-decoration="none" family="微软雅黑" text-anchor="middle" size="13">dex</text></g></g><g id="ProcessOnG1075"><path id="ProcessOnPath1076" d="M412.0 352.0L412.0 381.0L412.0 381.0L412.0 394.7639320225002" stroke="#323232" stroke-width="2.0" stroke-dasharray="none" fill="none" marker-end="url(#ProcessOnMarker1077)"/><g id="ProcessOnG1079" transform="matrix(1.0,0.0,0.0,1.0,412.0,365.25696601125014)"><path id="ProcessOnPath1080" d="M0 0H64.0V16.25H0Z" fill="#fff" transform="matrix(1.0,0.0,0.0,1.0,-32.0,0.0)"/><text id="ProcessOnText1081" fill="#000000" font-size="13" x="0.0" y="13.325" font-family="微软雅黑" font-weight="normal" font-style="normal" text-decoration="none" family="微软雅黑" text-anchor="middle" size="13">apkbuilder</text></g></g><g id="ProcessOnG1082"><path id="ProcessOnPath1083" d="M130.0 453.0L494.0 453.0L494.0 453.0L858.0 453.0" stroke="#323232" stroke-width="2.0" stroke-dasharray="2.0 3.0" fill="none"/></g><g id="ProcessOnG1084"><path id="ProcessOnPath1085" d="M412.0 440.0L412.0 451.5L412.0 451.5L412.0 452.5" stroke="#323232" stroke-width="2.0" stroke-dasharray="none" fill="none" marker-end="url(#ProcessOnMarker1086)"/></g><g id="ProcessOnG1088"><path id="ProcessOnPath1089" d="M288.5 531.0L288.5 560.5L288.5 560.5L288.5 574.7639320225002" stroke="#323232" stroke-width="2.0" stroke-dasharray="none" fill="none" marker-end="url(#ProcessOnMarker1090)"/><g id="ProcessOnG1092" transform="matrix(1.0,0.0,0.0,1.0,288.5,544.1319660112501)"><path id="ProcessOnPath1093" d="M0 0H49.0V17.5H0Z" fill="#fff" transform="matrix(1.0,0.0,0.0,1.0,-24.5,0.0)"/><text id="ProcessOnText1094" fill="#ff9933" font-size="14" x="0.0" y="14.350000000000001" font-family="微软雅黑" font-weight="bold" font-style="normal" text-decoration="none" family="微软雅黑" text-anchor="middle" size="14">dexopt</text></g></g><g id="ProcessOnG1095" transform="matrix(1.0,0.0,0.0,1.0,133.5,267.0)" opacity="1.0"><path id="ProcessOnPath1096" d="M0.0 0.0L60.5 0.0L60.5 20.0L0.0 20.0Z" stroke="none" stroke-width="0.0" stroke-dasharray="none" opacity="1.0" fill="none"/><g id="ProcessOnG1097" transform="matrix(1.0,0.0,0.0,1.0,0.0,1.25)"><text id="ProcessOnText1098" fill="#ff3333" font-size="14" x="29.25" y="14.350000000000001" font-family="微软雅黑" font-weight="bold" font-style="normal" text-decoration="none" family="微软雅黑" text-anchor="middle" size="14"> 打包</text></g></g><g id="ProcessOnG1099"><path id="ProcessOnPath1100" d="M288.5 620.0L288.5 686.5L288.5 686.5L288.5 737.7639320225002" stroke="#323232" stroke-width="2.0" stroke-dasharray="none" fill="none" marker-end="url(#ProcessOnMarker1101)"/><g id="ProcessOnG1103" transform="matrix(1.0,0.0,0.0,1.0,288.5,670.1319660112501)"><path id="ProcessOnPath1104" d="M0 0H14.0V17.5H0Z" fill="#fff" transform="matrix(1.0,0.0,0.0,1.0,-7.0,0.0)"/><text id="ProcessOnText1105" fill="#ff9933" font-size="14" x="0.0" y="14.350000000000001" font-family="微软雅黑" font-weight="bold" font-style="normal" text-decoration="none" family="微软雅黑" text-anchor="middle" size="14">jit</text></g></g><g id="ProcessOnG1106"><path id="ProcessOnPath1107" d="M410.0 531.0L410.0 560.5L410.0 560.5L410.0 574.7639320225002" stroke="#323232" stroke-width="2.0" stroke-dasharray="none" fill="none" marker-end="url(#ProcessOnMarker1108)"/><g id="ProcessOnG1110" transform="matrix(1.0,0.0,0.0,1.0,410.0,544.1319660112501)"><path id="ProcessOnPath1111" d="M0 0H57.0V17.5H0Z" fill="#fff" transform="matrix(1.0,0.0,0.0,1.0,-28.5,0.0)"/><text id="ProcessOnText1112" fill="#ff9933" font-size="14" x="0.0" y="14.350000000000001" font-family="微软雅黑" font-weight="bold" font-style="normal" text-decoration="none" family="微软雅黑" text-anchor="middle" size="14">dex2oat</text></g></g><g id="ProcessOnG1113" transform="matrix(1.0,0.0,0.0,1.0,136.5,531.0)" opacity="1.0"><path id="ProcessOnPath1114" d="M0.0 0.0L60.5 0.0L60.5 20.0L0.0 20.0Z" stroke="none" stroke-width="0.0" stroke-dasharray="none" opacity="1.0" fill="none"/><g id="ProcessOnG1115" transform="matrix(1.0,0.0,0.0,1.0,0.0,1.25)"><text id="ProcessOnText1116" fill="#ff3333" font-size="14" x="29.25" y="14.350000000000001" font-family="微软雅黑" font-weight="bold" font-style="normal" text-decoration="none" family="微软雅黑" text-anchor="middle" size="14">安装</text></g></g><g id="ProcessOnG1117" transform="matrix(1.0,0.0,0.0,1.0,136.5,704.0)" opacity="1.0"><path id="ProcessOnPath1118" d="M0.0 0.0L60.5 0.0L60.5 20.0L0.0 20.0Z" stroke="none" stroke-width="0.0" stroke-dasharray="none" opacity="1.0" fill="none"/><g id="ProcessOnG1119" transform="matrix(1.0,0.0,0.0,1.0,0.0,1.25)"><text id="ProcessOnText1120" fill="#ff3333" font-size="14" x="29.25" y="14.350000000000001" font-family="微软雅黑" font-weight="bold" font-style="normal" text-decoration="none" family="微软雅黑" text-anchor="middle" size="14">编译</text></g></g><g id="ProcessOnG1121" transform="matrix(1.0,0.0,0.0,1.0,136.5,850.0)" opacity="1.0"><path id="ProcessOnPath1122" d="M0.0 0.0L60.5 0.0L60.5 20.0L0.0 20.0Z" stroke="none" stroke-width="0.0" stroke-dasharray="none" opacity="1.0" fill="none"/><g id="ProcessOnG1123" transform="matrix(1.0,0.0,0.0,1.0,0.0,1.25)"><text id="ProcessOnText1124" fill="#ff3333" font-size="14" x="29.25" y="14.350000000000001" font-family="微软雅黑" font-weight="bold" font-style="normal" text-decoration="none" family="微软雅黑" text-anchor="middle" size="14">执行</text></g></g><g id="ProcessOnG1125" transform="matrix(1.0,0.0,0.0,1.0,556.0,639.0)" opacity="1.0"><path id="ProcessOnPath1126" d="M0.0 20.5L35.0 0.0L70.0 20.5L35.0 41.0Z" stroke="#323232" stroke-width="2.0" stroke-dasharray="none" opacity="1.0" fill="#ffffff"/><g id="ProcessOnG1127" transform="matrix(1.0,0.0,0.0,1.0,10.0,12.58)"><text id="ProcessOnText1128" fill="#000000" font-size="13" x="24.0" y="13.325" font-family="微软雅黑" font-weight="normal" font-style="normal" text-decoration="none" family="微软雅黑" text-anchor="middle" size="13">hot</text></g></g><g id="ProcessOnG1129" transform="matrix(1.0,0.0,0.0,1.0,487.0,752.0)" opacity="1.0"><path id="ProcessOnPath1130" d="M0.0 0.0L59.0 0.0L59.0 32.0L0.0 32.0Z" stroke="#323232" stroke-width="2.0" stroke-dasharray="none" opacity="1.0" fill="#cce5ff"/><g id="ProcessOnG1131" transform="matrix(1.0,0.0,0.0,1.0,10.0,-0.25)"><text id="ProcessOnText1132" fill="#000000" font-size="13" x="18.5" y="13.325" font-family="微软雅黑" font-weight="normal" font-style="normal" text-decoration="none" family="微软雅黑" text-anchor="middle" size="13">机器</text><text id="ProcessOnText1133" fill="#000000" font-size="13" x="18.5" y="29.575" font-family="微软雅黑" font-weight="normal" font-style="normal" text-decoration="none" family="微软雅黑" text-anchor="middle" size="13">码</text></g></g><g id="ProcessOnG1134" transform="matrix(1.0,0.0,0.0,1.0,635.0,752.0)" opacity="1.0"><path id="ProcessOnPath1135" d="M0.0 0.0L59.0 0.0L59.0 32.0L0.0 32.0Z" stroke="#323232" stroke-width="2.0" stroke-dasharray="none" opacity="1.0" fill="#cce5ff"/><g id="ProcessOnG1136" transform="matrix(1.0,0.0,0.0,1.0,10.0,-0.25)"><text id="ProcessOnText1137" fill="#000000" font-size="13" x="18.5" y="13.325" font-family="微软雅黑" font-weight="normal" font-style="normal" text-decoration="none" family="微软雅黑" text-anchor="middle" size="13">机器</text><text id="ProcessOnText1138" fill="#000000" font-size="13" x="18.5" y="29.575" font-family="微软雅黑" font-weight="normal" font-style="normal" text-decoration="none" family="微软雅黑" text-anchor="middle" size="13">码</text></g></g><g id="ProcessOnG1139"><path id="ProcessOnPath1140" d="M129.0 631.0L493.5 631.0L493.5 631.0L858.0 631.0" stroke="#323232" stroke-width="2.0" stroke-dasharray="2.0 3.0" fill="none"/></g><g id="ProcessOnG1141"><path id="ProcessOnPath1142" d="M556.0 659.5L516.5 659.5L516.5 736.7639320225002" stroke="#323232" stroke-width="2.0" stroke-dasharray="none" fill="none" marker-end="url(#ProcessOnMarker1143)"/><g id="ProcessOnG1145" transform="matrix(1.0,0.0,0.0,1.0,516.5,660.8819660112501)"><path id="ProcessOnPath1146" d="M0 0H63.0V35.0H0Z" fill="#fff" transform="matrix(1.0,0.0,0.0,1.0,-31.5,0.0)"/><text id="ProcessOnText1147" fill="#ff9933" font-size="14" x="0.0" y="14.350000000000001" font-family="微软雅黑" font-weight="bold" font-style="normal" text-decoration="none" family="微软雅黑" text-anchor="middle" size="14">N</text><text id="ProcessOnText1148" fill="#ff9933" font-size="14" x="0.0" y="31.85" font-family="微软雅黑" font-weight="bold" font-style="normal" text-decoration="none" family="微软雅黑" text-anchor="middle" size="14">Interpret</text></g></g><g id="ProcessOnG1149"><path id="ProcessOnPath1150" d="M626.0 659.5L664.5 659.5L664.5 736.7639320225002" stroke="#323232" stroke-width="2.0" stroke-dasharray="none" fill="none" marker-end="url(#ProcessOnMarker1151)"/><g id="ProcessOnG1153" transform="matrix(1.0,0.0,0.0,1.0,664.5,661.3819660112501)"><path id="ProcessOnPath1154" d="M0 0H17.0V35.0H0Z" fill="#fff" transform="matrix(1.0,0.0,0.0,1.0,-8.5,0.0)"/><text id="ProcessOnText1155" fill="#ff9933" font-size="14" x="0.0" y="14.350000000000001" font-family="微软雅黑" font-weight="bold" font-style="normal" text-decoration="none" family="微软雅黑" text-anchor="middle" size="14">Y</text><text id="ProcessOnText1156" fill="#ff9933" font-size="14" x="0.0" y="31.85" font-family="微软雅黑" font-weight="bold" font-style="normal" text-decoration="none" family="微软雅黑" text-anchor="middle" size="14">Jit</text></g></g><g id="ProcessOnG1157"><path id="ProcessOnPath1158" d="M591.0 531.0L591.0 585.0L591.0 585.0L591.0 623.7639320225002" stroke="#323232" stroke-width="2.0" stroke-dasharray="none" fill="none" marker-end="url(#ProcessOnMarker1159)"/></g><g id="ProcessOnG1161" transform="matrix(1.0,0.0,0.0,1.0,739.0,666.0)" opacity="1.0"><path id="ProcessOnPath1162" d="M0.0 4.0Q0.0 0.0 4.0 0.0L86.0 0.0Q90.0 0.0 90.0 4.0L90.0 25.0Q90.0 29.0 86.0 29.0L4.0 29.0Q0.0 29.0 0.0 25.0Z" stroke="#323232" stroke-width="2.0" stroke-dasharray="none" opacity="1.0" fill="#ffffff"/><g id="ProcessOnG1163" transform="matrix(1.0,0.0,0.0,1.0,10.0,6.375)"><text id="ProcessOnText1164" fill="#000000" font-size="13" x="34.0" y="13.325" font-family="微软雅黑" font-weight="normal" font-style="normal" text-decoration="none" family="微软雅黑" text-anchor="middle" size="13">profile info</text></g></g><g id="ProcessOnG1165" transform="matrix(1.0,0.0,0.0,1.0,754.0,754.0)" opacity="1.0"><path id="ProcessOnPath1166" d="M0.0 0.0L60.0 0.0L60.0 30.0L0.0 30.0Z" stroke="#323232" stroke-width="2.0" stroke-dasharray="none" opacity="1.0" fill="#cce5ff"/><g id="ProcessOnG1167" transform="matrix(1.0,0.0,0.0,1.0,10.0,6.875)"><text id="ProcessOnText1168" fill="#000000" font-size="13" x="19.0" y="13.325" font-family="微软雅黑" font-weight="normal" font-style="normal" text-decoration="none" family="微软雅黑" text-anchor="middle" size="13">.oat</text></g></g><g id="ProcessOnG1169"><path id="ProcessOnPath1170" d="M784.0 695.0L784.0 724.5L784.0 724.5L784.0 738.7639320225002" stroke="#323232" stroke-width="2.0" stroke-dasharray="none" fill="none" marker-end="url(#ProcessOnMarker1171)"/><g id="ProcessOnG1173" transform="matrix(1.0,0.0,0.0,1.0,784.0,708.1319660112501)"><path id="ProcessOnPath1174" d="M0 0H57.0V17.5H0Z" fill="#fff" transform="matrix(1.0,0.0,0.0,1.0,-28.5,0.0)"/><text id="ProcessOnText1175" fill="#ff9933" font-size="14" x="0.0" y="14.350000000000001" font-family="微软雅黑" font-weight="bold" font-style="normal" text-decoration="none" family="微软雅黑" text-anchor="middle" size="14">dex2oat</text></g></g><g id="ProcessOnG1176"><path id="ProcessOnPath1177" d="M131.0 801.0L495.0 801.0L495.0 801.0L859.0 801.0" stroke="#323232" stroke-width="2.0" stroke-dasharray="2.0 3.0" fill="none"/></g><g id="ProcessOnG1178"><path id="ProcessOnPath1179" d="M395.0 785.0L395.0 814.0L395.0 814.0L395.0 827.7639320225002" stroke="#323232" stroke-width="2.0" stroke-dasharray="none" fill="none" marker-end="url(#ProcessOnMarker1180)"/></g><g id="ProcessOnG1182"><path id="ProcessOnPath1183" d="M410.0 785.0L410.0 814.0L410.0 814.0L410.0 827.7639320225002" stroke="#323232" stroke-width="2.0" stroke-dasharray="none" fill="none" marker-end="url(#ProcessOnMarker1184)"/></g><g id="ProcessOnG1186"><path id="ProcessOnPath1187" d="M425.0 785.0L425.0 814.0L425.0 814.0L425.0 827.7639320225002" stroke="#323232" stroke-width="2.0" stroke-dasharray="none" fill="none" marker-end="url(#ProcessOnMarker1188)"/></g></g></g></svg>