<svg xmlns="http://www.w3.org/2000/svg" xmlns:xlink="http://www.w3.org/1999/xlink" id="processonSvg1000" viewBox="16.0 62.0 1344.0 733.0" width="1344.0" height="733.0"><defs id="ProcessOnDefs1001"><marker id="ProcessOnMarker1080" markerUnits="userSpaceOnUse" orient="auto" markerWidth="16.23606797749979" markerHeight="10.550836550532098" viewBox="-1.0 -1.3763819204711736 16.23606797749979 10.550836550532098" refX="-1.0" refY="3.8990363547948754"><path id="ProcessOnPath1081" d="M12.0 3.8990363547948754L0.0 7.798072709589751V0.0Z" stroke="#323232" stroke-width="2.0" fill="#323232" transform="matrix(1.0,0.0,0.0,1.0,0.0,0.0)"/></marker><marker id="ProcessOnMarker1087" markerUnits="userSpaceOnUse" orient="auto" markerWidth="16.23606797749979" markerHeight="10.550836550532098" viewBox="-1.0 -1.3763819204711736 16.23606797749979 10.550836550532098" refX="-1.0" refY="3.8990363547948754"><path id="ProcessOnPath1088" d="M12.0 3.8990363547948754L0.0 7.798072709589751V0.0Z" stroke="#323232" stroke-width="2.0" fill="#323232" transform="matrix(1.0,0.0,0.0,1.0,0.0,0.0)"/></marker><marker id="ProcessOnMarker1100" markerUnits="userSpaceOnUse" orient="auto" markerWidth="16.23606797749979" markerHeight="10.550836550532098" viewBox="-1.0 -1.3763819204711736 16.23606797749979 10.550836550532098" refX="-1.0" refY="3.8990363547948754"><path id="ProcessOnPath1101" d="M12.0 3.8990363547948754L0.0 7.798072709589751V0.0Z" stroke="#323232" stroke-width="2.0" fill="#323232" transform="matrix(1.0,0.0,0.0,1.0,0.0,0.0)"/></marker><marker id="ProcessOnMarker1104" markerUnits="userSpaceOnUse" orient="auto" markerWidth="16.23606797749979" markerHeight="10.550836550532098" viewBox="-1.0 -1.3763819204711736 16.23606797749979 10.550836550532098" refX="-1.0" refY="3.8990363547948754"><path id="ProcessOnPath1105" d="M12.0 3.8990363547948754L0.0 7.798072709589751V0.0Z" stroke="#323232" stroke-width="2.0" fill="#323232" transform="matrix(1.0,0.0,0.0,1.0,0.0,0.0)"/></marker><marker id="ProcessOnMarker1142" markerUnits="userSpaceOnUse" orient="auto" markerWidth="16.23606797749979" markerHeight="10.550836550532098" viewBox="-1.0 -1.3763819204711736 16.23606797749979 10.550836550532098" refX="-1.0" refY="3.8990363547948754"><path id="ProcessOnPath1143" d="M12.0 3.8990363547948754L0.0 7.798072709589751V0.0Z" stroke="#323232" stroke-width="2.0" fill="#323232" transform="matrix(1.0,0.0,0.0,1.0,0.0,0.0)"/></marker><marker id="ProcessOnMarker1146" markerUnits="userSpaceOnUse" orient="auto" markerWidth="16.23606797749979" markerHeight="10.550836550532098" viewBox="-1.0 -1.3763819204711736 16.23606797749979 10.550836550532098" refX="-1.0" refY="3.8990363547948754"><path id="ProcessOnPath1147" d="M12.0 3.8990363547948754L0.0 7.798072709589751V0.0Z" stroke="#323232" stroke-width="2.0" fill="#323232" transform="matrix(1.0,0.0,0.0,1.0,0.0,0.0)"/></marker><marker id="ProcessOnMarker1172" markerUnits="userSpaceOnUse" orient="auto" markerWidth="16.23606797749979" markerHeight="10.550836550532098" viewBox="-1.0 -1.3763819204711736 16.23606797749979 10.550836550532098" refX="-1.0" refY="3.8990363547948754"><path id="ProcessOnPath1173" d="M12.0 3.8990363547948754L0.0 7.798072709589751V0.0Z" stroke="#323232" stroke-width="2.0" fill="#323232" transform="matrix(1.0,0.0,0.0,1.0,0.0,0.0)"/></marker><marker id="ProcessOnMarker1176" markerUnits="userSpaceOnUse" orient="auto" markerWidth="16.23606797749979" markerHeight="10.550836550532098" viewBox="-1.0 -1.3763819204711736 16.23606797749979 10.550836550532098" refX="-1.0" refY="3.8990363547948754"><path id="ProcessOnPath1177" d="M12.0 3.8990363547948754L0.0 7.798072709589751V0.0Z" stroke="#323232" stroke-width="2.0" fill="#323232" transform="matrix(1.0,0.0,0.0,1.0,0.0,0.0)"/></marker><marker id="ProcessOnMarker1180" markerUnits="userSpaceOnUse" orient="auto" markerWidth="16.23606797749979" markerHeight="10.550836550532098" viewBox="-1.0 -1.3763819204711736 16.23606797749979 10.550836550532098" refX="-1.0" refY="3.8990363547948754"><path id="ProcessOnPath1181" d="M12.0 3.8990363547948754L0.0 7.798072709589751V0.0Z" stroke="#323232" stroke-width="2.0" fill="#323232" transform="matrix(1.0,0.0,0.0,1.0,0.0,0.0)"/></marker><marker id="ProcessOnMarker1184" markerUnits="userSpaceOnUse" orient="auto" markerWidth="16.23606797749979" markerHeight="10.550836550532098" viewBox="-1.0 -1.3763819204711736 16.23606797749979 10.550836550532098" refX="-1.0" refY="3.8990363547948754"><path id="ProcessOnPath1185" d="M12.0 3.8990363547948754L0.0 7.798072709589751V0.0Z" stroke="#323232" stroke-width="2.0" fill="#323232" transform="matrix(1.0,0.0,0.0,1.0,0.0,0.0)"/></marker><marker id="ProcessOnMarker1188" markerUnits="userSpaceOnUse" orient="auto" markerWidth="16.23606797749979" markerHeight="10.550836550532098" viewBox="-1.0 -1.3763819204711736 16.23606797749979 10.550836550532098" refX="-1.0" refY="3.8990363547948754"><path id="ProcessOnPath1189" d="M12.0 3.8990363547948754L0.0 7.798072709589751V0.0Z" stroke="#323232" stroke-width="2.0" fill="#323232" transform="matrix(1.0,0.0,0.0,1.0,0.0,0.0)"/></marker><marker id="ProcessOnMarker1192" markerUnits="userSpaceOnUse" orient="auto" markerWidth="16.23606797749979" markerHeight="10.550836550532098" viewBox="-1.0 -1.3763819204711736 16.23606797749979 10.550836550532098" refX="-1.0" refY="3.8990363547948754"><path id="ProcessOnPath1193" d="M12.0 3.8990363547948754L0.0 7.798072709589751V0.0Z" stroke="#323232" stroke-width="2.0" fill="#323232" transform="matrix(1.0,0.0,0.0,1.0,0.0,0.0)"/></marker><marker id="ProcessOnMarker1205" markerUnits="userSpaceOnUse" orient="auto" markerWidth="16.23606797749979" markerHeight="10.550836550532098" viewBox="-1.0 -1.3763819204711736 16.23606797749979 10.550836550532098" refX="-1.0" refY="3.8990363547948754"><path id="ProcessOnPath1206" d="M12.0 3.8990363547948754L0.0 7.798072709589751V0.0Z" stroke="#323232" stroke-width="2.0" fill="#323232" transform="matrix(1.0,0.0,0.0,1.0,0.0,0.0)"/></marker><marker id="ProcessOnMarker1209" markerUnits="userSpaceOnUse" orient="auto" markerWidth="16.23606797749979" markerHeight="10.550836550532098" viewBox="-1.0 -1.3763819204711736 16.23606797749979 10.550836550532098" refX="-1.0" refY="3.8990363547948754"><path id="ProcessOnPath1210" d="M12.0 3.8990363547948754L0.0 7.798072709589751V0.0Z" stroke="#323232" stroke-width="2.0" fill="#323232" transform="matrix(1.0,0.0,0.0,1.0,0.0,0.0)"/></marker><marker id="ProcessOnMarker1238" markerUnits="userSpaceOnUse" orient="auto" markerWidth="16.23606797749979" markerHeight="10.550836550532098" viewBox="-1.0 -1.3763819204711736 16.23606797749979 10.550836550532098" refX="-1.0" refY="3.8990363547948754"><path id="ProcessOnPath1239" d="M12.0 3.8990363547948754L0.0 7.798072709589751V0.0Z" stroke="#323232" stroke-width="2.0" fill="#323232" transform="matrix(1.0,0.0,0.0,1.0,0.0,0.0)"/></marker><marker id="ProcessOnMarker1242" markerUnits="userSpaceOnUse" orient="auto" markerWidth="16.23606797749979" markerHeight="10.550836550532098" viewBox="-1.0 -1.3763819204711736 16.23606797749979 10.550836550532098" refX="-1.0" refY="3.8990363547948754"><path id="ProcessOnPath1243" d="M12.0 3.8990363547948754L0.0 7.798072709589751V0.0Z" stroke="#323232" stroke-width="2.0" fill="#323232" transform="matrix(1.0,0.0,0.0,1.0,0.0,0.0)"/></marker><marker id="ProcessOnMarker1255" markerUnits="userSpaceOnUse" orient="auto" markerWidth="16.23606797749979" markerHeight="10.550836550532098" viewBox="-1.0 -1.3763819204711736 16.23606797749979 10.550836550532098" refX="-1.0" refY="3.8990363547948754"><path id="ProcessOnPath1256" d="M12.0 3.8990363547948754L0.0 7.798072709589751V0.0Z" stroke="#323232" stroke-width="2.0" fill="#323232" transform="matrix(1.0,0.0,0.0,1.0,0.0,0.0)"/></marker><marker id="ProcessOnMarker1259" markerUnits="userSpaceOnUse" orient="auto" markerWidth="16.23606797749979" markerHeight="10.550836550532098" viewBox="-1.0 -1.3763819204711736 16.23606797749979 10.550836550532098" refX="-1.0" refY="3.8990363547948754"><path id="ProcessOnPath1260" d="M12.0 3.8990363547948754L0.0 7.798072709589751V0.0Z" stroke="#323232" stroke-width="2.0" fill="#323232" transform="matrix(1.0,0.0,0.0,1.0,0.0,0.0)"/></marker><marker id="ProcessOnMarker1263" markerUnits="userSpaceOnUse" orient="auto" markerWidth="16.23606797749979" markerHeight="10.550836550532098" viewBox="-1.0 -1.3763819204711736 16.23606797749979 10.550836550532098" refX="-1.0" refY="3.8990363547948754"><path id="ProcessOnPath1264" d="M12.0 3.8990363547948754L0.0 7.798072709589751V0.0Z" stroke="#323232" stroke-width="2.0" fill="#323232" transform="matrix(1.0,0.0,0.0,1.0,0.0,0.0)"/></marker><marker id="ProcessOnMarker1267" markerUnits="userSpaceOnUse" orient="auto" markerWidth="16.23606797749979" markerHeight="10.550836550532098" viewBox="-1.0 -1.3763819204711736 16.23606797749979 10.550836550532098" refX="-1.0" refY="3.8990363547948754"><path id="ProcessOnPath1268" d="M12.0 3.8990363547948754L0.0 7.798072709589751V0.0Z" stroke="#323232" stroke-width="2.0" fill="#323232" transform="matrix(1.0,0.0,0.0,1.0,0.0,0.0)"/></marker><marker id="ProcessOnMarker1271" markerUnits="userSpaceOnUse" orient="auto" markerWidth="16.23606797749979" markerHeight="10.550836550532098" viewBox="-1.0 -1.3763819204711736 16.23606797749979 10.550836550532098" refX="-1.0" refY="3.8990363547948754"><path id="ProcessOnPath1272" d="M12.0 3.8990363547948754L0.0 7.798072709589751V0.0Z" stroke="#323232" stroke-width="2.0" fill="#323232" transform="matrix(1.0,0.0,0.0,1.0,0.0,0.0)"/></marker><marker id="ProcessOnMarker1275" markerUnits="userSpaceOnUse" orient="auto" markerWidth="16.23606797749979" markerHeight="10.550836550532098" viewBox="-1.0 -1.3763819204711736 16.23606797749979 10.550836550532098" refX="-1.0" refY="3.8990363547948754"><path id="ProcessOnPath1276" d="M12.0 3.8990363547948754L0.0 7.798072709589751V0.0Z" stroke="#323232" stroke-width="2.0" fill="#323232" transform="matrix(1.0,0.0,0.0,1.0,0.0,0.0)"/></marker><marker id="ProcessOnMarker1283" markerUnits="userSpaceOnUse" orient="auto" markerWidth="16.23606797749979" markerHeight="10.550836550532098" viewBox="-1.0 -1.3763819204711736 16.23606797749979 10.550836550532098" refX="-1.0" refY="3.8990363547948754"><path id="ProcessOnPath1284" d="M12.0 3.8990363547948754L0.0 7.798072709589751V0.0Z" stroke="#323232" stroke-width="2.0" fill="#323232" transform="matrix(1.0,0.0,0.0,1.0,0.0,0.0)"/></marker><marker id="ProcessOnMarker1300" markerUnits="userSpaceOnUse" orient="auto" markerWidth="16.23606797749979" markerHeight="10.550836550532098" viewBox="-1.0 -1.3763819204711736 16.23606797749979 10.550836550532098" refX="-1.0" refY="3.8990363547948754"><path id="ProcessOnPath1301" d="M12.0 3.8990363547948754L0.0 7.798072709589751V0.0Z" stroke="#323232" stroke-width="2.0" fill="#323232" transform="matrix(1.0,0.0,0.0,1.0,0.0,0.0)"/></marker><marker id="ProcessOnMarker1304" markerUnits="userSpaceOnUse" orient="auto" markerWidth="16.23606797749979" markerHeight="10.550836550532098" viewBox="-1.0 -1.3763819204711736 16.23606797749979 10.550836550532098" refX="-1.0" refY="3.8990363547948754"><path id="ProcessOnPath1305" d="M12.0 3.8990363547948754L0.0 7.798072709589751V0.0Z" stroke="#323232" stroke-width="2.0" fill="#323232" transform="matrix(1.0,0.0,0.0,1.0,0.0,0.0)"/></marker></defs><g id="ProcessOnG1002"><path id="ProcessOnPath1003" d="M16.0 62.0H1360.0V795.0H16.0V62.0Z" fill="none"/><g id="ProcessOnG1004"><g id="ProcessOnG1005" transform="matrix(1.0,0.0,0.0,1.0,322.0,401.0)" opacity="1.0"><path id="ProcessOnPath1006" d="M0.0 80.0C0.0 -26.666666666666668 160.0 -26.666666666666668 160.0 80.0C160.0 186.66666666666666 0.0 186.66666666666666 0.0 80.0Z" stroke="#323232" stroke-width="2.0" stroke-dasharray="none" opacity="1.0" fill="#ffffff"/></g><g id="ProcessOnG1007" transform="matrix(1.0,0.0,0.0,1.0,404.0,469.5)" opacity="1.0"><path id="ProcessOnPath1008" d="M0.0 0.0L160.0 0.0L160.0 36.5L0.0 36.5Z" stroke="#323232" stroke-width="2.0" stroke-dasharray="none" opacity="1.0" fill="#ffffff"/><g id="ProcessOnG1009" transform="matrix(1.0,0.0,0.0,1.0,10.0,2.0)"><text id="ProcessOnText1010" fill="#000000" font-size="13" x="69.0" y="13.325" font-family="微软雅黑" font-weight="normal" font-style="normal" text-decoration="none" family="微软雅黑" text-anchor="middle" size="13">step2:</text><text id="ProcessOnText1011" fill="#000000" font-size="13" x="69.0" y="29.575" font-family="微软雅黑" font-weight="normal" font-style="normal" text-decoration="none" family="微软雅黑" text-anchor="middle" size="13">processSelectedKeys</text></g></g><g id="ProcessOnG1012" transform="matrix(1.0,0.0,0.0,1.0,274.0,469.5)" opacity="1.0"><path id="ProcessOnPath1013" d="M0.0 0.0L97.0 0.0L97.0 36.5L0.0 36.5Z" stroke="#323232" stroke-width="2.0" stroke-dasharray="none" opacity="1.0" fill="#ffffff"/><g id="ProcessOnG1014" transform="matrix(1.0,0.0,0.0,1.0,10.0,2.0)"><text id="ProcessOnText1015" fill="#000000" font-size="13" x="37.5" y="13.325" font-family="微软雅黑" font-weight="normal" font-style="normal" text-decoration="none" family="微软雅黑" text-anchor="middle" size="13">step3:</text><text id="ProcessOnText1016" fill="#000000" font-size="13" x="37.5" y="29.575" font-family="微软雅黑" font-weight="normal" font-style="normal" text-decoration="none" family="微软雅黑" text-anchor="middle" size="13">runAllTasks</text></g></g><g id="ProcessOnG1017" transform="matrix(1.0,0.0,0.0,1.0,358.75,391.0)" opacity="1.0"><path id="ProcessOnPath1018" d="M0.0 0.0L76.5 0.0L76.5 35.0L0.0 35.0Z" stroke="#323232" stroke-width="2.0" stroke-dasharray="none" opacity="1.0" fill="#ffffff"/><g id="ProcessOnG1019" transform="matrix(1.0,0.0,0.0,1.0,10.0,1.25)"><text id="ProcessOnText1020" fill="#000000" font-size="13" x="27.25" y="13.325" font-family="微软雅黑" font-weight="normal" font-style="normal" text-decoration="none" family="微软雅黑" text-anchor="middle" size="13">step1:</text><text id="ProcessOnText1021" fill="#000000" font-size="13" x="27.25" y="29.575" font-family="微软雅黑" font-weight="normal" font-style="normal" text-decoration="none" family="微软雅黑" text-anchor="middle" size="13">select</text></g></g><g id="ProcessOnG1022" transform="matrix(1.0,0.0,0.0,1.0,651.0,82.0)" opacity="1.0"><path id="ProcessOnPath1023" d="M0.0 0.0L268.0 0.0L268.0 235.0L0.0 235.0Z" stroke="#323232" stroke-width="2.0" stroke-dasharray="none" opacity="1.0" fill="#ccccff"/></g><g id="ProcessOnG1024" transform="matrix(1.0,0.0,0.0,1.0,699.5,134.0)" opacity="1.0"><path id="ProcessOnPath1025" d="M0.0 0.0L162.5 0.0L162.5 62.0L0.0 62.0Z" stroke="#323232" stroke-width="2.0" stroke-dasharray="none" opacity="1.0" fill="#ffcccc"/></g><g id="ProcessOnG1026" transform="matrix(1.0,0.0,0.0,1.0,740.5,165.0)" opacity="1.0"><path id="ProcessOnPath1027" d="M0.0 0.0L80.5 0.0L80.5 26.0L0.0 26.0Z" stroke="#323232" stroke-width="2.0" stroke-dasharray="none" opacity="1.0" fill="#ffe6cc"/><g id="ProcessOnG1028" transform="matrix(1.0,0.0,0.0,1.0,10.0,4.875)"><text id="ProcessOnText1029" fill="#000000" font-size="13" x="29.25" y="13.325" font-family="微软雅黑" font-weight="normal" font-style="normal" text-decoration="none" family="微软雅黑" text-anchor="middle" size="13">Selector</text></g></g><g id="ProcessOnG1030" transform="matrix(1.0,0.0,0.0,1.0,740.5,137.0)" opacity="1.0"><path id="ProcessOnPath1031" d="M0.0 0.0L89.0 0.0L89.0 20.0L0.0 20.0Z" stroke="none" stroke-width="0.0" stroke-dasharray="none" opacity="1.0" fill="none"/><g id="ProcessOnG1032" transform="matrix(1.0,0.0,0.0,1.0,0.0,1.875)"><text id="ProcessOnText1033" fill="#000000" font-size="13" x="43.5" y="13.325" font-family="微软雅黑" font-weight="normal" font-style="normal" text-decoration="none" family="微软雅黑" text-anchor="middle" size="13">NioEventLoop</text></g></g><g id="ProcessOnG1034" transform="matrix(1.0,0.0,0.0,1.0,719.25,98.0)" opacity="1.0"><path id="ProcessOnPath1035" d="M0.0 0.0L131.5 0.0L131.5 20.0L0.0 20.0Z" stroke="none" stroke-width="0.0" stroke-dasharray="none" opacity="1.0" fill="none"/><g id="ProcessOnG1036" transform="matrix(1.0,0.0,0.0,1.0,0.0,-6.25)"><text id="ProcessOnText1037" fill="#ff3333" font-size="13" x="64.75" y="13.325" font-family="微软雅黑" font-weight="bold" font-style="normal" text-decoration="none" family="微软雅黑" text-anchor="middle" size="13">child</text><text id="ProcessOnText1038" fill="#ff3333" font-size="13" x="64.75" y="29.575" font-family="微软雅黑" font-weight="bold" font-style="normal" text-decoration="none" family="微软雅黑" text-anchor="middle" size="13">NioEventLoopGroup</text></g></g><g id="ProcessOnG1039" transform="matrix(1.0,0.0,0.0,1.0,699.5,239.0)" opacity="1.0"><path id="ProcessOnPath1040" d="M0.0 0.0L162.5 0.0L162.5 62.0L0.0 62.0Z" stroke="#323232" stroke-width="2.0" stroke-dasharray="none" opacity="1.0" fill="#ffcccc"/></g><g id="ProcessOnG1041" transform="matrix(1.0,0.0,0.0,1.0,740.5,270.0)" opacity="1.0"><path id="ProcessOnPath1042" d="M0.0 0.0L80.5 0.0L80.5 26.0L0.0 26.0Z" stroke="#323232" stroke-width="2.0" stroke-dasharray="none" opacity="1.0" fill="#ffe6cc"/><g id="ProcessOnG1043" transform="matrix(1.0,0.0,0.0,1.0,10.0,4.875)"><text id="ProcessOnText1044" fill="#000000" font-size="13" x="29.25" y="13.325" font-family="微软雅黑" font-weight="normal" font-style="normal" text-decoration="none" family="微软雅黑" text-anchor="middle" size="13">Selector</text></g></g><g id="ProcessOnG1045" transform="matrix(1.0,0.0,0.0,1.0,740.5,242.0)" opacity="1.0"><path id="ProcessOnPath1046" d="M0.0 0.0L89.0 0.0L89.0 20.0L0.0 20.0Z" stroke="none" stroke-width="0.0" stroke-dasharray="none" opacity="1.0" fill="none"/><g id="ProcessOnG1047" transform="matrix(1.0,0.0,0.0,1.0,0.0,1.875)"><text id="ProcessOnText1048" fill="#000000" font-size="13" x="43.5" y="13.325" font-family="微软雅黑" font-weight="normal" font-style="normal" text-decoration="none" family="微软雅黑" text-anchor="middle" size="13">NioEventLoop</text></g></g><g id="ProcessOnG1049" transform="matrix(1.0,0.0,0.0,1.0,747.75,204.0)" opacity="1.0"><path id="ProcessOnPath1050" d="M0.0 0.0L66.0 0.0L66.0 20.0L0.0 20.0Z" stroke="none" stroke-width="0.0" stroke-dasharray="none" opacity="1.0" fill="none"/><g id="ProcessOnG1051" transform="matrix(1.0,0.0,0.0,1.0,0.0,0.625)"><text id="ProcessOnText1052" fill="#000000" font-size="15" x="32.0" y="15.375" font-family="微软雅黑" font-weight="bold" font-style="normal" text-decoration="none" family="微软雅黑" text-anchor="middle" size="15">......</text></g></g><g id="ProcessOnG1053" transform="matrix(1.0,0.0,0.0,1.0,263.0,82.0)" opacity="1.0"><path id="ProcessOnPath1054" d="M0.0 0.0L268.0 0.0L268.0 239.0L0.0 239.0Z" stroke="#323232" stroke-width="2.0" stroke-dasharray="none" opacity="1.0" fill="#ccccff"/></g><g id="ProcessOnG1055" transform="matrix(1.0,0.0,0.0,1.0,331.25,93.0)" opacity="1.0"><path id="ProcessOnPath1056" d="M0.0 0.0L131.5 0.0L131.5 35.0L0.0 35.0Z" stroke="none" stroke-width="0.0" stroke-dasharray="none" opacity="1.0" fill="none"/><g id="ProcessOnG1057" transform="matrix(1.0,0.0,0.0,1.0,0.0,1.25)"><text id="ProcessOnText1058" fill="#ff3333" font-size="13" x="64.75" y="13.325" font-family="微软雅黑" font-weight="bold" font-style="normal" text-decoration="none" family="微软雅黑" text-anchor="middle" size="13">parent</text><text id="ProcessOnText1059" fill="#ff3333" font-size="13" x="64.75" y="29.575" font-family="微软雅黑" font-weight="bold" font-style="normal" text-decoration="none" family="微软雅黑" text-anchor="middle" size="13">NioEventLoopGroup</text></g></g><g id="ProcessOnG1060" transform="matrix(1.0,0.0,0.0,1.0,311.5,242.0)" opacity="1.0"><path id="ProcessOnPath1061" d="M0.0 0.0L162.5 0.0L162.5 63.0L0.0 63.0Z" stroke="#323232" stroke-width="2.0" stroke-dasharray="none" opacity="1.0" fill="#ffcccc"/></g><g id="ProcessOnG1062" transform="matrix(1.0,0.0,0.0,1.0,352.5,274.0)" opacity="1.0"><path id="ProcessOnPath1063" d="M0.0 0.0L80.5 0.0L80.5 26.0L0.0 26.0Z" stroke="#323232" stroke-width="2.0" stroke-dasharray="none" opacity="1.0" fill="#ffe6cc"/><g id="ProcessOnG1064" transform="matrix(1.0,0.0,0.0,1.0,10.0,4.875)"><text id="ProcessOnText1065" fill="#000000" font-size="13" x="29.25" y="13.325" font-family="微软雅黑" font-weight="normal" font-style="normal" text-decoration="none" family="微软雅黑" text-anchor="middle" size="13">Selector</text></g></g><g id="ProcessOnG1066" transform="matrix(1.0,0.0,0.0,1.0,352.5,246.0)" opacity="1.0"><path id="ProcessOnPath1067" d="M0.0 0.0L89.0 0.0L89.0 20.0L0.0 20.0Z" stroke="none" stroke-width="0.0" stroke-dasharray="none" opacity="1.0" fill="none"/><g id="ProcessOnG1068" transform="matrix(1.0,0.0,0.0,1.0,0.0,1.875)"><text id="ProcessOnText1069" fill="#000000" font-size="13" x="43.5" y="13.325" font-family="微软雅黑" font-weight="normal" font-style="normal" text-decoration="none" family="微软雅黑" text-anchor="middle" size="13">NioEventLoop</text></g></g><g id="ProcessOnG1070" transform="matrix(1.0,0.0,0.0,1.0,51.0,157.0)" opacity="1.0"><path id="ProcessOnPath1071" d="M0.0 4.0Q0.0 0.0 4.0 0.0L147.0 0.0Q151.0 0.0 151.0 4.0L151.0 32.0Q151.0 36.0 147.0 36.0L4.0 36.0Q0.0 36.0 0.0 32.0Z" stroke="#323232" stroke-width="2.0" stroke-dasharray="none" opacity="1.0" fill="#ffffff"/><g id="ProcessOnG1072" transform="matrix(1.0,0.0,0.0,1.0,10.0,9.875)"><text id="ProcessOnText1073" fill="#000000" font-size="13" x="64.5" y="13.325" font-family="微软雅黑" font-weight="normal" font-style="normal" text-decoration="none" family="微软雅黑" text-anchor="middle" size="13">ServerBootstrap.bind</text></g></g><g id="ProcessOnG1074" transform="matrix(1.0,0.0,0.0,1.0,36.0,262.0)" opacity="1.0"><path id="ProcessOnPath1075" d="M0.0 4.0Q0.0 0.0 4.0 0.0L175.5 0.0Q179.5 0.0 179.5 4.0L179.5 30.0Q179.5 34.0 175.5 34.0L4.0 34.0Q0.0 34.0 0.0 30.0Z" stroke="#323232" stroke-width="2.0" stroke-dasharray="none" opacity="1.0" fill="#3399ff"/><g id="ProcessOnG1076" transform="matrix(1.0,0.0,0.0,1.0,10.0,8.875)"><text id="ProcessOnText1077" fill="#000000" font-size="13" x="78.75" y="13.325" font-family="微软雅黑" font-weight="normal" font-style="normal" text-decoration="none" family="微软雅黑" text-anchor="middle" size="13">NioServerSocketChannel</text></g></g><g id="ProcessOnG1078"><path id="ProcessOnPath1079" d="M126.5 193.0L126.5 227.5L125.75 227.5L125.75 246.7639320225002" stroke="#323232" stroke-width="2.0" stroke-dasharray="none" fill="none" marker-end="url(#ProcessOnMarker1080)"/><g id="ProcessOnG1082" transform="matrix(1.0,0.0,0.0,1.0,126.5,212.13196601125009)"><path id="ProcessOnPath1083" d="M0 0H50.0V16.25H0Z" fill="#fff" transform="matrix(1.0,0.0,0.0,1.0,-25.0,0.0)"/><text id="ProcessOnText1084" fill="#3333ff" font-size="13" x="0.0" y="13.325" font-family="微软雅黑" font-weight="normal" font-style="normal" text-decoration="none" family="微软雅黑" text-anchor="middle" size="13">1.初始化</text></g></g><g id="ProcessOnG1085"><path id="ProcessOnPath1086" d="M215.5 279.0L259.25 279.0L259.25 278.0L287.7639320225002 278.0" stroke="#323232" stroke-width="2.0" stroke-dasharray="none" fill="none" marker-end="url(#ProcessOnMarker1087)"/></g><g id="ProcessOnG1089" transform="matrix(1.0,0.0,0.0,1.0,166.0,296.0)" opacity="1.0"><path id="ProcessOnPath1090" d="M0.0 0.0L150.0 0.0L150.0 21.0L0.0 21.0Z" stroke="none" stroke-width="0.0" stroke-dasharray="none" opacity="1.0" fill="none"/><g id="ProcessOnG1091" transform="matrix(1.0,0.0,0.0,1.0,0.0,-5.75)"><text id="ProcessOnText1092" fill="#3333ff" font-size="13" x="74.0" y="13.325" font-family="微软雅黑" font-weight="normal" font-style="normal" text-decoration="none" family="微软雅黑" text-anchor="middle" size="13">2.注册Channel到Selecto</text><text id="ProcessOnText1093" fill="#3333ff" font-size="13" x="74.0" y="29.575" font-family="微软雅黑" font-weight="normal" font-style="normal" text-decoration="none" family="微软雅黑" text-anchor="middle" size="13">r</text></g></g><g id="ProcessOnG1094" transform="matrix(1.0,0.0,0.0,1.0,518.5,359.0)" opacity="1.0"><path id="ProcessOnPath1095" d="M0.0 4.0Q0.0 0.0 4.0 0.0L139.5 0.0Q143.5 0.0 143.5 4.0L143.5 28.0Q143.5 32.0 139.5 32.0L4.0 32.0Q0.0 32.0 0.0 28.0Z" stroke="#323232" stroke-width="2.0" stroke-dasharray="none" opacity="1.0" fill="#3399ff"/><g id="ProcessOnG1096" transform="matrix(1.0,0.0,0.0,1.0,10.0,7.875)"><text id="ProcessOnText1097" fill="#000000" font-size="13" x="60.75" y="13.325" font-family="微软雅黑" font-weight="normal" font-style="normal" text-decoration="none" family="微软雅黑" text-anchor="middle" size="13">NioSocketChannel</text></g></g><g id="ProcessOnG1098"><path id="ProcessOnPath1099" d="M564.0 487.75L590.25 487.75L590.25 406.2360679774998" stroke="#323232" stroke-width="2.0" stroke-dasharray="none" fill="none" marker-end="url(#ProcessOnMarker1100)"/></g><g id="ProcessOnG1102"><path id="ProcessOnPath1103" d="M590.25 359.0L590.25 274.0L674.7639320225002 274.0" stroke="#323232" stroke-width="2.0" stroke-dasharray="none" fill="none" marker-end="url(#ProcessOnMarker1104)"/></g><g id="ProcessOnG1106" transform="matrix(1.0,0.0,0.0,1.0,539.0,245.5)" opacity="1.0"><path id="ProcessOnPath1107" d="M0.0 0.0L150.0 0.0L150.0 21.0L0.0 21.0Z" stroke="none" stroke-width="0.0" stroke-dasharray="none" opacity="1.0" fill="none"/><g id="ProcessOnG1108" transform="matrix(1.0,0.0,0.0,1.0,0.0,-5.75)"><text id="ProcessOnText1109" fill="#3333ff" font-size="13" x="74.0" y="13.325" font-family="微软雅黑" font-weight="normal" font-style="normal" text-decoration="none" family="微软雅黑" text-anchor="middle" size="13">5.注册Channel到Selecto</text><text id="ProcessOnText1110" fill="#3333ff" font-size="13" x="74.0" y="29.575" font-family="微软雅黑" font-weight="normal" font-style="normal" text-decoration="none" family="微软雅黑" text-anchor="middle" size="13">r</text></g></g><g id="ProcessOnG1111" transform="matrix(1.0,0.0,0.0,1.0,710.0,397.0)" opacity="1.0"><path id="ProcessOnPath1112" d="M0.0 80.0C0.0 -26.666666666666668 160.0 -26.666666666666668 160.0 80.0C160.0 186.66666666666666 0.0 186.66666666666666 0.0 80.0Z" stroke="#323232" stroke-width="2.0" stroke-dasharray="none" opacity="1.0" fill="#ffffff"/></g><g id="ProcessOnG1113" transform="matrix(1.0,0.0,0.0,1.0,792.0,465.5)" opacity="1.0"><path id="ProcessOnPath1114" d="M0.0 0.0L160.0 0.0L160.0 36.5L0.0 36.5Z" stroke="#323232" stroke-width="2.0" stroke-dasharray="none" opacity="1.0" fill="#ffffff"/><g id="ProcessOnG1115" transform="matrix(1.0,0.0,0.0,1.0,10.0,2.0)"><text id="ProcessOnText1116" fill="#000000" font-size="13" x="69.0" y="13.325" font-family="微软雅黑" font-weight="normal" font-style="normal" text-decoration="none" family="微软雅黑" text-anchor="middle" size="13">step2:</text><text id="ProcessOnText1117" fill="#000000" font-size="13" x="69.0" y="29.575" font-family="微软雅黑" font-weight="normal" font-style="normal" text-decoration="none" family="微软雅黑" text-anchor="middle" size="13">processSelectedKeys</text></g></g><g id="ProcessOnG1118" transform="matrix(1.0,0.0,0.0,1.0,662.0,465.5)" opacity="1.0"><path id="ProcessOnPath1119" d="M0.0 0.0L97.0 0.0L97.0 36.5L0.0 36.5Z" stroke="#323232" stroke-width="2.0" stroke-dasharray="none" opacity="1.0" fill="#ffffff"/><g id="ProcessOnG1120" transform="matrix(1.0,0.0,0.0,1.0,10.0,2.0)"><text id="ProcessOnText1121" fill="#000000" font-size="13" x="37.5" y="13.325" font-family="微软雅黑" font-weight="normal" font-style="normal" text-decoration="none" family="微软雅黑" text-anchor="middle" size="13">step3:</text><text id="ProcessOnText1122" fill="#000000" font-size="13" x="37.5" y="29.575" font-family="微软雅黑" font-weight="normal" font-style="normal" text-decoration="none" family="微软雅黑" text-anchor="middle" size="13">runAllTasks</text></g></g><g id="ProcessOnG1123" transform="matrix(1.0,0.0,0.0,1.0,746.75,387.0)" opacity="1.0"><path id="ProcessOnPath1124" d="M0.0 0.0L76.5 0.0L76.5 35.0L0.0 35.0Z" stroke="#323232" stroke-width="2.0" stroke-dasharray="none" opacity="1.0" fill="#ffffff"/><g id="ProcessOnG1125" transform="matrix(1.0,0.0,0.0,1.0,10.0,1.25)"><text id="ProcessOnText1126" fill="#000000" font-size="13" x="27.25" y="13.325" font-family="微软雅黑" font-weight="normal" font-style="normal" text-decoration="none" family="微软雅黑" text-anchor="middle" size="13">step1:</text><text id="ProcessOnText1127" fill="#000000" font-size="13" x="27.25" y="29.575" font-family="微软雅黑" font-weight="normal" font-style="normal" text-decoration="none" family="微软雅黑" text-anchor="middle" size="13">select</text></g></g><g id="ProcessOnG1128" transform="matrix(1.0,0.0,0.0,1.0,404.0,371.0)" opacity="1.0"><path id="ProcessOnPath1129" d="M0.0 0.0L110.0 0.0L110.0 20.0L0.0 20.0Z" stroke="none" stroke-width="0.0" stroke-dasharray="none" opacity="1.0" fill="none"/><g id="ProcessOnG1130" transform="matrix(1.0,0.0,0.0,1.0,0.0,1.875)"><text id="ProcessOnText1131" fill="#3333ff" font-size="13" x="54.0" y="13.325" font-family="微软雅黑" font-weight="normal" font-style="normal" text-decoration="none" family="微软雅黑" text-anchor="middle" size="13">3.轮询accept事件</text></g></g><g id="ProcessOnG1132" transform="matrix(1.0,0.0,0.0,1.0,833.0,384.0)" opacity="1.0"><path id="ProcessOnPath1133" d="M0.0 0.0L132.0 0.0L132.0 20.0L0.0 20.0Z" stroke="none" stroke-width="0.0" stroke-dasharray="none" opacity="1.0" fill="none"/><g id="ProcessOnG1134" transform="matrix(1.0,0.0,0.0,1.0,0.0,1.875)"><text id="ProcessOnText1135" fill="#3333ff" font-size="13" x="65.0" y="13.325" font-family="微软雅黑" font-weight="normal" font-style="normal" text-decoration="none" family="微软雅黑" text-anchor="middle" size="13">6.轮询read/write事件</text></g></g><g id="ProcessOnG1136" transform="matrix(1.0,0.0,0.0,1.0,878.0,506.0)" opacity="1.0"><path id="ProcessOnPath1137" d="M0.0 0.0L132.0 0.0L132.0 20.0L0.0 20.0Z" stroke="none" stroke-width="0.0" stroke-dasharray="none" opacity="1.0" fill="none"/><g id="ProcessOnG1138" transform="matrix(1.0,0.0,0.0,1.0,0.0,1.875)"><text id="ProcessOnText1139" fill="#3333ff" font-size="13" x="65.0" y="13.325" font-family="微软雅黑" font-weight="normal" font-style="normal" text-decoration="none" family="微软雅黑" text-anchor="middle" size="13">7.处理read/write事件</text></g></g><g id="ProcessOnG1140"><path id="ProcessOnPath1141" d="M392.75 305.0L392.75 344.5L392.75 344.5L392.75 368.7639320225002" stroke="#323232" stroke-width="2.0" stroke-dasharray="none" fill="none" marker-end="url(#ProcessOnMarker1142)"/></g><g id="ProcessOnG1144"><path id="ProcessOnPath1145" d="M780.75 301.0L780.75 339.5L780.75 339.5L780.75 362.7639320225002" stroke="#323232" stroke-width="2.0" stroke-dasharray="none" fill="none" marker-end="url(#ProcessOnMarker1146)"/></g><g id="ProcessOnG1148" transform="matrix(1.0,0.0,0.0,1.0,703.0,666.0)" opacity="1.0"><path id="ProcessOnPath1149" d="M0.0 0.0L637.0 0.0L637.0 109.0L0.0 109.0Z" stroke="#323232" stroke-width="2.0" stroke-dasharray="none" opacity="1.0" fill="#ffffcc"/></g><g id="ProcessOnG1150" transform="matrix(1.0,0.0,0.0,1.0,725.5,699.0)" opacity="1.0"><path id="ProcessOnPath1151" d="M0.0 4.0Q0.0 0.0 4.0 0.0L99.0 0.0Q103.0 0.0 103.0 4.0L103.0 54.5Q103.0 58.5 99.0 58.5L4.0 58.5Q0.0 58.5 0.0 54.5Z" stroke="#323232" stroke-width="2.0" stroke-dasharray="none" opacity="1.0" fill="#ffcce6"/><g id="ProcessOnG1152" transform="matrix(1.0,0.0,0.0,1.0,10.0,13.0)"><text id="ProcessOnText1153" fill="#000000" font-size="13" x="40.5" y="13.325" font-family="微软雅黑" font-weight="normal" font-style="normal" text-decoration="none" family="微软雅黑" text-anchor="middle" size="13">HeadContext</text><text id="ProcessOnText1154" fill="#000000" font-size="13" x="40.5" y="29.575" font-family="微软雅黑" font-weight="normal" font-style="normal" text-decoration="none" family="微软雅黑" text-anchor="middle" size="13">(outBound)</text></g></g><g id="ProcessOnG1155" transform="matrix(1.0,0.0,0.0,1.0,1217.5,699.0)" opacity="1.0"><path id="ProcessOnPath1156" d="M0.0 4.0Q0.0 0.0 4.0 0.0L99.0 0.0Q103.0 0.0 103.0 4.0L103.0 54.5Q103.0 58.5 99.0 58.5L4.0 58.5Q0.0 58.5 0.0 54.5Z" stroke="#323232" stroke-width="2.0" stroke-dasharray="none" opacity="1.0" fill="#ffcce6"/><g id="ProcessOnG1157" transform="matrix(1.0,0.0,0.0,1.0,10.0,13.0)"><text id="ProcessOnText1158" fill="#000000" font-size="13" x="40.5" y="13.325" font-family="微软雅黑" font-weight="normal" font-style="normal" text-decoration="none" family="微软雅黑" text-anchor="middle" size="13">TailContext</text><text id="ProcessOnText1159" fill="#000000" font-size="13" x="40.5" y="29.575" font-family="微软雅黑" font-weight="normal" font-style="normal" text-decoration="none" family="微软雅黑" text-anchor="middle" size="13">(inBound)</text></g></g><g id="ProcessOnG1160" transform="matrix(1.0,0.0,0.0,1.0,864.5,699.0)" opacity="1.0"><path id="ProcessOnPath1161" d="M0.0 4.0Q0.0 0.0 4.0 0.0L130.5 0.0Q134.5 0.0 134.5 4.0L134.5 54.5Q134.5 58.5 130.5 58.5L4.0 58.5Q0.0 58.5 0.0 54.5Z" stroke="#323232" stroke-width="2.0" stroke-dasharray="none" opacity="1.0" fill="#ffcce6"/><g id="ProcessOnG1162" transform="matrix(1.0,0.0,0.0,1.0,10.0,13.0)"><text id="ProcessOnText1163" fill="#000000" font-size="13" x="56.25" y="13.325" font-family="微软雅黑" font-weight="normal" font-style="normal" text-decoration="none" family="微软雅黑" text-anchor="middle" size="13">ChannelHandler 1</text><text id="ProcessOnText1164" fill="#000000" font-size="13" x="56.25" y="29.575" font-family="微软雅黑" font-weight="normal" font-style="normal" text-decoration="none" family="微软雅黑" text-anchor="middle" size="13">(childHandler)</text></g></g><g id="ProcessOnG1165" transform="matrix(1.0,0.0,0.0,1.0,1041.0,699.0)" opacity="1.0"><path id="ProcessOnPath1166" d="M0.0 4.0Q0.0 0.0 4.0 0.0L135.75 0.0Q139.75 0.0 139.75 4.0L139.75 54.5Q139.75 58.5 135.75 58.5L4.0 58.5Q0.0 58.5 0.0 54.5Z" stroke="#323232" stroke-width="2.0" stroke-dasharray="none" opacity="1.0" fill="#ffcce6"/><g id="ProcessOnG1167" transform="matrix(1.0,0.0,0.0,1.0,10.0,13.0)"><text id="ProcessOnText1168" fill="#000000" font-size="13" x="58.875" y="13.325" font-family="微软雅黑" font-weight="normal" font-style="normal" text-decoration="none" family="微软雅黑" text-anchor="middle" size="13">ChannelHandler n</text><text id="ProcessOnText1169" fill="#000000" font-size="13" x="58.875" y="29.575" font-family="微软雅黑" font-weight="normal" font-style="normal" text-decoration="none" family="微软雅黑" text-anchor="middle" size="13">(childHandler)</text></g></g><g id="ProcessOnG1170"><path id="ProcessOnPath1171" d="M828.5 714.0L846.5 714.0L846.5 714.0L849.2639320225002 714.0" stroke="#323232" stroke-width="2.0" stroke-dasharray="none" fill="none" marker-end="url(#ProcessOnMarker1172)"/></g><g id="ProcessOnG1174"><path id="ProcessOnPath1175" d="M864.5 740.0L846.5 740.0L846.5 740.0L843.7360679774998 740.0" stroke="#323232" stroke-width="2.0" stroke-dasharray="none" fill="none" marker-end="url(#ProcessOnMarker1176)"/></g><g id="ProcessOnG1178"><path id="ProcessOnPath1179" d="M1180.4494623655914 714.0L1198.9747311827957 714.0L1198.9747311827957 714.0L1202.2639320225003 714.0" stroke="#323232" stroke-width="2.0" stroke-dasharray="none" fill="none" marker-end="url(#ProcessOnMarker1180)"/></g><g id="ProcessOnG1182"><path id="ProcessOnPath1183" d="M1217.5 739.0L1198.9747311827957 739.0L1198.9747311827957 739.0L1195.6855303430912 739.0" stroke="#323232" stroke-width="2.0" stroke-dasharray="none" fill="none" marker-end="url(#ProcessOnMarker1184)"/></g><g id="ProcessOnG1186"><path id="ProcessOnPath1187" d="M999.0 713.0L1020.0 713.0L1020.0 713.0L1025.7639320225003 713.0" stroke="#323232" stroke-width="2.0" stroke-dasharray="2.0 3.0" fill="none" marker-end="url(#ProcessOnMarker1188)"/></g><g id="ProcessOnG1190"><path id="ProcessOnPath1191" d="M1041.0 741.0L1020.0 741.0L1020.0 741.0L1014.2360679774998 741.0" stroke="#323232" stroke-width="2.0" stroke-dasharray="2.0 3.0" fill="none" marker-end="url(#ProcessOnMarker1192)"/></g><g id="ProcessOnG1194" transform="matrix(1.0,0.0,0.0,1.0,984.75,670.0)" opacity="1.0"><path id="ProcessOnPath1195" d="M0.0 0.0L89.0 0.0L89.0 20.0L0.0 20.0Z" stroke="none" stroke-width="0.0" stroke-dasharray="none" opacity="1.0" fill="none"/><g id="ProcessOnG1196" transform="matrix(1.0,0.0,0.0,1.0,0.0,1.875)"><text id="ProcessOnText1197" fill="#000000" font-size="13" x="43.5" y="13.325" font-family="微软雅黑" font-weight="normal" font-style="normal" text-decoration="none" family="微软雅黑" text-anchor="middle" size="13">Pipeline</text></g></g><g id="ProcessOnG1198" transform="matrix(1.0,0.0,0.0,1.0,637.75,510.0)" opacity="1.0"><path id="ProcessOnPath1199" d="M0.0 0.0L109.0 0.0L109.0 30.0L0.0 30.0Z" stroke="none" stroke-width="0.0" stroke-dasharray="none" opacity="1.0" fill="none"/><g id="ProcessOnG1200" transform="matrix(1.0,0.0,0.0,1.0,0.0,-1.25)"><text id="ProcessOnText1201" fill="#3333ff" font-size="13" x="53.5" y="13.325" font-family="微软雅黑" font-weight="normal" font-style="normal" text-decoration="none" family="微软雅黑" text-anchor="middle" size="13">处理定时任务</text><text id="ProcessOnText1202" fill="#3333ff" font-size="13" x="53.5" y="29.575" font-family="微软雅黑" font-weight="normal" font-style="normal" text-decoration="none" family="微软雅黑" text-anchor="middle" size="13">和普通任务</text></g></g><g id="ProcessOnG1203"><path id="ProcessOnPath1204" d="M725.0 647.0L782.0 647.0L782.0 647.0L823.7639320225002 647.0" stroke="#323232" stroke-width="2.0" stroke-dasharray="none" fill="none" marker-end="url(#ProcessOnMarker1205)"/></g><g id="ProcessOnG1207"><path id="ProcessOnPath1208" d="M1335.0 646.0L1277.5 646.0L1277.5 646.0L1235.2360679774997 646.0" stroke="#323232" stroke-width="2.0" stroke-dasharray="none" fill="none" marker-end="url(#ProcessOnMarker1209)"/></g><g id="ProcessOnG1211" transform="matrix(1.0,0.0,0.0,1.0,1165.0,623.0)" opacity="1.0"><path id="ProcessOnPath1212" d="M0.0 0.0L132.0 0.0L132.0 20.0L0.0 20.0Z" stroke="none" stroke-width="0.0" stroke-dasharray="none" opacity="1.0" fill="none"/><g id="ProcessOnG1213" transform="matrix(1.0,0.0,0.0,1.0,0.0,1.875)"><text id="ProcessOnText1214" fill="#3333ff" font-size="13" x="65.0" y="13.325" font-family="微软雅黑" font-weight="normal" font-style="normal" text-decoration="none" family="微软雅黑" text-anchor="middle" size="13">write (outBound)</text></g></g><g id="ProcessOnG1215" transform="matrix(1.0,0.0,0.0,1.0,719.0,623.0)" opacity="1.0"><path id="ProcessOnPath1216" d="M0.0 0.0L132.0 0.0L132.0 20.0L0.0 20.0Z" stroke="none" stroke-width="0.0" stroke-dasharray="none" opacity="1.0" fill="none"/><g id="ProcessOnG1217" transform="matrix(1.0,0.0,0.0,1.0,0.0,1.875)"><text id="ProcessOnText1218" fill="#3333ff" font-size="13" x="65.0" y="13.325" font-family="微软雅黑" font-weight="normal" font-style="normal" text-decoration="none" family="微软雅黑" text-anchor="middle" size="13">read (inBound)</text></g></g><g id="ProcessOnG1219" transform="matrix(1.0,0.0,0.0,1.0,40.5,666.0)" opacity="1.0"><path id="ProcessOnPath1220" d="M0.0 0.0L621.5 0.0L621.5 109.0L0.0 109.0Z" stroke="#323232" stroke-width="2.0" stroke-dasharray="none" opacity="1.0" fill="#ffffcc"/></g><g id="ProcessOnG1221" transform="matrix(1.0,0.0,0.0,1.0,58.5,706.0)" opacity="1.0"><path id="ProcessOnPath1222" d="M0.0 4.0Q0.0 0.0 4.0 0.0L99.0 0.0Q103.0 0.0 103.0 4.0L103.0 54.5Q103.0 58.5 99.0 58.5L4.0 58.5Q0.0 58.5 0.0 54.5Z" stroke="#323232" stroke-width="2.0" stroke-dasharray="none" opacity="1.0" fill="#ffcce6"/><g id="ProcessOnG1223" transform="matrix(1.0,0.0,0.0,1.0,10.0,13.0)"><text id="ProcessOnText1224" fill="#000000" font-size="13" x="40.5" y="13.325" font-family="微软雅黑" font-weight="normal" font-style="normal" text-decoration="none" family="微软雅黑" text-anchor="middle" size="13">HeadContext</text><text id="ProcessOnText1225" fill="#000000" font-size="13" x="40.5" y="29.575" font-family="微软雅黑" font-weight="normal" font-style="normal" text-decoration="none" family="微软雅黑" text-anchor="middle" size="13">(outBound)</text></g></g><g id="ProcessOnG1226" transform="matrix(1.0,0.0,0.0,1.0,548.0,706.0)" opacity="1.0"><path id="ProcessOnPath1227" d="M0.0 4.0Q0.0 0.0 4.0 0.0L99.0 0.0Q103.0 0.0 103.0 4.0L103.0 54.5Q103.0 58.5 99.0 58.5L4.0 58.5Q0.0 58.5 0.0 54.5Z" stroke="#323232" stroke-width="2.0" stroke-dasharray="none" opacity="1.0" fill="#ffcce6"/><g id="ProcessOnG1228" transform="matrix(1.0,0.0,0.0,1.0,10.0,13.0)"><text id="ProcessOnText1229" fill="#000000" font-size="13" x="40.5" y="13.325" font-family="微软雅黑" font-weight="normal" font-style="normal" text-decoration="none" family="微软雅黑" text-anchor="middle" size="13">TailContext</text><text id="ProcessOnText1230" fill="#000000" font-size="13" x="40.5" y="29.575" font-family="微软雅黑" font-weight="normal" font-style="normal" text-decoration="none" family="微软雅黑" text-anchor="middle" size="13">(inBound)</text></g></g><g id="ProcessOnG1231" transform="matrix(1.0,0.0,0.0,1.0,191.75,706.0)" opacity="1.0"><path id="ProcessOnPath1232" d="M0.0 4.0Q0.0 0.0 4.0 0.0L122.0 0.0Q126.0 0.0 126.0 4.0L126.0 54.5Q126.0 58.5 122.0 58.5L4.0 58.5Q0.0 58.5 0.0 54.5Z" stroke="#323232" stroke-width="2.0" stroke-dasharray="none" opacity="1.0" fill="#ffcce6"/><g id="ProcessOnG1233" transform="matrix(1.0,0.0,0.0,1.0,10.0,13.0)"><text id="ProcessOnText1234" fill="#000000" font-size="13" x="52.0" y="13.325" font-family="微软雅黑" font-weight="normal" font-style="normal" text-decoration="none" family="微软雅黑" text-anchor="middle" size="13">ChannelHandler</text><text id="ProcessOnText1235" fill="#000000" font-size="13" x="52.0" y="29.575" font-family="微软雅黑" font-weight="normal" font-style="normal" text-decoration="none" family="微软雅黑" text-anchor="middle" size="13">(handler)</text></g></g><g id="ProcessOnG1236"><path id="ProcessOnPath1237" d="M161.5 721.0L176.625 721.0L176.625 721.0L177.625 721.0" stroke="#323232" stroke-width="2.0" stroke-dasharray="none" fill="none" marker-end="url(#ProcessOnMarker1238)"/></g><g id="ProcessOnG1240"><path id="ProcessOnPath1241" d="M191.75 747.0L176.625 747.0L176.625 747.0L175.625 747.0" stroke="#323232" stroke-width="2.0" stroke-dasharray="none" fill="none" marker-end="url(#ProcessOnMarker1242)"/></g><g id="ProcessOnG1244" transform="matrix(1.0,0.0,0.0,1.0,317.75,677.0)" opacity="1.0"><path id="ProcessOnPath1245" d="M0.0 0.0L89.0 0.0L89.0 20.0L0.0 20.0Z" stroke="none" stroke-width="0.0" stroke-dasharray="none" opacity="1.0" fill="none"/><g id="ProcessOnG1246" transform="matrix(1.0,0.0,0.0,1.0,0.0,1.875)"><text id="ProcessOnText1247" fill="#000000" font-size="13" x="43.5" y="13.325" font-family="微软雅黑" font-weight="normal" font-style="normal" text-decoration="none" family="微软雅黑" text-anchor="middle" size="13">Pipeline</text></g></g><g id="ProcessOnG1248" transform="matrix(1.0,0.0,0.0,1.0,340.0,706.0)" opacity="1.0"><path id="ProcessOnPath1249" d="M0.0 4.0Q0.0 0.0 4.0 0.0L181.0 0.0Q185.0 0.0 185.0 4.0L185.0 54.5Q185.0 58.5 181.0 58.5L4.0 58.5Q0.0 58.5 0.0 54.5Z" stroke="#323232" stroke-width="2.0" stroke-dasharray="none" opacity="1.0" fill="#ffcce6"/><g id="ProcessOnG1250" transform="matrix(1.0,0.0,0.0,1.0,10.0,13.0)"><text id="ProcessOnText1251" fill="#000000" font-size="13" x="81.5" y="13.325" font-family="微软雅黑" font-weight="normal" font-style="normal" text-decoration="none" family="微软雅黑" text-anchor="middle" size="13">ServerBootstrapAcceptor</text><text id="ProcessOnText1252" fill="#000000" font-size="13" x="81.5" y="29.575" font-family="微软雅黑" font-weight="normal" font-style="normal" text-decoration="none" family="微软雅黑" text-anchor="middle" size="13">(inBound)</text></g></g><g id="ProcessOnG1253"><path id="ProcessOnPath1254" d="M952.0 483.75L1021.5 483.75L1021.5 650.7639320225002" stroke="#323232" stroke-width="2.0" stroke-dasharray="none" fill="none" marker-end="url(#ProcessOnMarker1255)"/></g><g id="ProcessOnG1257"><path id="ProcessOnPath1258" d="M317.0 721.0L328.5 721.0L328.5 721.0L329.5 721.0" stroke="#323232" stroke-width="2.0" stroke-dasharray="none" fill="none" marker-end="url(#ProcessOnMarker1259)"/></g><g id="ProcessOnG1261"><path id="ProcessOnPath1262" d="M340.0 747.0L328.5 747.0L328.5 747.0L327.5 747.0" stroke="#323232" stroke-width="2.0" stroke-dasharray="none" fill="none" marker-end="url(#ProcessOnMarker1263)"/></g><g id="ProcessOnG1265"><path id="ProcessOnPath1266" d="M525.0 718.0L536.5 718.0L536.5 718.0L537.5 718.0" stroke="#323232" stroke-width="2.0" stroke-dasharray="none" fill="none" marker-end="url(#ProcessOnMarker1267)"/></g><g id="ProcessOnG1269"><path id="ProcessOnPath1270" d="M548.0 749.0L536.5 749.0L536.5 750.0L535.5 750.0" stroke="#323232" stroke-width="2.0" stroke-dasharray="none" fill="none" marker-end="url(#ProcessOnMarker1271)"/></g><g id="ProcessOnG1273"><path id="ProcessOnPath1274" d="M503.0 506.0L503.0 586.0L503.0 586.0L503.0 650.7639320225002" stroke="#323232" stroke-width="2.0" stroke-dasharray="none" fill="none" marker-end="url(#ProcessOnMarker1275)"/></g><g id="ProcessOnG1277" transform="matrix(1.0,0.0,0.0,1.0,59.75,628.0)" opacity="1.0"><path id="ProcessOnPath1278" d="M0.0 0.0L132.0 0.0L132.0 20.0L0.0 20.0Z" stroke="none" stroke-width="0.0" stroke-dasharray="none" opacity="1.0" fill="none"/><g id="ProcessOnG1279" transform="matrix(1.0,0.0,0.0,1.0,0.0,1.875)"><text id="ProcessOnText1280" fill="#3333ff" font-size="13" x="65.0" y="13.325" font-family="微软雅黑" font-weight="normal" font-style="normal" text-decoration="none" family="微软雅黑" text-anchor="middle" size="13">read (inBound)</text></g></g><g id="ProcessOnG1281"><path id="ProcessOnPath1282" d="M73.0 652.0L130.0 652.0L130.0 652.0L171.7639320225002 652.0" stroke="#323232" stroke-width="2.0" stroke-dasharray="none" fill="none" marker-end="url(#ProcessOnMarker1283)"/></g><g id="ProcessOnG1285" transform="matrix(1.0,0.0,0.0,1.0,509.0,510.0)" opacity="1.0"><path id="ProcessOnPath1286" d="M0.0 0.0L115.0 0.0L115.0 30.0L0.0 30.0Z" stroke="none" stroke-width="0.0" stroke-dasharray="none" opacity="1.0" fill="none"/><g id="ProcessOnG1287" transform="matrix(1.0,0.0,0.0,1.0,0.0,-1.25)"><text id="ProcessOnText1288" fill="#3333ff" font-size="13" x="56.5" y="13.325" font-family="微软雅黑" font-weight="normal" font-style="normal" text-decoration="none" family="微软雅黑" text-anchor="middle" size="13">4.处理accept</text><text id="ProcessOnText1289" fill="#3333ff" font-size="13" x="56.5" y="29.575" font-family="微软雅黑" font-weight="normal" font-style="normal" text-decoration="none" family="微软雅黑" text-anchor="middle" size="13">建立连接</text></g></g><g id="ProcessOnG1290" transform="matrix(1.0,0.0,0.0,1.0,358.75,445.5)" opacity="1.0"><path id="ProcessOnPath1291" d="M0.0 0.0L89.0 0.0L89.0 20.0L0.0 20.0Z" stroke="none" stroke-width="0.0" stroke-dasharray="none" opacity="1.0" fill="none"/><g id="ProcessOnG1292" transform="matrix(1.0,0.0,0.0,1.0,0.0,1.875)"><text id="ProcessOnText1293" fill="#ff3333" font-size="13" x="43.5" y="13.325" font-family="微软雅黑" font-weight="bold" font-style="normal" text-decoration="none" family="微软雅黑" text-anchor="middle" size="13">NioEventLoop</text></g></g><g id="ProcessOnG1294" transform="matrix(1.0,0.0,0.0,1.0,746.75,439.5)" opacity="1.0"><path id="ProcessOnPath1295" d="M0.0 0.0L89.0 0.0L89.0 20.0L0.0 20.0Z" stroke="none" stroke-width="0.0" stroke-dasharray="none" opacity="1.0" fill="none"/><g id="ProcessOnG1296" transform="matrix(1.0,0.0,0.0,1.0,0.0,1.875)"><text id="ProcessOnText1297" fill="#ff3333" font-size="13" x="43.5" y="13.325" font-family="微软雅黑" font-weight="bold" font-style="normal" text-decoration="none" family="微软雅黑" text-anchor="middle" size="13">NioEventLoop</text></g></g><g id="ProcessOnG1298"><path id="ProcessOnPath1299" d="M459.0 401.0C478.0 408.0 495.0 422.0 494.2920159804626 430.3188122295644" stroke="#323232" stroke-width="2.0" stroke-dasharray="none" fill="none" marker-end="url(#ProcessOnMarker1300)"/></g><g id="ProcessOnG1302"><path id="ProcessOnPath1303" d="M852.0 408.0C871.0 415.0 888.0 429.0 887.2920159804626 437.3188122295644" stroke="#323232" stroke-width="2.0" stroke-dasharray="none" fill="none" marker-end="url(#ProcessOnMarker1304)"/></g></g></g></svg>