<svg xmlns="http://www.w3.org/2000/svg" xmlns:xlink="http://www.w3.org/1999/xlink" id="processonSvg1000" viewBox="92.10546875 47.25 707.578125 1122.0" width="707.578125" height="1122.0"><defs id="ProcessOnDefs1001"><marker id="ProcessOnMarker1131" markerUnits="userSpaceOnUse" orient="auto" markerWidth="16.23606797749979" markerHeight="10.550836550532098" viewBox="-1.0 -1.3763819204711736 16.23606797749979 10.550836550532098" refX="-1.0" refY="3.8990363547948754"><path id="ProcessOnPath1132" d="M12.0 3.8990363547948754L0.0 7.798072709589751V0.0Z" stroke="#323232" stroke-width="2.0" fill="#323232" transform="matrix(1.0,0.0,0.0,1.0,0.0,0.0)"/></marker><marker id="ProcessOnMarker1135" markerUnits="userSpaceOnUse" orient="auto" markerWidth="16.23606797749979" markerHeight="10.550836550532098" viewBox="-1.0 -1.3763819204711736 16.23606797749979 10.550836550532098" refX="-1.0" refY="3.8990363547948754"><path id="ProcessOnPath1136" d="M12.0 3.8990363547948754L0.0 7.798072709589751V0.0Z" stroke="#323232" stroke-width="2.0" fill="#323232" transform="matrix(1.0,0.0,0.0,1.0,0.0,0.0)"/></marker><marker id="ProcessOnMarker1139" markerUnits="userSpaceOnUse" orient="auto" markerWidth="16.23606797749979" markerHeight="10.550836550532098" viewBox="-1.0 -1.3763819204711736 16.23606797749979 10.550836550532098" refX="-1.0" refY="3.8990363547948754"><path id="ProcessOnPath1140" d="M12.0 3.8990363547948754L0.0 7.798072709589751V0.0Z" stroke="#323232" stroke-width="2.0" fill="#323232" transform="matrix(1.0,0.0,0.0,1.0,0.0,0.0)"/></marker><marker id="ProcessOnMarker1143" markerUnits="userSpaceOnUse" orient="auto" markerWidth="16.23606797749979" markerHeight="10.550836550532098" viewBox="-1.0 -1.3763819204711736 16.23606797749979 10.550836550532098" refX="-1.0" refY="3.8990363547948754"><path id="ProcessOnPath1144" d="M12.0 3.8990363547948754L0.0 7.798072709589751V0.0Z" stroke="#323232" stroke-width="2.0" fill="#323232" transform="matrix(1.0,0.0,0.0,1.0,0.0,0.0)"/></marker><marker id="ProcessOnMarker1147" markerUnits="userSpaceOnUse" orient="auto" markerWidth="16.23606797749979" markerHeight="10.550836550532098" viewBox="-1.0 -1.3763819204711736 16.23606797749979 10.550836550532098" refX="-1.0" refY="3.8990363547948754"><path id="ProcessOnPath1148" d="M12.0 3.8990363547948754L0.0 7.798072709589751V0.0Z" stroke="#323232" stroke-width="2.0" fill="#323232" transform="matrix(1.0,0.0,0.0,1.0,0.0,0.0)"/></marker><marker id="ProcessOnMarker1151" markerUnits="userSpaceOnUse" orient="auto" markerWidth="16.23606797749979" markerHeight="10.550836550532098" viewBox="-1.0 -1.3763819204711736 16.23606797749979 10.550836550532098" refX="-1.0" refY="3.8990363547948754"><path id="ProcessOnPath1152" d="M12.0 3.8990363547948754L0.0 7.798072709589751V0.0Z" stroke="#323232" stroke-width="2.0" fill="#323232" transform="matrix(1.0,0.0,0.0,1.0,0.0,0.0)"/></marker><marker id="ProcessOnMarker1155" markerUnits="userSpaceOnUse" orient="auto" markerWidth="16.23606797749979" markerHeight="10.550836550532098" viewBox="-1.0 -1.3763819204711736 16.23606797749979 10.550836550532098" refX="-1.0" refY="3.8990363547948754"><path id="ProcessOnPath1156" d="M12.0 3.8990363547948754L0.0 7.798072709589751V0.0Z" stroke="#323232" stroke-width="2.0" fill="#323232" transform="matrix(1.0,0.0,0.0,1.0,0.0,0.0)"/></marker><marker id="ProcessOnMarker1163" markerUnits="userSpaceOnUse" orient="auto" markerWidth="16.23606797749979" markerHeight="10.550836550532098" viewBox="-1.0 -1.3763819204711736 16.23606797749979 10.550836550532098" refX="-1.0" refY="3.8990363547948754"><path id="ProcessOnPath1164" d="M12.0 3.8990363547948754L0.0 7.798072709589751V0.0Z" stroke="#323232" stroke-width="2.0" fill="#323232" transform="matrix(1.0,0.0,0.0,1.0,0.0,0.0)"/></marker><marker id="ProcessOnMarker1167" markerUnits="userSpaceOnUse" orient="auto" markerWidth="16.23606797749979" markerHeight="10.550836550532098" viewBox="-1.0 -1.3763819204711736 16.23606797749979 10.550836550532098" refX="-1.0" refY="3.8990363547948754"><path id="ProcessOnPath1168" d="M12.0 3.8990363547948754L0.0 7.798072709589751V0.0Z" stroke="#323232" stroke-width="2.0" fill="#323232" transform="matrix(1.0,0.0,0.0,1.0,0.0,0.0)"/></marker><marker id="ProcessOnMarker1171" markerUnits="userSpaceOnUse" orient="auto" markerWidth="16.23606797749979" markerHeight="10.550836550532098" viewBox="-1.0 -1.3763819204711736 16.23606797749979 10.550836550532098" refX="-1.0" refY="3.8990363547948754"><path id="ProcessOnPath1172" d="M12.0 3.8990363547948754L0.0 7.798072709589751V0.0Z" stroke="#323232" stroke-width="2.0" fill="#323232" transform="matrix(1.0,0.0,0.0,1.0,0.0,0.0)"/></marker><marker id="ProcessOnMarker1175" markerUnits="userSpaceOnUse" orient="auto" markerWidth="16.23606797749979" markerHeight="10.550836550532098" viewBox="-1.0 -1.3763819204711736 16.23606797749979 10.550836550532098" refX="-1.0" refY="3.8990363547948754"><path id="ProcessOnPath1176" d="M12.0 3.8990363547948754L0.0 7.798072709589751V0.0Z" stroke="#323232" stroke-width="2.0" fill="#323232" transform="matrix(1.0,0.0,0.0,1.0,0.0,0.0)"/></marker><marker id="ProcessOnMarker1179" markerUnits="userSpaceOnUse" orient="auto" markerWidth="16.23606797749979" markerHeight="10.550836550532098" viewBox="-1.0 -1.3763819204711736 16.23606797749979 10.550836550532098" refX="-1.0" refY="3.8990363547948754"><path id="ProcessOnPath1180" d="M12.0 3.8990363547948754L0.0 7.798072709589751V0.0Z" stroke="#323232" stroke-width="2.0" fill="#323232" transform="matrix(1.0,0.0,0.0,1.0,0.0,0.0)"/></marker><marker id="ProcessOnMarker1183" markerUnits="userSpaceOnUse" orient="auto" markerWidth="16.23606797749979" markerHeight="10.550836550532098" viewBox="-1.0 -1.3763819204711736 16.23606797749979 10.550836550532098" refX="-1.0" refY="3.8990363547948754"><path id="ProcessOnPath1184" d="M12.0 3.8990363547948754L0.0 7.798072709589751V0.0Z" stroke="#323232" stroke-width="2.0" fill="#323232" transform="matrix(1.0,0.0,0.0,1.0,0.0,0.0)"/></marker><marker id="ProcessOnMarker1187" markerUnits="userSpaceOnUse" orient="auto" markerWidth="16.23606797749979" markerHeight="10.550836550532098" viewBox="-1.0 -1.3763819204711736 16.23606797749979 10.550836550532098" refX="-1.0" refY="3.8990363547948754"><path id="ProcessOnPath1188" d="M12.0 3.8990363547948754L0.0 7.798072709589751V0.0Z" stroke="#323232" stroke-width="2.0" fill="#323232" transform="matrix(1.0,0.0,0.0,1.0,0.0,0.0)"/></marker><marker id="ProcessOnMarker1191" markerUnits="userSpaceOnUse" orient="auto" markerWidth="16.23606797749979" markerHeight="10.550836550532098" viewBox="-1.0 -1.3763819204711736 16.23606797749979 10.550836550532098" refX="-1.0" refY="3.8990363547948754"><path id="ProcessOnPath1192" d="M12.0 3.8990363547948754L0.0 7.798072709589751V0.0Z" stroke="#323232" stroke-width="2.0" fill="#323232" transform="matrix(1.0,0.0,0.0,1.0,0.0,0.0)"/></marker><marker id="ProcessOnMarker1195" markerUnits="userSpaceOnUse" orient="auto" markerWidth="16.23606797749979" markerHeight="10.550836550532098" viewBox="-1.0 -1.3763819204711736 16.23606797749979 10.550836550532098" refX="-1.0" refY="3.8990363547948754"><path id="ProcessOnPath1196" d="M12.0 3.8990363547948754L0.0 7.798072709589751V0.0Z" stroke="#323232" stroke-width="2.0" fill="#323232" transform="matrix(1.0,0.0,0.0,1.0,0.0,0.0)"/></marker><marker id="ProcessOnMarker1199" markerUnits="userSpaceOnUse" orient="auto" markerWidth="16.23606797749979" markerHeight="10.550836550532098" viewBox="-1.0 -1.3763819204711736 16.23606797749979 10.550836550532098" refX="-1.0" refY="3.8990363547948754"><path id="ProcessOnPath1200" d="M12.0 3.8990363547948754L0.0 7.798072709589751V0.0Z" stroke="#323232" stroke-width="2.0" fill="#323232" transform="matrix(1.0,0.0,0.0,1.0,0.0,0.0)"/></marker><marker id="ProcessOnMarker1208" markerUnits="userSpaceOnUse" orient="auto" markerWidth="16.23606797749979" markerHeight="10.550836550532098" viewBox="-1.0 -1.3763819204711736 16.23606797749979 10.550836550532098" refX="-1.0" refY="3.8990363547948754"><path id="ProcessOnPath1209" d="M12.0 3.8990363547948754L0.0 7.798072709589751V0.0Z" stroke="#323232" stroke-width="2.0" fill="#323232" transform="matrix(1.0,0.0,0.0,1.0,0.0,0.0)"/></marker><marker id="ProcessOnMarker1212" markerUnits="userSpaceOnUse" orient="auto" markerWidth="16.23606797749979" markerHeight="10.550836550532098" viewBox="-1.0 -1.3763819204711736 16.23606797749979 10.550836550532098" refX="-1.0" refY="3.8990363547948754"><path id="ProcessOnPath1213" d="M12.0 3.8990363547948754L0.0 7.798072709589751V0.0Z" stroke="#323232" stroke-width="2.0" fill="#323232" transform="matrix(1.0,0.0,0.0,1.0,0.0,0.0)"/></marker><marker id="ProcessOnMarker1216" markerUnits="userSpaceOnUse" orient="auto" markerWidth="16.23606797749979" markerHeight="10.550836550532098" viewBox="-1.0 -1.3763819204711736 16.23606797749979 10.550836550532098" refX="-1.0" refY="3.8990363547948754"><path id="ProcessOnPath1217" d="M12.0 3.8990363547948754L0.0 7.798072709589751V0.0Z" stroke="#323232" stroke-width="2.0" fill="#323232" transform="matrix(1.0,0.0,0.0,1.0,0.0,0.0)"/></marker><marker id="ProcessOnMarker1220" markerUnits="userSpaceOnUse" orient="auto" markerWidth="16.23606797749979" markerHeight="10.550836550532098" viewBox="-1.0 -1.3763819204711736 16.23606797749979 10.550836550532098" refX="-1.0" refY="3.8990363547948754"><path id="ProcessOnPath1221" d="M12.0 3.8990363547948754L0.0 7.798072709589751V0.0Z" stroke="#323232" stroke-width="2.0" fill="#323232" transform="matrix(1.0,0.0,0.0,1.0,0.0,0.0)"/></marker><marker id="ProcessOnMarker1224" markerUnits="userSpaceOnUse" orient="auto" markerWidth="16.23606797749979" markerHeight="10.550836550532098" viewBox="-1.0 -1.3763819204711736 16.23606797749979 10.550836550532098" refX="-1.0" refY="3.8990363547948754"><path id="ProcessOnPath1225" d="M12.0 3.8990363547948754L0.0 7.798072709589751V0.0Z" stroke="#323232" stroke-width="2.0" fill="#323232" transform="matrix(1.0,0.0,0.0,1.0,0.0,0.0)"/></marker><marker id="ProcessOnMarker1228" markerUnits="userSpaceOnUse" orient="auto" markerWidth="16.23606797749979" markerHeight="10.550836550532098" viewBox="-1.0 -1.3763819204711736 16.23606797749979 10.550836550532098" refX="-1.0" refY="3.8990363547948754"><path id="ProcessOnPath1229" d="M12.0 3.8990363547948754L0.0 7.798072709589751V0.0Z" stroke="#323232" stroke-width="2.0" fill="#323232" transform="matrix(1.0,0.0,0.0,1.0,0.0,0.0)"/></marker><marker id="ProcessOnMarker1239" markerUnits="userSpaceOnUse" orient="auto" markerWidth="16.23606797749979" markerHeight="10.550836550532098" viewBox="-1.0 -1.3763819204711736 16.23606797749979 10.550836550532098" refX="-1.0" refY="3.8990363547948754"><path id="ProcessOnPath1240" d="M12.0 3.8990363547948754L0.0 7.798072709589751V0.0Z" stroke="#323232" stroke-width="2.0" fill="#323232" transform="matrix(1.0,0.0,0.0,1.0,0.0,0.0)"/></marker><marker id="ProcessOnMarker1248" markerUnits="userSpaceOnUse" orient="auto" markerWidth="16.23606797749979" markerHeight="10.550836550532098" viewBox="-1.0 -1.3763819204711736 16.23606797749979 10.550836550532098" refX="-1.0" refY="3.8990363547948754"><path id="ProcessOnPath1249" d="M12.0 3.8990363547948754L0.0 7.798072709589751V0.0Z" stroke="#323232" stroke-width="2.0" fill="#323232" transform="matrix(1.0,0.0,0.0,1.0,0.0,0.0)"/></marker></defs><g id="ProcessOnG1002"><path id="ProcessOnPath1003" d="M92.10546875 47.25H799.68359375V1169.25H92.10546875V47.25Z" fill="none"/><g id="ProcessOnG1004"><g id="ProcessOnG1005" transform="matrix(1.0,0.0,0.0,1.0,492.24609375,188.25)" opacity="1.0"><path id="ProcessOnPath1006" d="M0.0 0.0L287.4375 0.0L287.4375 961.0L0.0 961.0Z" stroke="#323232" stroke-width="2.0" stroke-dasharray="none" opacity="1.0" fill="#ffffff"/></g><g id="ProcessOnG1007" transform="matrix(1.0,0.0,0.0,1.0,112.10546875,250.5)" opacity="1.0"><path id="ProcessOnPath1008" d="M0.0 0.0L292.375 0.0L292.375 589.75L0.0 589.75Z" stroke="#323232" stroke-width="2.0" stroke-dasharray="none" opacity="1.0" fill="#ffffff"/></g><g id="ProcessOnG1009" transform="matrix(1.0,0.0,0.0,1.0,532.43359375,226.75)" opacity="1.0"><path id="ProcessOnPath1010" d="M0.0 0.0L207.0625 0.0L207.0625 222.0L0.0 222.0Z" stroke="#ff9933" stroke-width="2.0" stroke-dasharray="2.0 3.0" opacity="1.0" fill="#ff9933"/></g><g id="ProcessOnG1011" transform="matrix(1.0,0.0,0.0,1.0,166.5234375,186.75)" opacity="1.0"><path id="ProcessOnPath1012" d="M0.0 4.0Q0.0 0.0 4.0 0.0L179.5390625 0.0Q183.5390625 0.0 183.5390625 4.0L183.5390625 27.5Q183.5390625 31.5 179.5390625 31.5L4.0 31.5Q0.0 31.5 0.0 27.5Z" stroke="#ff3333" stroke-width="2.0" stroke-dasharray="none" opacity="1.0" fill="#ffffff"/><g id="ProcessOnG1013" transform="matrix(1.0,0.0,0.0,1.0,10.0,-3.0)"><text id="ProcessOnText1014" fill="#000000" font-size="15" x="80.76953125" y="15.375" font-family="微软雅黑" font-weight="normal" font-style="normal" text-decoration="none" family="微软雅黑" text-anchor="middle" size="15">ServerBootstrap.bind(</text><text id="ProcessOnText1015" fill="#000000" font-size="15" x="80.76953125" y="34.125" font-family="微软雅黑" font-weight="normal" font-style="normal" text-decoration="none" family="微软雅黑" text-anchor="middle" size="15">)</text></g></g><g id="ProcessOnG1016" transform="matrix(1.0,0.0,0.0,1.0,547.09765625,293.125)" opacity="1.0"><path id="ProcessOnPath1017" d="M0.0 0.0L177.734375 0.0L177.734375 29.125L0.0 29.125Z" stroke="#323232" stroke-width="2.0" stroke-dasharray="none" opacity="1.0" fill="#ffffff"/><g id="ProcessOnG1018" transform="matrix(1.0,0.0,0.0,1.0,10.0,5.1875)"><text id="ProcessOnText1019" fill="#000000" font-size="15" x="77.8671875" y="15.375" font-family="微软雅黑" font-weight="normal" font-style="normal" text-decoration="none" family="微软雅黑" text-anchor="middle" size="15">tail.bind()</text></g></g><g id="ProcessOnG1020" transform="matrix(1.0,0.0,0.0,1.0,542.69921875,346.875)" opacity="1.0"><path id="ProcessOnPath1021" d="M0.0 0.0L186.53125 0.0L186.53125 30.875L0.0 30.875Z" stroke="#323232" stroke-width="2.0" stroke-dasharray="2.0 3.0" opacity="1.0" fill="#ffffff"/><g id="ProcessOnG1022" transform="matrix(1.0,0.0,0.0,1.0,10.0,-3.3125)"><text id="ProcessOnText1023" fill="#000000" font-size="15" x="82.265625" y="15.375" font-family="微软雅黑" font-weight="normal" font-style="normal" text-decoration="none" family="微软雅黑" text-anchor="middle" size="15">ChannelOutBoundHan</text><text id="ProcessOnText1024" fill="#000000" font-size="15" x="82.265625" y="34.125" font-family="微软雅黑" font-weight="normal" font-style="normal" text-decoration="none" family="微软雅黑" text-anchor="middle" size="15">dler</text></g></g><g id="ProcessOnG1025" transform="matrix(1.0,0.0,0.0,1.0,549.52734375,404.125)" opacity="1.0"><path id="ProcessOnPath1026" d="M0.0 0.0L172.875 0.0L172.875 32.5L0.0 32.5Z" stroke="#323232" stroke-width="2.0" stroke-dasharray="none" opacity="1.0" fill="#ffffff"/><g id="ProcessOnG1027" transform="matrix(1.0,0.0,0.0,1.0,10.0,6.875)"><text id="ProcessOnText1028" fill="#000000" font-size="15" x="75.4375" y="15.375" font-family="微软雅黑" font-weight="normal" font-style="normal" text-decoration="none" family="微软雅黑" text-anchor="middle" size="15">head.bind()</text></g></g><g id="ProcessOnG1029" transform="matrix(1.0,0.0,0.0,1.0,523.73828125,562.90625)" opacity="1.0"><path id="ProcessOnPath1030" d="M0.0 0.0L226.15625 0.0L226.15625 209.6875L0.0 209.6875Z" stroke="#ff9933" stroke-width="2.0" stroke-dasharray="2.0 3.0" opacity="1.0" fill="#ff9933"/></g><g id="ProcessOnG1031" transform="matrix(1.0,0.0,0.0,1.0,549.52734375,463.5)" opacity="1.0"><path id="ProcessOnPath1032" d="M0.0 0.0L172.875 0.0L172.875 30.75L0.0 30.75Z" stroke="#323232" stroke-width="2.0" stroke-dasharray="none" opacity="1.0" fill="#ffffff"/><g id="ProcessOnG1033" transform="matrix(1.0,0.0,0.0,1.0,10.0,6.0)"><text id="ProcessOnText1034" fill="#000000" font-size="15" x="75.4375" y="15.375" font-family="微软雅黑" font-weight="normal" font-style="normal" text-decoration="none" family="微软雅黑" text-anchor="middle" size="15">unsafe.bind()</text></g></g><g id="ProcessOnG1035" transform="matrix(1.0,0.0,0.0,1.0,526.73828125,828.75)" opacity="1.0"><path id="ProcessOnPath1036" d="M0.0 0.0L218.453125 0.0L218.453125 211.0L0.0 211.0Z" stroke="#ff9933" stroke-width="2.0" stroke-dasharray="2.0 3.0" opacity="1.0" fill="#ff9933"/></g><g id="ProcessOnG1037" transform="matrix(1.0,0.0,0.0,1.0,503.99609375,523.5)" opacity="1.0"><path id="ProcessOnPath1038" d="M0.0 0.0L263.9375 0.0L263.9375 26.75L0.0 26.75Z" stroke="#ff3333" stroke-width="2.0" stroke-dasharray="none" opacity="1.0" fill="#ffffff"/><g id="ProcessOnG1039" transform="matrix(1.0,0.0,0.0,1.0,10.0,4.0)"><text id="ProcessOnText1040" fill="#000000" font-size="15" x="120.96875" y="15.375" font-family="微软雅黑" font-weight="normal" font-style="normal" text-decoration="none" family="微软雅黑" text-anchor="middle" size="15">javaChannel().bind(localAddress)</text></g></g><g id="ProcessOnG1041" transform="matrix(1.0,0.0,0.0,1.0,533.74609375,574.0)" opacity="1.0"><path id="ProcessOnPath1042" d="M0.0 0.0L204.4375 0.0L204.4375 32.0L0.0 32.0Z" stroke="#323232" stroke-width="2.0" stroke-dasharray="none" opacity="1.0" fill="#ffffff"/><g id="ProcessOnG1043" transform="matrix(1.0,0.0,0.0,1.0,10.0,-2.75)"><text id="ProcessOnText1044" fill="#000000" font-size="15" x="91.21875" y="15.375" font-family="微软雅黑" font-weight="normal" font-style="normal" text-decoration="none" family="微软雅黑" text-anchor="middle" size="15">pipeline().fireChannelAct</text><text id="ProcessOnText1045" fill="#000000" font-size="15" x="91.21875" y="34.125" font-family="微软雅黑" font-weight="normal" font-style="normal" text-decoration="none" family="微软雅黑" text-anchor="middle" size="15">ive()</text></g></g><g id="ProcessOnG1046" transform="matrix(1.0,0.0,0.0,1.0,548.06640625,631.5)" opacity="1.0"><path id="ProcessOnPath1047" d="M0.0 0.0L177.5 0.0L177.5 23.75L0.0 23.75Z" stroke="#323232" stroke-width="2.0" stroke-dasharray="none" opacity="1.0" fill="#ffffff"/><g id="ProcessOnG1048" transform="matrix(1.0,0.0,0.0,1.0,10.0,2.5)"><text id="ProcessOnText1049" fill="#000000" font-size="15" x="77.75" y="15.375" font-family="微软雅黑" font-weight="normal" font-style="normal" text-decoration="none" family="微软雅黑" text-anchor="middle" size="15">head.channelActive()</text></g></g><g id="ProcessOnG1050" transform="matrix(1.0,0.0,0.0,1.0,547.90234375,727.25)" opacity="1.0"><path id="ProcessOnPath1051" d="M0.0 0.0L176.125 0.0L176.125 32.5L0.0 32.5Z" stroke="#323232" stroke-width="2.0" stroke-dasharray="none" opacity="1.0" fill="#ffffff"/><g id="ProcessOnG1052" transform="matrix(1.0,0.0,0.0,1.0,10.0,6.875)"><text id="ProcessOnText1053" fill="#000000" font-size="15" x="77.0625" y="15.375" font-family="微软雅黑" font-weight="normal" font-style="normal" text-decoration="none" family="微软雅黑" text-anchor="middle" size="15">tail.channelActive()</text></g></g><g id="ProcessOnG1054" transform="matrix(1.0,0.0,0.0,1.0,547.90234375,676.0)" opacity="1.0"><path id="ProcessOnPath1055" d="M0.0 0.0L176.125 0.0L176.125 32.0L0.0 32.0Z" stroke="#323232" stroke-width="2.0" stroke-dasharray="2.0 3.0" opacity="1.0" fill="#ffffff"/><g id="ProcessOnG1056" transform="matrix(1.0,0.0,0.0,1.0,10.0,-2.75)"><text id="ProcessOnText1057" fill="#000000" font-size="15" x="77.0625" y="15.375" font-family="微软雅黑" font-weight="normal" font-style="normal" text-decoration="none" family="微软雅黑" text-anchor="middle" size="15">ChannelInBoundHan</text><text id="ProcessOnText1058" fill="#000000" font-size="15" x="77.0625" y="34.125" font-family="微软雅黑" font-weight="normal" font-style="normal" text-decoration="none" family="微软雅黑" text-anchor="middle" size="15">dler</text></g></g><g id="ProcessOnG1059" transform="matrix(1.0,0.0,0.0,1.0,547.90234375,785.75)" opacity="1.0"><path id="ProcessOnPath1060" d="M0.0 0.0L176.125 0.0L176.125 31.5L0.0 31.5Z" stroke="#323232" stroke-width="2.0" stroke-dasharray="none" opacity="1.0" fill="#ffffff"/><g id="ProcessOnG1061" transform="matrix(1.0,0.0,0.0,1.0,10.0,6.375)"><text id="ProcessOnText1062" fill="#000000" font-size="15" x="77.0625" y="15.375" font-family="微软雅黑" font-weight="normal" font-style="normal" text-decoration="none" family="微软雅黑" text-anchor="middle" size="15">readIfIsAutoRead()</text></g></g><g id="ProcessOnG1063" transform="matrix(1.0,0.0,0.0,1.0,134.69140625,573.0)" opacity="1.0"><path id="ProcessOnPath1064" d="M0.0 0.0L247.203125 0.0L247.203125 243.25L0.0 243.25Z" stroke="#ff9933" stroke-width="2.0" stroke-dasharray="2.0 3.0" opacity="1.0" fill="#ff9933"/></g><g id="ProcessOnG1065" transform="matrix(1.0,0.0,0.0,1.0,547.90234375,842.5)" opacity="1.0"><path id="ProcessOnPath1066" d="M0.0 0.0L176.125 0.0L176.125 25.75L0.0 25.75Z" stroke="#323232" stroke-width="2.0" stroke-dasharray="none" opacity="1.0" fill="#ffffff"/><g id="ProcessOnG1067" transform="matrix(1.0,0.0,0.0,1.0,10.0,3.5)"><text id="ProcessOnText1068" fill="#000000" font-size="15" x="77.0625" y="15.375" font-family="微软雅黑" font-weight="normal" font-style="normal" text-decoration="none" family="微软雅黑" text-anchor="middle" size="15">pipeline().read()</text></g></g><g id="ProcessOnG1069" transform="matrix(1.0,0.0,0.0,1.0,546.36328125,893.5)" opacity="1.0"><path id="ProcessOnPath1070" d="M0.0 0.0L179.203125 0.0L179.203125 27.75L0.0 27.75Z" stroke="#323232" stroke-width="2.0" stroke-dasharray="none" opacity="1.0" fill="#ffffff"/><g id="ProcessOnG1071" transform="matrix(1.0,0.0,0.0,1.0,10.0,4.5)"><text id="ProcessOnText1072" fill="#000000" font-size="15" x="78.6015625" y="15.375" font-family="微软雅黑" font-weight="normal" font-style="normal" text-decoration="none" family="微软雅黑" text-anchor="middle" size="15">tail.read()</text></g></g><g id="ProcessOnG1073" transform="matrix(1.0,0.0,0.0,1.0,546.36328125,999.75)" opacity="1.0"><path id="ProcessOnPath1074" d="M0.0 0.0L179.203125 0.0L179.203125 30.75L0.0 30.75Z" stroke="#323232" stroke-width="2.0" stroke-dasharray="none" opacity="1.0" fill="#ffffff"/><g id="ProcessOnG1075" transform="matrix(1.0,0.0,0.0,1.0,10.0,6.0)"><text id="ProcessOnText1076" fill="#000000" font-size="15" x="78.6015625" y="15.375" font-family="微软雅黑" font-weight="normal" font-style="normal" text-decoration="none" family="微软雅黑" text-anchor="middle" size="15">head.read()</text></g></g><g id="ProcessOnG1077" transform="matrix(1.0,0.0,0.0,1.0,533.74609375,1057.5)" opacity="1.0"><path id="ProcessOnPath1078" d="M0.0 0.0L204.4375 0.0L204.4375 32.0L0.0 32.0Z" stroke="#323232" stroke-width="2.0" stroke-dasharray="none" opacity="1.0" fill="#ffffff"/><g id="ProcessOnG1079" transform="matrix(1.0,0.0,0.0,1.0,10.0,6.625)"><text id="ProcessOnText1080" fill="#000000" font-size="15" x="91.21875" y="15.375" font-family="微软雅黑" font-weight="normal" font-style="normal" text-decoration="none" family="微软雅黑" text-anchor="middle" size="15">unsafe.beginRead()</text></g></g><g id="ProcessOnG1081" transform="matrix(1.0,0.0,0.0,1.0,171.85546875,295.75)" opacity="1.0"><path id="ProcessOnPath1082" d="M0.0 0.0L172.875 0.0L172.875 32.5L0.0 32.5Z" stroke="#ff3333" stroke-width="2.0" stroke-dasharray="none" opacity="1.0" fill="#ffffff"/><g id="ProcessOnG1083" transform="matrix(1.0,0.0,0.0,1.0,10.0,6.875)"><text id="ProcessOnText1084" fill="#000000" font-size="15" x="75.4375" y="15.375" font-family="微软雅黑" font-weight="normal" font-style="normal" text-decoration="none" family="微软雅黑" text-anchor="middle" size="15">newChannel()</text></g></g><g id="ProcessOnG1085" transform="matrix(1.0,0.0,0.0,1.0,165.69140625,351.625)" opacity="1.0"><path id="ProcessOnPath1086" d="M0.0 0.0L185.203125 0.0L185.203125 34.125L0.0 34.125Z" stroke="#323232" stroke-width="2.0" stroke-dasharray="none" opacity="1.0" fill="#ffffff"/><g id="ProcessOnG1087" transform="matrix(1.0,0.0,0.0,1.0,10.0,-11.0625)"><text id="ProcessOnText1088" fill="#000000" font-size="15" x="81.6015625" y="15.375" font-family="微软雅黑" font-weight="normal" font-style="normal" text-decoration="none" family="微软雅黑" text-anchor="middle" size="15">init(channel)</text><text id="ProcessOnText1089" fill="#000000" font-size="15" x="81.6015625" y="34.125" font-family="微软雅黑" font-weight="normal" font-style="normal" text-decoration="none" family="微软雅黑" text-anchor="middle" size="15">设置options,attrs,hand</text><text id="ProcessOnText1090" fill="#000000" font-size="15" x="81.6015625" y="52.875" font-family="微软雅黑" font-weight="normal" font-style="normal" text-decoration="none" family="微软雅黑" text-anchor="middle" size="15">lers</text></g></g><g id="ProcessOnG1091" transform="matrix(1.0,0.0,0.0,1.0,171.85546875,406.625)" opacity="1.0"><path id="ProcessOnPath1092" d="M0.0 0.0L172.875 0.0L172.875 32.5L0.0 32.5Z" stroke="#323232" stroke-width="2.0" stroke-dasharray="none" opacity="1.0" fill="#ffffff"/><g id="ProcessOnG1093" transform="matrix(1.0,0.0,0.0,1.0,10.0,-2.5)"><text id="ProcessOnText1094" fill="#000000" font-size="15" x="75.4375" y="15.375" font-family="微软雅黑" font-weight="normal" font-style="normal" text-decoration="none" family="微软雅黑" text-anchor="middle" size="15">group().register(cha</text><text id="ProcessOnText1095" fill="#000000" font-size="15" x="75.4375" y="34.125" font-family="微软雅黑" font-weight="normal" font-style="normal" text-decoration="none" family="微软雅黑" text-anchor="middle" size="15">nnel)</text></g></g><g id="ProcessOnG1096" transform="matrix(1.0,0.0,0.0,1.0,119.98046875,468.75)" opacity="1.0"><path id="ProcessOnPath1097" d="M0.0 0.0L276.625 0.0L276.625 41.0L0.0 41.0Z" stroke="#ff3333" stroke-width="2.0" stroke-dasharray="none" opacity="1.0" fill="#ffffff"/><g id="ProcessOnG1098" transform="matrix(1.0,0.0,0.0,1.0,10.0,11.125)"><text id="ProcessOnText1099" fill="#000000" font-size="15" x="127.3125" y="15.375" font-family="微软雅黑" font-weight="normal" font-style="normal" text-decoration="none" family="微软雅黑" text-anchor="middle" size="15">javaChannel().register(selector)</text></g></g><g id="ProcessOnG1100" transform="matrix(1.0,0.0,0.0,1.0,128.66796875,530.5)" opacity="1.0"><path id="ProcessOnPath1101" d="M0.0 0.0L258.875 0.0L258.875 29.75L0.0 29.75Z" stroke="#323232" stroke-width="2.0" stroke-dasharray="none" opacity="1.0" fill="#ffffff"/><g id="ProcessOnG1102" transform="matrix(1.0,0.0,0.0,1.0,10.0,-3.875)"><text id="ProcessOnText1103" fill="#000000" font-size="15" x="118.4375" y="15.375" font-family="微软雅黑" font-weight="normal" font-style="normal" text-decoration="none" family="微软雅黑" text-anchor="middle" size="15">pipeline.invokeHandlerAddedIf</text><text id="ProcessOnText1104" fill="#000000" font-size="15" x="118.4375" y="34.125" font-family="微软雅黑" font-weight="normal" font-style="normal" text-decoration="none" family="微软雅黑" text-anchor="middle" size="15">Needed()</text></g></g><g id="ProcessOnG1105" transform="matrix(1.0,0.0,0.0,1.0,141.85546875,588.625)" opacity="1.0"><path id="ProcessOnPath1106" d="M0.0 0.0L232.875 0.0L232.875 36.0L0.0 36.0Z" stroke="#323232" stroke-width="2.0" stroke-dasharray="none" opacity="1.0" fill="#ffffff"/><g id="ProcessOnG1107" transform="matrix(1.0,0.0,0.0,1.0,10.0,-0.75)"><text id="ProcessOnText1108" fill="#000000" font-size="15" x="105.4375" y="15.375" font-family="微软雅黑" font-weight="normal" font-style="normal" text-decoration="none" family="微软雅黑" text-anchor="middle" size="15">pipeline.fireChannelRegister</text><text id="ProcessOnText1109" fill="#000000" font-size="15" x="105.4375" y="34.125" font-family="微软雅黑" font-weight="normal" font-style="normal" text-decoration="none" family="微软雅黑" text-anchor="middle" size="15">ed()</text></g></g><g id="ProcessOnG1110" transform="matrix(1.0,0.0,0.0,1.0,171.85546875,650.5)" opacity="1.0"><path id="ProcessOnPath1111" d="M0.0 0.0L172.875 0.0L172.875 32.5L0.0 32.5Z" stroke="#323232" stroke-width="2.0" stroke-dasharray="none" opacity="1.0" fill="#ffffff"/><g id="ProcessOnG1112" transform="matrix(1.0,0.0,0.0,1.0,10.0,-2.5)"><text id="ProcessOnText1113" fill="#000000" font-size="15" x="75.4375" y="15.375" font-family="微软雅黑" font-weight="normal" font-style="normal" text-decoration="none" family="微软雅黑" text-anchor="middle" size="15">head.channelRegist</text><text id="ProcessOnText1114" fill="#000000" font-size="15" x="75.4375" y="34.125" font-family="微软雅黑" font-weight="normal" font-style="normal" text-decoration="none" family="微软雅黑" text-anchor="middle" size="15">ered()</text></g></g><g id="ProcessOnG1115" transform="matrix(1.0,0.0,0.0,1.0,171.85546875,775.75)" opacity="1.0"><path id="ProcessOnPath1116" d="M0.0 0.0L172.875 0.0L172.875 32.5L0.0 32.5Z" stroke="#323232" stroke-width="2.0" stroke-dasharray="none" opacity="1.0" fill="#ffffff"/><g id="ProcessOnG1117" transform="matrix(1.0,0.0,0.0,1.0,10.0,-2.5)"><text id="ProcessOnText1118" fill="#000000" font-size="15" x="75.4375" y="15.375" font-family="微软雅黑" font-weight="normal" font-style="normal" text-decoration="none" family="微软雅黑" text-anchor="middle" size="15">tail.channelRegister</text><text id="ProcessOnText1119" fill="#000000" font-size="15" x="75.4375" y="34.125" font-family="微软雅黑" font-weight="normal" font-style="normal" text-decoration="none" family="微软雅黑" text-anchor="middle" size="15">ed()</text></g></g><g id="ProcessOnG1120" transform="matrix(1.0,0.0,0.0,1.0,170.23046875,715.0)" opacity="1.0"><path id="ProcessOnPath1121" d="M0.0 0.0L176.125 0.0L176.125 32.0L0.0 32.0Z" stroke="#323232" stroke-width="2.0" stroke-dasharray="2.0 3.0" opacity="1.0" fill="#ffffff"/><g id="ProcessOnG1122" transform="matrix(1.0,0.0,0.0,1.0,10.0,-2.75)"><text id="ProcessOnText1123" fill="#000000" font-size="15" x="77.0625" y="15.375" font-family="微软雅黑" font-weight="normal" font-style="normal" text-decoration="none" family="微软雅黑" text-anchor="middle" size="15">ChannelInBoundHan</text><text id="ProcessOnText1124" fill="#000000" font-size="15" x="77.0625" y="34.125" font-family="微软雅黑" font-weight="normal" font-style="normal" text-decoration="none" family="微软雅黑" text-anchor="middle" size="15">dler</text></g></g><g id="ProcessOnG1125" transform="matrix(1.0,0.0,0.0,1.0,188.10546875,260.5)" opacity="1.0"><path id="ProcessOnPath1126" d="M0.0 0.0L131.0 0.0L131.0 23.0L0.0 23.0Z" stroke="none" stroke-width="0.0" stroke-dasharray="none" opacity="1.0" fill="none"/><g id="ProcessOnG1127" transform="matrix(1.0,0.0,0.0,1.0,0.0,2.125)"><text id="ProcessOnText1128" fill="#ff3333" font-size="15" x="64.5" y="15.375" font-family="微软雅黑" font-weight="bold" font-style="normal" text-decoration="none" family="微软雅黑" text-anchor="middle" size="15">initAndRegister()</text></g></g><g id="ProcessOnG1129"><path id="ProcessOnPath1130" d="M258.29296875 328.25L258.29296875 339.9375L258.29296875 339.9375L258.29296875 340.9375" stroke="#323232" stroke-width="2.0" stroke-dasharray="none" fill="none" marker-end="url(#ProcessOnMarker1131)"/></g><g id="ProcessOnG1133"><path id="ProcessOnPath1134" d="M258.29296875 385.75L258.29296875 396.1875L258.29296875 396.1875L258.29296875 397.1875" stroke="#323232" stroke-width="2.0" stroke-dasharray="none" fill="none" marker-end="url(#ProcessOnMarker1135)"/></g><g id="ProcessOnG1137"><path id="ProcessOnPath1138" d="M258.29296875 624.625L258.29296875 637.5625L258.29296875 637.5625L258.29296875 638.5625" stroke="#323232" stroke-width="2.0" stroke-dasharray="none" fill="none" marker-end="url(#ProcessOnMarker1139)"/></g><g id="ProcessOnG1141"><path id="ProcessOnPath1142" d="M258.29296875 683.0L258.29296875 699.0L258.29296875 699.0L258.29296875 699.7639320225002" stroke="#323232" stroke-width="2.0" stroke-dasharray="none" fill="none" marker-end="url(#ProcessOnMarker1143)"/></g><g id="ProcessOnG1145"><path id="ProcessOnPath1146" d="M258.29296875 747.0L258.29296875 761.375L258.29296875 761.375L258.29296875 762.375" stroke="#323232" stroke-width="2.0" stroke-dasharray="none" fill="none" marker-end="url(#ProcessOnMarker1147)"/></g><g id="ProcessOnG1149"><path id="ProcessOnPath1150" d="M258.10546875 560.25L258.10546875 574.4375L258.29296875 574.4375L258.29296875 575.4375" stroke="#323232" stroke-width="2.0" stroke-dasharray="none" fill="none" marker-end="url(#ProcessOnMarker1151)"/></g><g id="ProcessOnG1153"><path id="ProcessOnPath1154" d="M258.29296875 509.75L258.29296875 520.125L258.10546875 520.125L258.10546875 521.125" stroke="#323232" stroke-width="2.0" stroke-dasharray="none" fill="none" marker-end="url(#ProcessOnMarker1155)"/></g><g id="ProcessOnG1157" transform="matrix(1.0,0.0,0.0,1.0,564.10546875,195.25)" opacity="1.0"><path id="ProcessOnPath1158" d="M0.0 0.0L131.0 0.0L131.0 23.0L0.0 23.0Z" stroke="none" stroke-width="0.0" stroke-dasharray="none" opacity="1.0" fill="none"/><g id="ProcessOnG1159" transform="matrix(1.0,0.0,0.0,1.0,0.0,2.125)"><text id="ProcessOnText1160" fill="#ff3333" font-size="15" x="64.5" y="15.375" font-family="微软雅黑" font-weight="bold" font-style="normal" text-decoration="none" family="微软雅黑" text-anchor="middle" size="15">doBind0()</text></g></g><g id="ProcessOnG1161"><path id="ProcessOnPath1162" d="M636.75390625 266.125L636.75390625 279.625L635.96484375 279.625L635.96484375 280.625" stroke="#323232" stroke-width="2.0" stroke-dasharray="none" fill="none" marker-end="url(#ProcessOnMarker1163)"/></g><g id="ProcessOnG1165"><path id="ProcessOnPath1166" d="M635.96484375 322.25L635.96484375 334.5625L635.96484375 334.5625L635.96484375 335.5625" stroke="#323232" stroke-width="2.0" stroke-dasharray="none" fill="none" marker-end="url(#ProcessOnMarker1167)"/></g><g id="ProcessOnG1169"><path id="ProcessOnPath1170" d="M635.96484375 377.75L635.96484375 390.9375L635.96484375 390.9375L635.96484375 391.9375" stroke="#323232" stroke-width="2.0" stroke-dasharray="none" fill="none" marker-end="url(#ProcessOnMarker1171)"/></g><g id="ProcessOnG1173"><path id="ProcessOnPath1174" d="M635.96484375 436.625L635.96484375 450.0625L635.96484375 450.0625L635.96484375 451.0625" stroke="#323232" stroke-width="2.0" stroke-dasharray="none" fill="none" marker-end="url(#ProcessOnMarker1175)"/></g><g id="ProcessOnG1177"><path id="ProcessOnPath1178" d="M635.96484375 494.25L635.96484375 508.875L635.96484375 508.875L635.96484375 509.875" stroke="#323232" stroke-width="2.0" stroke-dasharray="none" fill="none" marker-end="url(#ProcessOnMarker1179)"/></g><g id="ProcessOnG1181"><path id="ProcessOnPath1182" d="M635.96484375 550.25L635.96484375 562.125L635.96484375 562.125L635.96484375 563.125" stroke="#323232" stroke-width="2.0" stroke-dasharray="none" fill="none" marker-end="url(#ProcessOnMarker1183)"/></g><g id="ProcessOnG1185"><path id="ProcessOnPath1186" d="M635.96484375 708.0L635.96484375 717.625L635.96484375 717.625L635.96484375 718.625" stroke="#323232" stroke-width="2.0" stroke-dasharray="none" fill="none" marker-end="url(#ProcessOnMarker1187)"/></g><g id="ProcessOnG1189"><path id="ProcessOnPath1190" d="M635.96484375 759.75L635.96484375 772.75L635.96484375 772.75L635.96484375 773.75" stroke="#323232" stroke-width="2.0" stroke-dasharray="none" fill="none" marker-end="url(#ProcessOnMarker1191)"/></g><g id="ProcessOnG1193"><path id="ProcessOnPath1194" d="M635.96484375 817.25L635.96484375 829.875L635.96484375 829.875L635.96484375 830.875" stroke="#323232" stroke-width="2.0" stroke-dasharray="none" fill="none" marker-end="url(#ProcessOnMarker1195)"/></g><g id="ProcessOnG1197"><path id="ProcessOnPath1198" d="M635.96484375 868.25L635.96484375 880.875L635.96484375 880.875L635.96484375 881.875" stroke="#323232" stroke-width="2.0" stroke-dasharray="none" fill="none" marker-end="url(#ProcessOnMarker1199)"/></g><g id="ProcessOnG1201" transform="matrix(1.0,0.0,0.0,1.0,547.90234375,945.0)" opacity="1.0"><path id="ProcessOnPath1202" d="M0.0 0.0L176.125 0.0L176.125 26.25L0.0 26.25Z" stroke="#323232" stroke-width="2.0" stroke-dasharray="2.0 3.0" opacity="1.0" fill="#ffffff"/><g id="ProcessOnG1203" transform="matrix(1.0,0.0,0.0,1.0,10.0,-5.625)"><text id="ProcessOnText1204" fill="#000000" font-size="15" x="77.0625" y="15.375" font-family="微软雅黑" font-weight="normal" font-style="normal" text-decoration="none" family="微软雅黑" text-anchor="middle" size="15">ChannelOutBoundHa</text><text id="ProcessOnText1205" fill="#000000" font-size="15" x="77.0625" y="34.125" font-family="微软雅黑" font-weight="normal" font-style="normal" text-decoration="none" family="微软雅黑" text-anchor="middle" size="15">ndler</text></g></g><g id="ProcessOnG1206"><path id="ProcessOnPath1207" d="M635.96484375 921.25L635.96484375 933.125L635.96484375 933.125L635.96484375 934.125" stroke="#323232" stroke-width="2.0" stroke-dasharray="none" fill="none" marker-end="url(#ProcessOnMarker1208)"/></g><g id="ProcessOnG1210"><path id="ProcessOnPath1211" d="M635.96484375 971.25L635.96484375 985.5L635.96484375 985.5L635.96484375 986.5" stroke="#323232" stroke-width="2.0" stroke-dasharray="none" fill="none" marker-end="url(#ProcessOnMarker1212)"/></g><g id="ProcessOnG1214"><path id="ProcessOnPath1215" d="M635.96484375 1030.5L635.96484375 1044.0L635.96484375 1044.0L635.96484375 1045.0" stroke="#323232" stroke-width="2.0" stroke-dasharray="none" fill="none" marker-end="url(#ProcessOnMarker1216)"/></g><g id="ProcessOnG1218"><path id="ProcessOnPath1219" d="M635.96484375 1089.5L635.96484375 1102.0625L592.15234375 1102.0625L592.15234375 1103.0625" stroke="#323232" stroke-width="2.0" stroke-dasharray="none" fill="none" marker-end="url(#ProcessOnMarker1220)"/></g><g id="ProcessOnG1222"><path id="ProcessOnPath1223" d="M635.96484375 606.0L635.96484375 618.75L636.81640625 618.75L636.81640625 619.75" stroke="#323232" stroke-width="2.0" stroke-dasharray="none" fill="none" marker-end="url(#ProcessOnMarker1224)"/></g><g id="ProcessOnG1226"><path id="ProcessOnPath1227" d="M258.29296875 218.25L258.29296875 234.375L258.29296875 234.375L258.29296875 235.2639320225002" stroke="#323232" stroke-width="2.0" stroke-dasharray="none" fill="none" marker-end="url(#ProcessOnMarker1228)"/></g><g id="ProcessOnG1230" transform="matrix(1.0,0.0,0.0,1.0,573.40234375,67.25)" opacity="1.0"><path id="ProcessOnPath1231" d="M0.0 0.0L134.625 0.0L150.625 16.0L150.625 63.0L0.0 63.0L0.0 0.0Z" stroke="none" stroke-width="0.0" stroke-dasharray="none" opacity="1.0" fill="#ffffaa"/><path id="ProcessOnPath1232" d="M134.625 0.0L134.625 16.0L150.625 16.0Z" stroke="none" stroke-width="0.0" stroke-dasharray="none" opacity="1.0" fill="#cdcd78"/><path id="ProcessOnPath1233" d="M0.0 0.0L134.625 0.0L150.625 16.0L150.625 63.0L0.0 63.0L0.0 0.0Z" stroke="none" stroke-width="0.0" stroke-dasharray="none" opacity="1.0" fill="none"/><g id="ProcessOnG1234" transform="matrix(1.0,0.0,0.0,1.0,10.0,12.75)"><text id="ProcessOnText1235" fill="#ff3333" font-size="15" x="64.3125" y="15.375" font-family="微软雅黑" font-weight="bold" font-style="normal" text-decoration="none" family="微软雅黑" text-anchor="middle" size="15">Server绑定端口bi</text><text id="ProcessOnText1236" fill="#ff3333" font-size="15" x="64.3125" y="34.125" font-family="微软雅黑" font-weight="bold" font-style="normal" text-decoration="none" family="微软雅黑" text-anchor="middle" size="15">nd</text></g></g><g id="ProcessOnG1237"><path id="ProcessOnPath1238" d="M258.29296875 439.125L258.29296875 453.9375L258.29296875 453.9375L258.29296875 454.9375" stroke="#323232" stroke-width="2.0" stroke-dasharray="none" fill="none" marker-end="url(#ProcessOnMarker1239)"/></g><g id="ProcessOnG1241" transform="matrix(1.0,0.0,0.0,1.0,506.138671875,1112.5)" opacity="1.0"><path id="ProcessOnPath1242" d="M0.0 0.0L259.65234375 0.0L259.65234375 25.25L0.0 25.25Z" stroke="#ff3333" stroke-width="2.0" stroke-dasharray="none" opacity="1.0" fill="#ffffff"/><g id="ProcessOnG1243" transform="matrix(1.0,0.0,0.0,1.0,10.0,-6.125)"><text id="ProcessOnText1244" fill="#000000" font-size="15" x="118.826171875" y="15.375" font-family="微软雅黑" font-weight="normal" font-style="normal" text-decoration="none" family="微软雅黑" text-anchor="middle" size="15">selectionKey.interestOps(OP_AC</text><text id="ProcessOnText1245" fill="#000000" font-size="15" x="118.826171875" y="34.125" font-family="微软雅黑" font-weight="normal" font-style="normal" text-decoration="none" family="微软雅黑" text-anchor="middle" size="15">CEPT)</text></g></g><g id="ProcessOnG1246"><path id="ProcessOnPath1247" d="M404.48046875 545.375L444.1875 545.375L444.1875 546.375L468.6584632725002 546.375" stroke="#323232" stroke-width="2.0" stroke-dasharray="none" fill="none" marker-end="url(#ProcessOnMarker1248)"/></g></g></g></svg>