<svg xmlns="http://www.w3.org/2000/svg" xmlns:xlink="http://www.w3.org/1999/xlink" id="processonSvg1000" viewBox="62.0 94.0 1069.078125 1122.0" width="1069.078125" height="1122.0"><defs id="ProcessOnDefs1001"><marker id="ProcessOnMarker1132" markerUnits="userSpaceOnUse" orient="auto" markerWidth="16.23606797749979" markerHeight="10.550836550532098" viewBox="-1.0 -1.3763819204711736 16.23606797749979 10.550836550532098" refX="-1.0" refY="3.8990363547948754"><path id="ProcessOnPath1133" d="M12.0 3.8990363547948754L0.0 7.798072709589751V0.0Z" stroke="#323232" stroke-width="2.0" fill="#323232" transform="matrix(1.0,0.0,0.0,1.0,0.0,0.0)"/></marker><marker id="ProcessOnMarker1136" markerUnits="userSpaceOnUse" orient="auto" markerWidth="16.23606797749979" markerHeight="10.550836550532098" viewBox="-1.0 -1.3763819204711736 16.23606797749979 10.550836550532098" refX="-1.0" refY="3.8990363547948754"><path id="ProcessOnPath1137" d="M12.0 3.8990363547948754L0.0 7.798072709589751V0.0Z" stroke="#323232" stroke-width="2.0" fill="#323232" transform="matrix(1.0,0.0,0.0,1.0,0.0,0.0)"/></marker><marker id="ProcessOnMarker1140" markerUnits="userSpaceOnUse" orient="auto" markerWidth="16.23606797749979" markerHeight="10.550836550532098" viewBox="-1.0 -1.3763819204711736 16.23606797749979 10.550836550532098" refX="-1.0" refY="3.8990363547948754"><path id="ProcessOnPath1141" d="M12.0 3.8990363547948754L0.0 7.798072709589751V0.0Z" stroke="#323232" stroke-width="2.0" fill="#323232" transform="matrix(1.0,0.0,0.0,1.0,0.0,0.0)"/></marker><marker id="ProcessOnMarker1144" markerUnits="userSpaceOnUse" orient="auto" markerWidth="16.23606797749979" markerHeight="10.550836550532098" viewBox="-1.0 -1.3763819204711736 16.23606797749979 10.550836550532098" refX="-1.0" refY="3.8990363547948754"><path id="ProcessOnPath1145" d="M12.0 3.8990363547948754L0.0 7.798072709589751V0.0Z" stroke="#323232" stroke-width="2.0" fill="#323232" transform="matrix(1.0,0.0,0.0,1.0,0.0,0.0)"/></marker><marker id="ProcessOnMarker1148" markerUnits="userSpaceOnUse" orient="auto" markerWidth="16.23606797749979" markerHeight="10.550836550532098" viewBox="-1.0 -1.3763819204711736 16.23606797749979 10.550836550532098" refX="-1.0" refY="3.8990363547948754"><path id="ProcessOnPath1149" d="M12.0 3.8990363547948754L0.0 7.798072709589751V0.0Z" stroke="#323232" stroke-width="2.0" fill="#323232" transform="matrix(1.0,0.0,0.0,1.0,0.0,0.0)"/></marker><marker id="ProcessOnMarker1152" markerUnits="userSpaceOnUse" orient="auto" markerWidth="16.23606797749979" markerHeight="10.550836550532098" viewBox="-1.0 -1.3763819204711736 16.23606797749979 10.550836550532098" refX="-1.0" refY="3.8990363547948754"><path id="ProcessOnPath1153" d="M12.0 3.8990363547948754L0.0 7.798072709589751V0.0Z" stroke="#323232" stroke-width="2.0" fill="#323232" transform="matrix(1.0,0.0,0.0,1.0,0.0,0.0)"/></marker><marker id="ProcessOnMarker1156" markerUnits="userSpaceOnUse" orient="auto" markerWidth="16.23606797749979" markerHeight="10.550836550532098" viewBox="-1.0 -1.3763819204711736 16.23606797749979 10.550836550532098" refX="-1.0" refY="3.8990363547948754"><path id="ProcessOnPath1157" d="M12.0 3.8990363547948754L0.0 7.798072709589751V0.0Z" stroke="#323232" stroke-width="2.0" fill="#323232" transform="matrix(1.0,0.0,0.0,1.0,0.0,0.0)"/></marker><marker id="ProcessOnMarker1160" markerUnits="userSpaceOnUse" orient="auto" markerWidth="16.23606797749979" markerHeight="10.550836550532098" viewBox="-1.0 -1.3763819204711736 16.23606797749979 10.550836550532098" refX="-1.0" refY="3.8990363547948754"><path id="ProcessOnPath1161" d="M12.0 3.8990363547948754L0.0 7.798072709589751V0.0Z" stroke="#323232" stroke-width="2.0" fill="#323232" transform="matrix(1.0,0.0,0.0,1.0,0.0,0.0)"/></marker><marker id="ProcessOnMarker1168" markerUnits="userSpaceOnUse" orient="auto" markerWidth="16.23606797749979" markerHeight="10.550836550532098" viewBox="-1.0 -1.3763819204711736 16.23606797749979 10.550836550532098" refX="-1.0" refY="3.8990363547948754"><path id="ProcessOnPath1169" d="M12.0 3.8990363547948754L0.0 7.798072709589751V0.0Z" stroke="#323232" stroke-width="2.0" fill="#323232" transform="matrix(1.0,0.0,0.0,1.0,0.0,0.0)"/></marker><marker id="ProcessOnMarker1172" markerUnits="userSpaceOnUse" orient="auto" markerWidth="16.23606797749979" markerHeight="10.550836550532098" viewBox="-1.0 -1.3763819204711736 16.23606797749979 10.550836550532098" refX="-1.0" refY="3.8990363547948754"><path id="ProcessOnPath1173" d="M12.0 3.8990363547948754L0.0 7.798072709589751V0.0Z" stroke="#323232" stroke-width="2.0" fill="#323232" transform="matrix(1.0,0.0,0.0,1.0,0.0,0.0)"/></marker><marker id="ProcessOnMarker1176" markerUnits="userSpaceOnUse" orient="auto" markerWidth="16.23606797749979" markerHeight="10.550836550532098" viewBox="-1.0 -1.3763819204711736 16.23606797749979 10.550836550532098" refX="-1.0" refY="3.8990363547948754"><path id="ProcessOnPath1177" d="M12.0 3.8990363547948754L0.0 7.798072709589751V0.0Z" stroke="#323232" stroke-width="2.0" fill="#323232" transform="matrix(1.0,0.0,0.0,1.0,0.0,0.0)"/></marker><marker id="ProcessOnMarker1180" markerUnits="userSpaceOnUse" orient="auto" markerWidth="16.23606797749979" markerHeight="10.550836550532098" viewBox="-1.0 -1.3763819204711736 16.23606797749979 10.550836550532098" refX="-1.0" refY="3.8990363547948754"><path id="ProcessOnPath1181" d="M12.0 3.8990363547948754L0.0 7.798072709589751V0.0Z" stroke="#323232" stroke-width="2.0" fill="#323232" transform="matrix(1.0,0.0,0.0,1.0,0.0,0.0)"/></marker><marker id="ProcessOnMarker1184" markerUnits="userSpaceOnUse" orient="auto" markerWidth="16.23606797749979" markerHeight="10.550836550532098" viewBox="-1.0 -1.3763819204711736 16.23606797749979 10.550836550532098" refX="-1.0" refY="3.8990363547948754"><path id="ProcessOnPath1185" d="M12.0 3.8990363547948754L0.0 7.798072709589751V0.0Z" stroke="#323232" stroke-width="2.0" fill="#323232" transform="matrix(1.0,0.0,0.0,1.0,0.0,0.0)"/></marker><marker id="ProcessOnMarker1188" markerUnits="userSpaceOnUse" orient="auto" markerWidth="16.23606797749979" markerHeight="10.550836550532098" viewBox="-1.0 -1.3763819204711736 16.23606797749979 10.550836550532098" refX="-1.0" refY="3.8990363547948754"><path id="ProcessOnPath1189" d="M12.0 3.8990363547948754L0.0 7.798072709589751V0.0Z" stroke="#323232" stroke-width="2.0" fill="#323232" transform="matrix(1.0,0.0,0.0,1.0,0.0,0.0)"/></marker><marker id="ProcessOnMarker1192" markerUnits="userSpaceOnUse" orient="auto" markerWidth="16.23606797749979" markerHeight="10.550836550532098" viewBox="-1.0 -1.3763819204711736 16.23606797749979 10.550836550532098" refX="-1.0" refY="3.8990363547948754"><path id="ProcessOnPath1193" d="M12.0 3.8990363547948754L0.0 7.798072709589751V0.0Z" stroke="#323232" stroke-width="2.0" fill="#323232" transform="matrix(1.0,0.0,0.0,1.0,0.0,0.0)"/></marker><marker id="ProcessOnMarker1196" markerUnits="userSpaceOnUse" orient="auto" markerWidth="16.23606797749979" markerHeight="10.550836550532098" viewBox="-1.0 -1.3763819204711736 16.23606797749979 10.550836550532098" refX="-1.0" refY="3.8990363547948754"><path id="ProcessOnPath1197" d="M12.0 3.8990363547948754L0.0 7.798072709589751V0.0Z" stroke="#323232" stroke-width="2.0" fill="#323232" transform="matrix(1.0,0.0,0.0,1.0,0.0,0.0)"/></marker><marker id="ProcessOnMarker1200" markerUnits="userSpaceOnUse" orient="auto" markerWidth="16.23606797749979" markerHeight="10.550836550532098" viewBox="-1.0 -1.3763819204711736 16.23606797749979 10.550836550532098" refX="-1.0" refY="3.8990363547948754"><path id="ProcessOnPath1201" d="M12.0 3.8990363547948754L0.0 7.798072709589751V0.0Z" stroke="#323232" stroke-width="2.0" fill="#323232" transform="matrix(1.0,0.0,0.0,1.0,0.0,0.0)"/></marker><marker id="ProcessOnMarker1204" markerUnits="userSpaceOnUse" orient="auto" markerWidth="16.23606797749979" markerHeight="10.550836550532098" viewBox="-1.0 -1.3763819204711736 16.23606797749979 10.550836550532098" refX="-1.0" refY="3.8990363547948754"><path id="ProcessOnPath1205" d="M12.0 3.8990363547948754L0.0 7.798072709589751V0.0Z" stroke="#323232" stroke-width="2.0" fill="#323232" transform="matrix(1.0,0.0,0.0,1.0,0.0,0.0)"/></marker><marker id="ProcessOnMarker1208" markerUnits="userSpaceOnUse" orient="auto" markerWidth="16.23606797749979" markerHeight="10.550836550532098" viewBox="-1.0 -1.3763819204711736 16.23606797749979 10.550836550532098" refX="-1.0" refY="3.8990363547948754"><path id="ProcessOnPath1209" d="M12.0 3.8990363547948754L0.0 7.798072709589751V0.0Z" stroke="#323232" stroke-width="2.0" fill="#323232" transform="matrix(1.0,0.0,0.0,1.0,0.0,0.0)"/></marker><marker id="ProcessOnMarker1216" markerUnits="userSpaceOnUse" orient="auto" markerWidth="16.23606797749979" markerHeight="10.550836550532098" viewBox="-1.0 -1.3763819204711736 16.23606797749979 10.550836550532098" refX="-1.0" refY="3.8990363547948754"><path id="ProcessOnPath1217" d="M12.0 3.8990363547948754L0.0 7.798072709589751V0.0Z" stroke="#323232" stroke-width="2.0" fill="#323232" transform="matrix(1.0,0.0,0.0,1.0,0.0,0.0)"/></marker><marker id="ProcessOnMarker1220" markerUnits="userSpaceOnUse" orient="auto" markerWidth="16.23606797749979" markerHeight="10.550836550532098" viewBox="-1.0 -1.3763819204711736 16.23606797749979 10.550836550532098" refX="-1.0" refY="3.8990363547948754"><path id="ProcessOnPath1221" d="M12.0 3.8990363547948754L0.0 7.798072709589751V0.0Z" stroke="#323232" stroke-width="2.0" fill="#323232" transform="matrix(1.0,0.0,0.0,1.0,0.0,0.0)"/></marker><marker id="ProcessOnMarker1224" markerUnits="userSpaceOnUse" orient="auto" markerWidth="16.23606797749979" markerHeight="10.550836550532098" viewBox="-1.0 -1.3763819204711736 16.23606797749979 10.550836550532098" refX="-1.0" refY="3.8990363547948754"><path id="ProcessOnPath1225" d="M12.0 3.8990363547948754L0.0 7.798072709589751V0.0Z" stroke="#323232" stroke-width="2.0" fill="#323232" transform="matrix(1.0,0.0,0.0,1.0,0.0,0.0)"/></marker><marker id="ProcessOnMarker1228" markerUnits="userSpaceOnUse" orient="auto" markerWidth="16.23606797749979" markerHeight="10.550836550532098" viewBox="-1.0 -1.3763819204711736 16.23606797749979 10.550836550532098" refX="-1.0" refY="3.8990363547948754"><path id="ProcessOnPath1229" d="M12.0 3.8990363547948754L0.0 7.798072709589751V0.0Z" stroke="#323232" stroke-width="2.0" fill="#323232" transform="matrix(1.0,0.0,0.0,1.0,0.0,0.0)"/></marker><marker id="ProcessOnMarker1232" markerUnits="userSpaceOnUse" orient="auto" markerWidth="16.23606797749979" markerHeight="10.550836550532098" viewBox="-1.0 -1.3763819204711736 16.23606797749979 10.550836550532098" refX="-1.0" refY="3.8990363547948754"><path id="ProcessOnPath1233" d="M12.0 3.8990363547948754L0.0 7.798072709589751V0.0Z" stroke="#323232" stroke-width="2.0" fill="#323232" transform="matrix(1.0,0.0,0.0,1.0,0.0,0.0)"/></marker><marker id="ProcessOnMarker1236" markerUnits="userSpaceOnUse" orient="auto" markerWidth="16.23606797749979" markerHeight="10.550836550532098" viewBox="-1.0 -1.3763819204711736 16.23606797749979 10.550836550532098" refX="-1.0" refY="3.8990363547948754"><path id="ProcessOnPath1237" d="M12.0 3.8990363547948754L0.0 7.798072709589751V0.0Z" stroke="#323232" stroke-width="2.0" fill="#323232" transform="matrix(1.0,0.0,0.0,1.0,0.0,0.0)"/></marker><marker id="ProcessOnMarker1260" markerUnits="userSpaceOnUse" orient="auto" markerWidth="16.23606797749979" markerHeight="10.550836550532098" viewBox="-1.0 -1.3763819204711736 16.23606797749979 10.550836550532098" refX="-1.0" refY="3.8990363547948754"><path id="ProcessOnPath1261" d="M12.0 3.8990363547948754L0.0 7.798072709589751V0.0Z" stroke="#323232" stroke-width="2.0" fill="#323232" transform="matrix(1.0,0.0,0.0,1.0,0.0,0.0)"/></marker><marker id="ProcessOnMarker1268" markerUnits="userSpaceOnUse" orient="auto" markerWidth="16.23606797749979" markerHeight="10.550836550532098" viewBox="-1.0 -1.3763819204711736 16.23606797749979 10.550836550532098" refX="-1.0" refY="3.8990363547948754"><path id="ProcessOnPath1269" d="M12.0 3.8990363547948754L0.0 7.798072709589751V0.0Z" stroke="#323232" stroke-width="2.0" fill="#323232" transform="matrix(1.0,0.0,0.0,1.0,0.0,0.0)"/></marker><marker id="ProcessOnMarker1272" markerUnits="userSpaceOnUse" orient="auto" markerWidth="16.23606797749979" markerHeight="10.550836550532098" viewBox="-1.0 -1.3763819204711736 16.23606797749979 10.550836550532098" refX="-1.0" refY="3.8990363547948754"><path id="ProcessOnPath1273" d="M12.0 3.8990363547948754L0.0 7.798072709589751V0.0Z" stroke="#323232" stroke-width="2.0" fill="#323232" transform="matrix(1.0,0.0,0.0,1.0,0.0,0.0)"/></marker><marker id="ProcessOnMarker1280" markerUnits="userSpaceOnUse" orient="auto" markerWidth="16.23606797749979" markerHeight="10.550836550532098" viewBox="-1.0 -1.3763819204711736 16.23606797749979 10.550836550532098" refX="-1.0" refY="3.8990363547948754"><path id="ProcessOnPath1281" d="M12.0 3.8990363547948754L0.0 7.798072709589751V0.0Z" stroke="#323232" stroke-width="2.0" fill="#323232" transform="matrix(1.0,0.0,0.0,1.0,0.0,0.0)"/></marker><marker id="ProcessOnMarker1288" markerUnits="userSpaceOnUse" orient="auto" markerWidth="16.23606797749979" markerHeight="10.550836550532098" viewBox="-1.0 -1.3763819204711736 16.23606797749979 10.550836550532098" refX="-1.0" refY="3.8990363547948754"><path id="ProcessOnPath1289" d="M12.0 3.8990363547948754L0.0 7.798072709589751V0.0Z" stroke="#323232" stroke-width="2.0" fill="#323232" transform="matrix(1.0,0.0,0.0,1.0,0.0,0.0)"/></marker><marker id="ProcessOnMarker1298" markerUnits="userSpaceOnUse" orient="auto" markerWidth="16.23606797749979" markerHeight="10.550836550532098" viewBox="-1.0 -1.3763819204711736 16.23606797749979 10.550836550532098" refX="-1.0" refY="3.8990363547948754"><path id="ProcessOnPath1299" d="M12.0 3.8990363547948754L0.0 7.798072709589751V0.0Z" stroke="#323232" stroke-width="2.0" fill="#323232" transform="matrix(1.0,0.0,0.0,1.0,0.0,0.0)"/></marker></defs><g id="ProcessOnG1002"><path id="ProcessOnPath1003" d="M62.0 94.0H1131.078125V1216.0H62.0V94.0Z" fill="none"/><g id="ProcessOnG1004"><g id="ProcessOnG1005" transform="matrix(1.0,0.0,0.0,1.0,816.234375,458.5)" opacity="1.0"><path id="ProcessOnPath1006" d="M0.0 0.0L239.515625 0.0L239.515625 138.5L0.0 138.5Z" stroke="#ff9933" stroke-width="2.0" stroke-dasharray="2.0 3.0" opacity="1.0" fill="#ff9933"/></g><g id="ProcessOnG1007" transform="matrix(1.0,0.0,0.0,1.0,418.140625,235.0)" opacity="1.0"><path id="ProcessOnPath1008" d="M0.0 0.0L287.4375 0.0L287.4375 961.0L0.0 961.0Z" stroke="#323232" stroke-width="2.0" stroke-dasharray="none" opacity="1.0" fill="#ffffff"/></g><g id="ProcessOnG1009" transform="matrix(1.0,0.0,0.0,1.0,82.0,298.25)" opacity="1.0"><path id="ProcessOnPath1010" d="M0.0 0.0L292.375 0.0L292.375 577.75L0.0 577.75Z" stroke="#323232" stroke-width="2.0" stroke-dasharray="none" opacity="1.0" fill="#ffffff"/></g><g id="ProcessOnG1011" transform="matrix(1.0,0.0,0.0,1.0,444.640625,269.5)" opacity="1.0"><path id="ProcessOnPath1012" d="M0.0 0.0L234.4375 0.0L234.4375 227.5L0.0 227.5Z" stroke="#ff9933" stroke-width="2.0" stroke-dasharray="2.0 3.0" opacity="1.0" fill="#ff9933"/></g><g id="ProcessOnG1013" transform="matrix(1.0,0.0,0.0,1.0,441.5625,612.25)" opacity="1.0"><path id="ProcessOnPath1014" d="M0.0 0.0L237.515625 0.0L237.515625 204.5L0.0 204.5Z" stroke="#ff9933" stroke-width="2.0" stroke-dasharray="2.0 3.0" opacity="1.0" fill="#ff9933"/></g><g id="ProcessOnG1015" transform="matrix(1.0,0.0,0.0,1.0,101.25,623.25)" opacity="1.0"><path id="ProcessOnPath1016" d="M0.0 0.0L253.875 0.0L253.875 240.75L0.0 240.75Z" stroke="#ff9933" stroke-width="2.0" stroke-dasharray="2.0 3.0" opacity="1.0" fill="#ff9933"/></g><g id="ProcessOnG1017" transform="matrix(1.0,0.0,0.0,1.0,284.125,114.0)" opacity="1.0"><path id="ProcessOnPath1018" d="M0.0 4.0Q0.0 0.0 4.0 0.0L147.0 0.0Q151.0 0.0 151.0 4.0L151.0 33.0Q151.0 37.0 147.0 37.0L4.0 37.0Q0.0 37.0 0.0 33.0Z" stroke="#ff3333" stroke-width="2.0" stroke-dasharray="none" opacity="1.0" fill="#ffffff"/><g id="ProcessOnG1019" transform="matrix(1.0,0.0,0.0,1.0,10.0,10.375)"><text id="ProcessOnText1020" fill="#000000" font-size="13" x="64.5" y="13.325" font-family="微软雅黑" font-weight="normal" font-style="normal" text-decoration="none" family="微软雅黑" text-anchor="middle" size="13">Bootstrap.connect()</text></g></g><g id="ProcessOnG1021" transform="matrix(1.0,0.0,0.0,1.0,475.375,285.5)" opacity="1.0"><path id="ProcessOnPath1022" d="M0.0 0.0L174.546875 0.0L174.546875 27.375L0.0 27.375Z" stroke="#323232" stroke-width="2.0" stroke-dasharray="none" opacity="1.0" fill="#ffffff"/><g id="ProcessOnG1023" transform="matrix(1.0,0.0,0.0,1.0,10.0,5.5625)"><text id="ProcessOnText1024" fill="#000000" font-size="13" x="76.2734375" y="13.325" font-family="微软雅黑" font-weight="normal" font-style="normal" text-decoration="none" family="微软雅黑" text-anchor="middle" size="13">pipeline.connect()</text></g></g><g id="ProcessOnG1025" transform="matrix(1.0,0.0,0.0,1.0,472.9921875,339.875)" opacity="1.0"><path id="ProcessOnPath1026" d="M0.0 0.0L177.734375 0.0L177.734375 29.125L0.0 29.125Z" stroke="#323232" stroke-width="2.0" stroke-dasharray="none" opacity="1.0" fill="#ffffff"/><g id="ProcessOnG1027" transform="matrix(1.0,0.0,0.0,1.0,10.0,6.4375)"><text id="ProcessOnText1028" fill="#000000" font-size="13" x="77.8671875" y="13.325" font-family="微软雅黑" font-weight="normal" font-style="normal" text-decoration="none" family="微软雅黑" text-anchor="middle" size="13">tail.connect()</text></g></g><g id="ProcessOnG1029" transform="matrix(1.0,0.0,0.0,1.0,465.103515625,393.625)" opacity="1.0"><path id="ProcessOnPath1030" d="M0.0 0.0L193.51171875 0.0L193.51171875 29.375L0.0 29.375Z" stroke="#323232" stroke-width="2.0" stroke-dasharray="2.0 3.0" opacity="1.0" fill="#ffffff"/><g id="ProcessOnG1031" transform="matrix(1.0,0.0,0.0,1.0,10.0,6.5625)"><text id="ProcessOnText1032" fill="#000000" font-size="13" x="85.755859375" y="13.325" font-family="微软雅黑" font-weight="normal" font-style="normal" text-decoration="none" family="微软雅黑" text-anchor="middle" size="13">ChannelOutBoundHandler</text></g></g><g id="ProcessOnG1033" transform="matrix(1.0,0.0,0.0,1.0,475.421875,450.875)" opacity="1.0"><path id="ProcessOnPath1034" d="M0.0 0.0L172.875 0.0L172.875 32.5L0.0 32.5Z" stroke="#323232" stroke-width="2.0" stroke-dasharray="none" opacity="1.0" fill="#ffffff"/><g id="ProcessOnG1035" transform="matrix(1.0,0.0,0.0,1.0,10.0,8.125)"><text id="ProcessOnText1036" fill="#000000" font-size="13" x="75.4375" y="13.325" font-family="微软雅黑" font-weight="normal" font-style="normal" text-decoration="none" family="微软雅黑" text-anchor="middle" size="13">head.connect()</text></g></g><g id="ProcessOnG1037" transform="matrix(1.0,0.0,0.0,1.0,475.421875,510.25)" opacity="1.0"><path id="ProcessOnPath1038" d="M0.0 0.0L172.875 0.0L172.875 30.75L0.0 30.75Z" stroke="#323232" stroke-width="2.0" stroke-dasharray="none" opacity="1.0" fill="#ffffff"/><g id="ProcessOnG1039" transform="matrix(1.0,0.0,0.0,1.0,10.0,7.25)"><text id="ProcessOnText1040" fill="#000000" font-size="13" x="75.4375" y="13.325" font-family="微软雅黑" font-weight="normal" font-style="normal" text-decoration="none" family="微软雅黑" text-anchor="middle" size="13">unsafe.connect()</text></g></g><g id="ProcessOnG1041" transform="matrix(1.0,0.0,0.0,1.0,423.0703125,563.25)" opacity="1.0"><path id="ProcessOnPath1042" d="M0.0 0.0L279.28125 0.0L279.28125 40.75L0.0 40.75Z" stroke="#ff3333" stroke-width="2.0" stroke-dasharray="none" opacity="1.0" fill="#ffffff"/><g id="ProcessOnG1043" transform="matrix(1.0,0.0,0.0,1.0,10.0,4.125)"><text id="ProcessOnText1044" fill="#000000" font-size="13" x="128.640625" y="13.325" font-family="微软雅黑" font-weight="normal" font-style="normal" text-decoration="none" family="微软雅黑" text-anchor="middle" size="13">socketChannel.connect(remoteAddress)</text><text id="ProcessOnText1045" fill="#000000" font-size="13" x="128.640625" y="29.575" font-family="微软雅黑" font-weight="normal" font-style="normal" text-decoration="none" family="微软雅黑" text-anchor="middle" size="13">selectionKey().interestOps(OP_CONNECT)</text></g></g><g id="ProcessOnG1046" transform="matrix(1.0,0.0,0.0,1.0,459.640625,620.75)" opacity="1.0"><path id="ProcessOnPath1047" d="M0.0 0.0L204.4375 0.0L204.4375 32.0L0.0 32.0Z" stroke="#323232" stroke-width="2.0" stroke-dasharray="none" opacity="1.0" fill="#ffffff"/><g id="ProcessOnG1048" transform="matrix(1.0,0.0,0.0,1.0,10.0,7.875)"><text id="ProcessOnText1049" fill="#000000" font-size="13" x="91.21875" y="13.325" font-family="微软雅黑" font-weight="normal" font-style="normal" text-decoration="none" family="微软雅黑" text-anchor="middle" size="13">pipeline().fireChannelActive()</text></g></g><g id="ProcessOnG1050" transform="matrix(1.0,0.0,0.0,1.0,473.9609375,678.25)" opacity="1.0"><path id="ProcessOnPath1051" d="M0.0 0.0L177.5 0.0L177.5 23.75L0.0 23.75Z" stroke="#323232" stroke-width="2.0" stroke-dasharray="none" opacity="1.0" fill="#ffffff"/><g id="ProcessOnG1052" transform="matrix(1.0,0.0,0.0,1.0,10.0,3.75)"><text id="ProcessOnText1053" fill="#000000" font-size="13" x="77.75" y="13.325" font-family="微软雅黑" font-weight="normal" font-style="normal" text-decoration="none" family="微软雅黑" text-anchor="middle" size="13">head.channelActive()</text></g></g><g id="ProcessOnG1054" transform="matrix(1.0,0.0,0.0,1.0,473.796875,774.0)" opacity="1.0"><path id="ProcessOnPath1055" d="M0.0 0.0L176.125 0.0L176.125 32.5L0.0 32.5Z" stroke="#323232" stroke-width="2.0" stroke-dasharray="none" opacity="1.0" fill="#ffffff"/><g id="ProcessOnG1056" transform="matrix(1.0,0.0,0.0,1.0,10.0,8.125)"><text id="ProcessOnText1057" fill="#000000" font-size="13" x="77.0625" y="13.325" font-family="微软雅黑" font-weight="normal" font-style="normal" text-decoration="none" family="微软雅黑" text-anchor="middle" size="13">tail.channelActive()</text></g></g><g id="ProcessOnG1058" transform="matrix(1.0,0.0,0.0,1.0,443.1015625,879.75)" opacity="1.0"><path id="ProcessOnPath1059" d="M0.0 0.0L237.515625 0.0L237.515625 204.5L0.0 204.5Z" stroke="#ff9933" stroke-width="2.0" stroke-dasharray="2.0 3.0" opacity="1.0" fill="#ff9933"/></g><g id="ProcessOnG1060" transform="matrix(1.0,0.0,0.0,1.0,473.796875,722.75)" opacity="1.0"><path id="ProcessOnPath1061" d="M0.0 0.0L176.125 0.0L176.125 32.0L0.0 32.0Z" stroke="#323232" stroke-width="2.0" stroke-dasharray="2.0 3.0" opacity="1.0" fill="#ffffff"/><g id="ProcessOnG1062" transform="matrix(1.0,0.0,0.0,1.0,10.0,7.875)"><text id="ProcessOnText1063" fill="#000000" font-size="13" x="77.0625" y="13.325" font-family="微软雅黑" font-weight="normal" font-style="normal" text-decoration="none" family="微软雅黑" text-anchor="middle" size="13">ChannelInBoundHandler</text></g></g><g id="ProcessOnG1064" transform="matrix(1.0,0.0,0.0,1.0,473.796875,832.5)" opacity="1.0"><path id="ProcessOnPath1065" d="M0.0 0.0L176.125 0.0L176.125 31.5L0.0 31.5Z" stroke="#323232" stroke-width="2.0" stroke-dasharray="none" opacity="1.0" fill="#ffffff"/><g id="ProcessOnG1066" transform="matrix(1.0,0.0,0.0,1.0,10.0,7.625)"><text id="ProcessOnText1067" fill="#000000" font-size="13" x="77.0625" y="13.325" font-family="微软雅黑" font-weight="normal" font-style="normal" text-decoration="none" family="微软雅黑" text-anchor="middle" size="13">readIfIsAutoRead()</text></g></g><g id="ProcessOnG1068" transform="matrix(1.0,0.0,0.0,1.0,473.796875,889.25)" opacity="1.0"><path id="ProcessOnPath1069" d="M0.0 0.0L176.125 0.0L176.125 25.75L0.0 25.75Z" stroke="#323232" stroke-width="2.0" stroke-dasharray="none" opacity="1.0" fill="#ffffff"/><g id="ProcessOnG1070" transform="matrix(1.0,0.0,0.0,1.0,10.0,4.75)"><text id="ProcessOnText1071" fill="#000000" font-size="13" x="77.0625" y="13.325" font-family="微软雅黑" font-weight="normal" font-style="normal" text-decoration="none" family="微软雅黑" text-anchor="middle" size="13">pipeline().read()</text></g></g><g id="ProcessOnG1072" transform="matrix(1.0,0.0,0.0,1.0,472.2578125,940.25)" opacity="1.0"><path id="ProcessOnPath1073" d="M0.0 0.0L179.203125 0.0L179.203125 27.75L0.0 27.75Z" stroke="#323232" stroke-width="2.0" stroke-dasharray="none" opacity="1.0" fill="#ffffff"/><g id="ProcessOnG1074" transform="matrix(1.0,0.0,0.0,1.0,10.0,5.75)"><text id="ProcessOnText1075" fill="#000000" font-size="13" x="78.6015625" y="13.325" font-family="微软雅黑" font-weight="normal" font-style="normal" text-decoration="none" family="微软雅黑" text-anchor="middle" size="13">tail.read()</text></g></g><g id="ProcessOnG1076" transform="matrix(1.0,0.0,0.0,1.0,472.2578125,1046.5)" opacity="1.0"><path id="ProcessOnPath1077" d="M0.0 0.0L179.203125 0.0L179.203125 30.75L0.0 30.75Z" stroke="#323232" stroke-width="2.0" stroke-dasharray="none" opacity="1.0" fill="#ffffff"/><g id="ProcessOnG1078" transform="matrix(1.0,0.0,0.0,1.0,10.0,7.25)"><text id="ProcessOnText1079" fill="#000000" font-size="13" x="78.6015625" y="13.325" font-family="微软雅黑" font-weight="normal" font-style="normal" text-decoration="none" family="微软雅黑" text-anchor="middle" size="13">head.read()</text></g></g><g id="ProcessOnG1080" transform="matrix(1.0,0.0,0.0,1.0,459.640625,1104.25)" opacity="1.0"><path id="ProcessOnPath1081" d="M0.0 0.0L204.4375 0.0L204.4375 32.0L0.0 32.0Z" stroke="#323232" stroke-width="2.0" stroke-dasharray="none" opacity="1.0" fill="#ffffff"/><g id="ProcessOnG1082" transform="matrix(1.0,0.0,0.0,1.0,10.0,7.875)"><text id="ProcessOnText1083" fill="#000000" font-size="13" x="91.21875" y="13.325" font-family="微软雅黑" font-weight="normal" font-style="normal" text-decoration="none" family="微软雅黑" text-anchor="middle" size="13">unsafe.beginRead()</text></g></g><g id="ProcessOnG1084" transform="matrix(1.0,0.0,0.0,1.0,428.703125,1160.25)" opacity="1.0"><path id="ProcessOnPath1085" d="M0.0 0.0L268.015625 0.0L268.015625 29.75L0.0 29.75Z" stroke="#ff3333" stroke-width="2.0" stroke-dasharray="none" opacity="1.0" fill="#ffffff"/><g id="ProcessOnG1086" transform="matrix(1.0,0.0,0.0,1.0,10.0,6.75)"><text id="ProcessOnText1087" fill="#000000" font-size="13" x="123.0078125" y="13.325" font-family="微软雅黑" font-weight="normal" font-style="normal" text-decoration="none" family="微软雅黑" text-anchor="middle" size="13">selectionKey.interestOps(OP_READ)</text></g></g><g id="ProcessOnG1088" transform="matrix(1.0,0.0,0.0,1.0,141.75,338.1875)" opacity="1.0"><path id="ProcessOnPath1089" d="M0.0 0.0L172.875 0.0L172.875 32.5L0.0 32.5Z" stroke="#ff3333" stroke-width="2.0" stroke-dasharray="none" opacity="1.0" fill="#ffffff"/><g id="ProcessOnG1090" transform="matrix(1.0,0.0,0.0,1.0,10.0,8.125)"><text id="ProcessOnText1091" fill="#000000" font-size="13" x="75.4375" y="13.325" font-family="微软雅黑" font-weight="normal" font-style="normal" text-decoration="none" family="微软雅黑" text-anchor="middle" size="13">newChannel()</text></g></g><g id="ProcessOnG1092" transform="matrix(1.0,0.0,0.0,1.0,129.375,393.625)" opacity="1.0"><path id="ProcessOnPath1093" d="M0.0 0.0L197.625 0.0L197.625 38.375L0.0 38.375Z" stroke="#323232" stroke-width="2.0" stroke-dasharray="none" opacity="1.0" fill="#ffffff"/><g id="ProcessOnG1094" transform="matrix(1.0,0.0,0.0,1.0,10.0,2.9375)"><text id="ProcessOnText1095" fill="#000000" font-size="13" x="87.8125" y="13.325" font-family="微软雅黑" font-weight="normal" font-style="normal" text-decoration="none" family="微软雅黑" text-anchor="middle" size="13">init(channel)</text><text id="ProcessOnText1096" fill="#000000" font-size="13" x="87.8125" y="29.575" font-family="微软雅黑" font-weight="normal" font-style="normal" text-decoration="none" family="微软雅黑" text-anchor="middle" size="13">设置options,attrs,handlers</text></g></g><g id="ProcessOnG1097" transform="matrix(1.0,0.0,0.0,1.0,141.75,454.375)" opacity="1.0"><path id="ProcessOnPath1098" d="M0.0 0.0L172.875 0.0L172.875 32.5L0.0 32.5Z" stroke="#323232" stroke-width="2.0" stroke-dasharray="none" opacity="1.0" fill="#ffffff"/><g id="ProcessOnG1099" transform="matrix(1.0,0.0,0.0,1.0,10.0,8.125)"><text id="ProcessOnText1100" fill="#000000" font-size="13" x="75.4375" y="13.325" font-family="微软雅黑" font-weight="normal" font-style="normal" text-decoration="none" family="微软雅黑" text-anchor="middle" size="13">group().register(channel)</text></g></g><g id="ProcessOnG1101" transform="matrix(1.0,0.0,0.0,1.0,118.75,516.5)" opacity="1.0"><path id="ProcessOnPath1102" d="M0.0 0.0L218.875 0.0L218.875 37.5L0.0 37.5Z" stroke="#ff3333" stroke-width="2.0" stroke-dasharray="none" opacity="1.0" fill="#ffffff"/><g id="ProcessOnG1103" transform="matrix(1.0,0.0,0.0,1.0,10.0,10.625)"><text id="ProcessOnText1104" fill="#000000" font-size="13" x="98.4375" y="13.325" font-family="微软雅黑" font-weight="normal" font-style="normal" text-decoration="none" family="微软雅黑" text-anchor="middle" size="13">javaChannel().register(selector)</text></g></g><g id="ProcessOnG1105" transform="matrix(1.0,0.0,0.0,1.0,92.96875,580.25)" opacity="1.0"><path id="ProcessOnPath1106" d="M0.0 0.0L270.4375 0.0L270.4375 28.75L0.0 28.75Z" stroke="#323232" stroke-width="2.0" stroke-dasharray="none" opacity="1.0" fill="#ffffff"/><g id="ProcessOnG1107" transform="matrix(1.0,0.0,0.0,1.0,10.0,6.25)"><text id="ProcessOnText1108" fill="#000000" font-size="13" x="124.21875" y="13.325" font-family="微软雅黑" font-weight="normal" font-style="normal" text-decoration="none" family="微软雅黑" text-anchor="middle" size="13">pipeline.invokeHandlerAddedIfNeeded()</text></g></g><g id="ProcessOnG1109" transform="matrix(1.0,0.0,0.0,1.0,111.5625,634.25)" opacity="1.0"><path id="ProcessOnPath1110" d="M0.0 0.0L232.875 0.0L232.875 36.0L0.0 36.0Z" stroke="#323232" stroke-width="2.0" stroke-dasharray="none" opacity="1.0" fill="#ffffff"/><g id="ProcessOnG1111" transform="matrix(1.0,0.0,0.0,1.0,10.0,9.875)"><text id="ProcessOnText1112" fill="#000000" font-size="13" x="105.4375" y="13.325" font-family="微软雅黑" font-weight="normal" font-style="normal" text-decoration="none" family="微软雅黑" text-anchor="middle" size="13">pipeline.fireChannelRegistered()</text></g></g><g id="ProcessOnG1113" transform="matrix(1.0,0.0,0.0,1.0,141.75,698.25)" opacity="1.0"><path id="ProcessOnPath1114" d="M0.0 0.0L172.875 0.0L172.875 32.5L0.0 32.5Z" stroke="#323232" stroke-width="2.0" stroke-dasharray="none" opacity="1.0" fill="#ffffff"/><g id="ProcessOnG1115" transform="matrix(1.0,0.0,0.0,1.0,10.0,0.0)"><text id="ProcessOnText1116" fill="#000000" font-size="13" x="75.4375" y="13.325" font-family="微软雅黑" font-weight="normal" font-style="normal" text-decoration="none" family="微软雅黑" text-anchor="middle" size="13">head.channelRegistered(</text><text id="ProcessOnText1117" fill="#000000" font-size="13" x="75.4375" y="29.575" font-family="微软雅黑" font-weight="normal" font-style="normal" text-decoration="none" family="微软雅黑" text-anchor="middle" size="13">)</text></g></g><g id="ProcessOnG1118" transform="matrix(1.0,0.0,0.0,1.0,141.75,823.5)" opacity="1.0"><path id="ProcessOnPath1119" d="M0.0 0.0L172.875 0.0L172.875 32.5L0.0 32.5Z" stroke="#323232" stroke-width="2.0" stroke-dasharray="none" opacity="1.0" fill="#ffffff"/><g id="ProcessOnG1120" transform="matrix(1.0,0.0,0.0,1.0,10.0,8.125)"><text id="ProcessOnText1121" fill="#000000" font-size="13" x="75.4375" y="13.325" font-family="微软雅黑" font-weight="normal" font-style="normal" text-decoration="none" family="微软雅黑" text-anchor="middle" size="13">tail.channelRegistered()</text></g></g><g id="ProcessOnG1122" transform="matrix(1.0,0.0,0.0,1.0,140.125,762.75)" opacity="1.0"><path id="ProcessOnPath1123" d="M0.0 0.0L176.125 0.0L176.125 32.0L0.0 32.0Z" stroke="#323232" stroke-width="2.0" stroke-dasharray="2.0 3.0" opacity="1.0" fill="#ffffff"/><g id="ProcessOnG1124" transform="matrix(1.0,0.0,0.0,1.0,10.0,7.875)"><text id="ProcessOnText1125" fill="#000000" font-size="13" x="77.0625" y="13.325" font-family="微软雅黑" font-weight="normal" font-style="normal" text-decoration="none" family="微软雅黑" text-anchor="middle" size="13">ChannelInBoundHandler</text></g></g><g id="ProcessOnG1126" transform="matrix(1.0,0.0,0.0,1.0,158.0,308.25)" opacity="1.0"><path id="ProcessOnPath1127" d="M0.0 0.0L131.0 0.0L131.0 23.0L0.0 23.0Z" stroke="none" stroke-width="0.0" stroke-dasharray="none" opacity="1.0" fill="none"/><g id="ProcessOnG1128" transform="matrix(1.0,0.0,0.0,1.0,0.0,3.375)"><text id="ProcessOnText1129" fill="#ff3333" font-size="13" x="64.5" y="13.325" font-family="微软雅黑" font-weight="bold" font-style="normal" text-decoration="none" family="微软雅黑" text-anchor="middle" size="13">initAndRegister()</text></g></g><g id="ProcessOnG1130"><path id="ProcessOnPath1131" d="M228.1875 370.6875L228.1875 382.15625L228.1875 382.15625L228.1875 383.15625" stroke="#323232" stroke-width="2.0" stroke-dasharray="none" fill="none" marker-end="url(#ProcessOnMarker1132)"/></g><g id="ProcessOnG1134"><path id="ProcessOnPath1135" d="M228.1875 432.0L228.1875 443.1875L228.1875 443.1875L228.1875 444.1875" stroke="#323232" stroke-width="2.0" stroke-dasharray="none" fill="none" marker-end="url(#ProcessOnMarker1136)"/></g><g id="ProcessOnG1138"><path id="ProcessOnPath1139" d="M228.1875 486.875L228.1875 501.6875L228.1875 501.6875L228.1875 502.6875" stroke="#323232" stroke-width="2.0" stroke-dasharray="none" fill="none" marker-end="url(#ProcessOnMarker1140)"/></g><g id="ProcessOnG1142"><path id="ProcessOnPath1143" d="M228.0 670.25L228.0 684.25L228.1875 684.25L228.1875 685.25" stroke="#323232" stroke-width="2.0" stroke-dasharray="none" fill="none" marker-end="url(#ProcessOnMarker1144)"/></g><g id="ProcessOnG1146"><path id="ProcessOnPath1147" d="M228.1875 730.75L228.1875 746.75L228.1875 746.75L228.1875 747.5139320225002" stroke="#323232" stroke-width="2.0" stroke-dasharray="none" fill="none" marker-end="url(#ProcessOnMarker1148)"/></g><g id="ProcessOnG1150"><path id="ProcessOnPath1151" d="M228.1875 794.75L228.1875 809.125L228.1875 809.125L228.1875 810.125" stroke="#323232" stroke-width="2.0" stroke-dasharray="none" fill="none" marker-end="url(#ProcessOnMarker1152)"/></g><g id="ProcessOnG1154"><path id="ProcessOnPath1155" d="M228.1875 609.0L228.1875 621.625L228.0 621.625L228.0 622.625" stroke="#323232" stroke-width="2.0" stroke-dasharray="none" fill="none" marker-end="url(#ProcessOnMarker1156)"/></g><g id="ProcessOnG1158"><path id="ProcessOnPath1159" d="M228.1875 554.0L228.1875 567.125L228.1875 567.125L228.1875 568.125" stroke="#323232" stroke-width="2.0" stroke-dasharray="none" fill="none" marker-end="url(#ProcessOnMarker1160)"/></g><g id="ProcessOnG1162" transform="matrix(1.0,0.0,0.0,1.0,490.0,242.0)" opacity="1.0"><path id="ProcessOnPath1163" d="M0.0 0.0L131.0 0.0L131.0 23.0L0.0 23.0Z" stroke="none" stroke-width="0.0" stroke-dasharray="none" opacity="1.0" fill="none"/><g id="ProcessOnG1164" transform="matrix(1.0,0.0,0.0,1.0,0.0,3.375)"><text id="ProcessOnText1165" fill="#ff3333" font-size="13" x="64.5" y="13.325" font-family="微软雅黑" font-weight="bold" font-style="normal" text-decoration="none" family="微软雅黑" text-anchor="middle" size="13">doConnect0()</text></g></g><g id="ProcessOnG1166"><path id="ProcessOnPath1167" d="M562.6484375 312.875L562.6484375 326.375L561.859375 326.375L561.859375 327.375" stroke="#323232" stroke-width="2.0" stroke-dasharray="none" fill="none" marker-end="url(#ProcessOnMarker1168)"/></g><g id="ProcessOnG1170"><path id="ProcessOnPath1171" d="M561.859375 369.0L561.859375 381.3125L561.859375 381.3125L561.859375 382.3125" stroke="#323232" stroke-width="2.0" stroke-dasharray="none" fill="none" marker-end="url(#ProcessOnMarker1172)"/></g><g id="ProcessOnG1174"><path id="ProcessOnPath1175" d="M561.859375 423.0L561.859375 436.9375L561.859375 436.9375L561.859375 437.9375" stroke="#323232" stroke-width="2.0" stroke-dasharray="none" fill="none" marker-end="url(#ProcessOnMarker1176)"/></g><g id="ProcessOnG1178"><path id="ProcessOnPath1179" d="M561.859375 483.375L561.859375 496.8125L561.859375 496.8125L561.859375 497.8125" stroke="#323232" stroke-width="2.0" stroke-dasharray="none" fill="none" marker-end="url(#ProcessOnMarker1180)"/></g><g id="ProcessOnG1182"><path id="ProcessOnPath1183" d="M561.859375 541.0L561.859375 552.125L562.7109375 552.125L562.7109375 553.125" stroke="#323232" stroke-width="2.0" stroke-dasharray="none" fill="none" marker-end="url(#ProcessOnMarker1184)"/></g><g id="ProcessOnG1186"><path id="ProcessOnPath1187" d="M562.7109375 604.0L562.7109375 612.375L561.859375 612.375L561.859375 613.375" stroke="#323232" stroke-width="2.0" stroke-dasharray="none" fill="none" marker-end="url(#ProcessOnMarker1188)"/></g><g id="ProcessOnG1190"><path id="ProcessOnPath1191" d="M562.7109375 702.0L562.7109375 712.375L561.859375 712.375L561.859375 713.375" stroke="#323232" stroke-width="2.0" stroke-dasharray="none" fill="none" marker-end="url(#ProcessOnMarker1192)"/></g><g id="ProcessOnG1194"><path id="ProcessOnPath1195" d="M561.859375 754.75L561.859375 764.375L561.859375 764.375L561.859375 765.375" stroke="#323232" stroke-width="2.0" stroke-dasharray="none" fill="none" marker-end="url(#ProcessOnMarker1196)"/></g><g id="ProcessOnG1198"><path id="ProcessOnPath1199" d="M561.859375 806.5L561.859375 819.5L561.859375 819.5L561.859375 820.5" stroke="#323232" stroke-width="2.0" stroke-dasharray="none" fill="none" marker-end="url(#ProcessOnMarker1200)"/></g><g id="ProcessOnG1202"><path id="ProcessOnPath1203" d="M561.859375 864.0L561.859375 876.625L561.859375 876.625L561.859375 877.625" stroke="#323232" stroke-width="2.0" stroke-dasharray="none" fill="none" marker-end="url(#ProcessOnMarker1204)"/></g><g id="ProcessOnG1206"><path id="ProcessOnPath1207" d="M561.859375 915.0L561.859375 927.625L561.859375 927.625L561.859375 928.625" stroke="#323232" stroke-width="2.0" stroke-dasharray="none" fill="none" marker-end="url(#ProcessOnMarker1208)"/></g><g id="ProcessOnG1210" transform="matrix(1.0,0.0,0.0,1.0,470.3017578125,991.75)" opacity="1.0"><path id="ProcessOnPath1211" d="M0.0 0.0L184.818359375 0.0L184.818359375 28.25L0.0 28.25Z" stroke="#323232" stroke-width="2.0" stroke-dasharray="2.0 3.0" opacity="1.0" fill="#ffffff"/><g id="ProcessOnG1212" transform="matrix(1.0,0.0,0.0,1.0,10.0,6.0)"><text id="ProcessOnText1213" fill="#000000" font-size="13" x="81.4091796875" y="13.325" font-family="微软雅黑" font-weight="normal" font-style="normal" text-decoration="none" family="微软雅黑" text-anchor="middle" size="13">ChannelOutBoundHandler</text></g></g><g id="ProcessOnG1214"><path id="ProcessOnPath1215" d="M561.859375 968.0L561.859375 979.875L562.7109375 979.875L562.7109375 980.875" stroke="#323232" stroke-width="2.0" stroke-dasharray="none" fill="none" marker-end="url(#ProcessOnMarker1216)"/></g><g id="ProcessOnG1218"><path id="ProcessOnPath1219" d="M562.7109375 1020.0L562.7109375 1033.25L561.859375 1033.25L561.859375 1034.25" stroke="#323232" stroke-width="2.0" stroke-dasharray="none" fill="none" marker-end="url(#ProcessOnMarker1220)"/></g><g id="ProcessOnG1222"><path id="ProcessOnPath1223" d="M561.859375 1077.25L561.859375 1090.75L561.859375 1090.75L561.859375 1091.75" stroke="#323232" stroke-width="2.0" stroke-dasharray="none" fill="none" marker-end="url(#ProcessOnMarker1224)"/></g><g id="ProcessOnG1226"><path id="ProcessOnPath1227" d="M561.859375 1136.25L561.859375 1148.25L562.7109375 1148.25L562.7109375 1149.25" stroke="#323232" stroke-width="2.0" stroke-dasharray="none" fill="none" marker-end="url(#ProcessOnMarker1228)"/></g><g id="ProcessOnG1230"><path id="ProcessOnPath1231" d="M561.859375 652.75L561.859375 665.5L562.7109375 665.5L562.7109375 666.5" stroke="#323232" stroke-width="2.0" stroke-dasharray="none" fill="none" marker-end="url(#ProcessOnMarker1232)"/></g><g id="ProcessOnG1234"><path id="ProcessOnPath1235" d="M359.625 151.0L359.625 224.625L228.1875 224.625L228.1875 283.0139320225002" stroke="#323232" stroke-width="2.0" stroke-dasharray="none" fill="none" marker-end="url(#ProcessOnMarker1236)"/></g><g id="ProcessOnG1238" transform="matrix(1.0,0.0,0.0,1.0,499.296875,114.0)" opacity="1.0"><path id="ProcessOnPath1239" d="M0.0 0.0L148.78125 0.0L164.78125 16.0L164.78125 58.0L0.0 58.0L0.0 0.0Z" stroke="none" stroke-width="0.0" stroke-dasharray="none" opacity="1.0" fill="#ffffaa"/><path id="ProcessOnPath1240" d="M148.78125 0.0L148.78125 16.0L164.78125 16.0Z" stroke="none" stroke-width="0.0" stroke-dasharray="none" opacity="1.0" fill="#cdcd78"/><path id="ProcessOnPath1241" d="M0.0 0.0L148.78125 0.0L164.78125 16.0L164.78125 58.0L0.0 58.0L0.0 0.0Z" stroke="none" stroke-width="0.0" stroke-dasharray="none" opacity="1.0" fill="none"/><g id="ProcessOnG1242" transform="matrix(1.0,0.0,0.0,1.0,10.0,20.875)"><text id="ProcessOnText1243" fill="#ff3333" font-size="13" x="71.390625" y="13.325" font-family="微软雅黑" font-weight="bold" font-style="normal" text-decoration="none" family="微软雅黑" text-anchor="middle" size="13">Client建立连接connect</text></g></g><g id="ProcessOnG1244" transform="matrix(1.0,0.0,0.0,1.0,846.69921875,235.0)" opacity="1.0"><path id="ProcessOnPath1245" d="M0.0 4.0Q0.0 0.0 4.0 0.0L174.5859375 0.0Q178.5859375 0.0 178.5859375 4.0L178.5859375 39.0Q178.5859375 43.0 174.5859375 43.0L4.0 43.0Q0.0 43.0 0.0 39.0Z" stroke="#ff3333" stroke-width="2.0" stroke-dasharray="none" opacity="1.0" fill="#ffffff"/><g id="ProcessOnG1246" transform="matrix(1.0,0.0,0.0,1.0,10.0,5.25)"><text id="ProcessOnText1247" fill="#000000" font-size="13" x="78.29296875" y="13.325" font-family="微软雅黑" font-weight="normal" font-style="normal" text-decoration="none" family="微软雅黑" text-anchor="middle" size="13">NioEventLoop</text><text id="ProcessOnText1248" fill="#000000" font-size="13" x="78.29296875" y="29.575" font-family="微软雅黑" font-weight="normal" font-style="normal" text-decoration="none" family="微软雅黑" text-anchor="middle" size="13">线程监听OP_CONNECT</text></g></g><g id="ProcessOnG1249" transform="matrix(1.0,0.0,0.0,1.0,846.62109375,318.8125)" opacity="1.0"><path id="ProcessOnPath1250" d="M0.0 0.0L178.7421875 0.0L178.7421875 39.1875L0.0 39.1875Z" stroke="#323232" stroke-width="2.0" stroke-dasharray="none" opacity="1.0" fill="#ffffff"/><g id="ProcessOnG1251" transform="matrix(1.0,0.0,0.0,1.0,10.0,3.34375)"><text id="ProcessOnText1252" fill="#000000" font-size="13" x="78.37109375" y="13.325" font-family="微软雅黑" font-weight="normal" font-style="normal" text-decoration="none" family="微软雅黑" text-anchor="middle" size="13">unsafe.finishConnect()</text><text id="ProcessOnText1253" fill="#000000" font-size="13" x="78.37109375" y="29.575" font-family="微软雅黑" font-weight="normal" font-style="normal" text-decoration="none" family="微软雅黑" text-anchor="middle" size="13">(NioByteUnsafe)</text></g></g><g id="ProcessOnG1254" transform="matrix(1.0,0.0,0.0,1.0,824.48828125,402.8125)" opacity="1.0"><path id="ProcessOnPath1255" d="M0.0 0.0L223.0078125 0.0L223.0078125 37.1875L0.0 37.1875Z" stroke="#ff3333" stroke-width="2.0" stroke-dasharray="none" opacity="1.0" fill="#ffffff"/><g id="ProcessOnG1256" transform="matrix(1.0,0.0,0.0,1.0,10.0,10.46875)"><text id="ProcessOnText1257" fill="#000000" font-size="13" x="100.50390625" y="13.325" font-family="微软雅黑" font-weight="normal" font-style="normal" text-decoration="none" family="微软雅黑" text-anchor="middle" size="13">javaChannel().finishConnect()</text></g></g><g id="ProcessOnG1258"><path id="ProcessOnPath1259" d="M935.9921875 278.0L935.9921875 298.40625L935.9921875 298.40625L935.9921875 303.5764320225002" stroke="#323232" stroke-width="2.0" stroke-dasharray="none" fill="none" marker-end="url(#ProcessOnMarker1260)"/></g><g id="ProcessOnG1262" transform="matrix(1.0,0.0,0.0,1.0,834.2421875,478.375)" opacity="1.0"><path id="ProcessOnPath1263" d="M0.0 0.0L203.5 0.0L203.5 38.125L0.0 38.125Z" stroke="#323232" stroke-width="2.0" stroke-dasharray="none" opacity="1.0" fill="#ffffff"/><g id="ProcessOnG1264" transform="matrix(1.0,0.0,0.0,1.0,10.0,10.9375)"><text id="ProcessOnText1265" fill="#000000" font-size="13" x="90.75" y="13.325" font-family="微软雅黑" font-weight="normal" font-style="normal" text-decoration="none" family="微软雅黑" text-anchor="middle" size="13">pipeline().fireChannelActive()</text></g></g><g id="ProcessOnG1266"><path id="ProcessOnPath1267" d="M935.9921875 440.0L935.9921875 459.1875L935.9921875 459.1875L935.9921875 463.1389320225002" stroke="#323232" stroke-width="2.0" stroke-dasharray="none" fill="none" marker-end="url(#ProcessOnMarker1268)"/></g><g id="ProcessOnG1270"><path id="ProcessOnPath1271" d="M935.9921875 358.0L935.9921875 380.40625L935.9921875 380.40625L935.9921875 387.5764320225002" stroke="#323232" stroke-width="2.0" stroke-dasharray="none" fill="none" marker-end="url(#ProcessOnMarker1272)"/></g><g id="ProcessOnG1274" transform="matrix(1.0,0.0,0.0,1.0,838.5,541.625)" opacity="1.0"><path id="ProcessOnPath1275" d="M0.0 0.0L194.984375 0.0L194.984375 38.625L0.0 38.625Z" stroke="#323232" stroke-width="2.0" stroke-dasharray="none" opacity="1.0" fill="#ffffff"/><g id="ProcessOnG1276" transform="matrix(1.0,0.0,0.0,1.0,10.0,11.1875)"><text id="ProcessOnText1277" fill="#000000" font-size="13" x="86.4921875" y="13.325" font-family="微软雅黑" font-weight="normal" font-style="normal" text-decoration="none" family="微软雅黑" text-anchor="middle" size="13">。。。同左。。。</text></g></g><g id="ProcessOnG1278"><path id="ProcessOnPath1279" d="M935.9921875 516.5L935.9921875 529.0625L935.9921875 529.0625L935.9921875 530.0625" stroke="#323232" stroke-width="2.0" stroke-dasharray="none" fill="none" marker-end="url(#ProcessOnMarker1280)"/></g><g id="ProcessOnG1282" transform="matrix(1.0,0.0,0.0,1.0,813.484375,617.25)" opacity="1.0"><path id="ProcessOnPath1283" d="M0.0 0.0L245.015625 0.0L245.015625 34.0L0.0 34.0Z" stroke="#ff3333" stroke-width="2.0" stroke-dasharray="none" opacity="1.0" fill="#ffffff"/><g id="ProcessOnG1284" transform="matrix(1.0,0.0,0.0,1.0,10.0,8.875)"><text id="ProcessOnText1285" fill="#000000" font-size="13" x="111.5078125" y="13.325" font-family="微软雅黑" font-weight="normal" font-style="normal" text-decoration="none" family="微软雅黑" text-anchor="middle" size="13">selectionKey.interestOps(OP_READ)</text></g></g><g id="ProcessOnG1286"><path id="ProcessOnPath1287" d="M935.9921875 580.25L935.9921875 598.75L935.9921875 598.75L935.9921875 602.0139320225002" stroke="#323232" stroke-width="2.0" stroke-dasharray="none" fill="none" marker-end="url(#ProcessOnMarker1288)"/></g><g id="ProcessOnG1290" transform="matrix(1.0,0.0,0.0,1.0,946.296875,114.0)" opacity="1.0"><path id="ProcessOnPath1291" d="M0.0 0.0L148.78125 0.0L164.78125 16.0L164.78125 58.0L0.0 58.0L0.0 0.0Z" stroke="none" stroke-width="0.0" stroke-dasharray="none" opacity="1.0" fill="#ffffaa"/><path id="ProcessOnPath1292" d="M148.78125 0.0L148.78125 16.0L164.78125 16.0Z" stroke="none" stroke-width="0.0" stroke-dasharray="none" opacity="1.0" fill="#cdcd78"/><path id="ProcessOnPath1293" d="M0.0 0.0L148.78125 0.0L164.78125 16.0L164.78125 58.0L0.0 58.0L0.0 0.0Z" stroke="none" stroke-width="0.0" stroke-dasharray="none" opacity="1.0" fill="none"/><g id="ProcessOnG1294" transform="matrix(1.0,0.0,0.0,1.0,10.0,20.875)"><text id="ProcessOnText1295" fill="#ff3333" font-size="13" x="71.390625" y="13.325" font-family="微软雅黑" font-weight="bold" font-style="normal" text-decoration="none" family="微软雅黑" text-anchor="middle" size="13">Client处理事件connect</text></g></g><g id="ProcessOnG1296"><path id="ProcessOnPath1297" d="M374.375 587.125L396.6875 587.125L396.6875 587.0L403.7639320225002 587.0" stroke="#323232" stroke-width="2.0" stroke-dasharray="none" fill="none" marker-end="url(#ProcessOnMarker1298)"/></g></g></g></svg>