<svg xmlns="http://www.w3.org/2000/svg" xmlns:xlink="http://www.w3.org/1999/xlink" id="processonSvg1000" viewBox="136.375 53.0 951.3125 573.5" width="951.3125" height="573.5"><defs id="ProcessOnDefs1001"><marker id="ProcessOnMarker1044" markerUnits="userSpaceOnUse" orient="auto" markerWidth="16.23606797749979" markerHeight="10.550836550532098" viewBox="-1.0 -1.3763819204711736 16.23606797749979 10.550836550532098" refX="-1.0" refY="3.8990363547948754"><path id="ProcessOnPath1045" d="M12.0 3.8990363547948754L0.0 7.798072709589751V0.0Z" stroke="#323232" stroke-width="2.0" fill="#323232" transform="matrix(1.0,0.0,0.0,1.0,0.0,0.0)"/></marker><marker id="ProcessOnMarker1048" markerUnits="userSpaceOnUse" orient="auto" markerWidth="16.23606797749979" markerHeight="10.550836550532098" viewBox="-1.0 -1.3763819204711736 16.23606797749979 10.550836550532098" refX="-1.0" refY="3.8990363547948754"><path id="ProcessOnPath1049" d="M12.0 3.8990363547948754L0.0 7.798072709589751V0.0Z" stroke="#323232" stroke-width="2.0" fill="#323232" transform="matrix(1.0,0.0,0.0,1.0,0.0,0.0)"/></marker><marker id="ProcessOnMarker1052" markerUnits="userSpaceOnUse" orient="auto" markerWidth="16.23606797749979" markerHeight="10.550836550532098" viewBox="-1.0 -1.3763819204711736 16.23606797749979 10.550836550532098" refX="-1.0" refY="3.8990363547948754"><path id="ProcessOnPath1053" d="M12.0 3.8990363547948754L0.0 7.798072709589751V0.0Z" stroke="#323232" stroke-width="2.0" fill="#323232" transform="matrix(1.0,0.0,0.0,1.0,0.0,0.0)"/></marker><marker id="ProcessOnMarker1056" markerUnits="userSpaceOnUse" orient="auto" markerWidth="16.23606797749979" markerHeight="10.550836550532098" viewBox="-1.0 -1.3763819204711736 16.23606797749979 10.550836550532098" refX="-1.0" refY="3.8990363547948754"><path id="ProcessOnPath1057" d="M12.0 3.8990363547948754L0.0 7.798072709589751V0.0Z" stroke="#323232" stroke-width="2.0" fill="#323232" transform="matrix(1.0,0.0,0.0,1.0,0.0,0.0)"/></marker><marker id="ProcessOnMarker1089" markerUnits="userSpaceOnUse" orient="auto" markerWidth="16.23606797749979" markerHeight="10.550836550532098" viewBox="-1.0 -1.3763819204711736 16.23606797749979 10.550836550532098" refX="-1.0" refY="3.8990363547948754"><path id="ProcessOnPath1090" d="M12.0 3.8990363547948754L0.0 7.798072709589751V0.0Z" stroke="#323232" stroke-width="2.0" fill="#323232" transform="matrix(1.0,0.0,0.0,1.0,0.0,0.0)"/></marker><marker id="ProcessOnMarker1093" markerUnits="userSpaceOnUse" orient="auto" markerWidth="16.23606797749979" markerHeight="10.550836550532098" viewBox="-1.0 -1.3763819204711736 16.23606797749979 10.550836550532098" refX="-1.0" refY="3.8990363547948754"><path id="ProcessOnPath1094" d="M12.0 3.8990363547948754L0.0 7.798072709589751V0.0Z" stroke="#323232" stroke-width="2.0" fill="#323232" transform="matrix(1.0,0.0,0.0,1.0,0.0,0.0)"/></marker><marker id="ProcessOnMarker1097" markerUnits="userSpaceOnUse" orient="auto" markerWidth="16.23606797749979" markerHeight="10.550836550532098" viewBox="-1.0 -1.3763819204711736 16.23606797749979 10.550836550532098" refX="-1.0" refY="3.8990363547948754"><path id="ProcessOnPath1098" d="M12.0 3.8990363547948754L0.0 7.798072709589751V0.0Z" stroke="#323232" stroke-width="2.0" fill="#323232" transform="matrix(1.0,0.0,0.0,1.0,0.0,0.0)"/></marker><marker id="ProcessOnMarker1101" markerUnits="userSpaceOnUse" orient="auto" markerWidth="16.23606797749979" markerHeight="10.550836550532098" viewBox="-1.0 -1.3763819204711736 16.23606797749979 10.550836550532098" refX="-1.0" refY="3.8990363547948754"><path id="ProcessOnPath1102" d="M12.0 3.8990363547948754L0.0 7.798072709589751V0.0Z" stroke="#323232" stroke-width="2.0" fill="#323232" transform="matrix(1.0,0.0,0.0,1.0,0.0,0.0)"/></marker><marker id="ProcessOnMarker1120" markerUnits="userSpaceOnUse" orient="auto" markerWidth="16.23606797749979" markerHeight="10.550836550532098" viewBox="-1.0 -1.3763819204711736 16.23606797749979 10.550836550532098" refX="-1.0" refY="3.8990363547948754"><path id="ProcessOnPath1121" d="M12.0 3.8990363547948754L0.0 7.798072709589751V0.0Z" stroke="#323232" stroke-width="2.0" fill="#323232" transform="matrix(1.0,0.0,0.0,1.0,0.0,0.0)"/></marker><marker id="ProcessOnMarker1124" markerUnits="userSpaceOnUse" orient="auto" markerWidth="16.23606797749979" markerHeight="10.550836550532098" viewBox="-1.0 -1.3763819204711736 16.23606797749979 10.550836550532098" refX="-1.0" refY="3.8990363547948754"><path id="ProcessOnPath1125" d="M12.0 3.8990363547948754L0.0 7.798072709589751V0.0Z" stroke="#323232" stroke-width="2.0" fill="#323232" transform="matrix(1.0,0.0,0.0,1.0,0.0,0.0)"/></marker><marker id="ProcessOnMarker1128" markerUnits="userSpaceOnUse" orient="auto" markerWidth="16.23606797749979" markerHeight="10.550836550532098" viewBox="-1.0 -1.3763819204711736 16.23606797749979 10.550836550532098" refX="-1.0" refY="3.8990363547948754"><path id="ProcessOnPath1129" d="M12.0 3.8990363547948754L0.0 7.798072709589751V0.0Z" stroke="#323232" stroke-width="2.0" fill="#323232" transform="matrix(1.0,0.0,0.0,1.0,0.0,0.0)"/></marker><marker id="ProcessOnMarker1132" markerUnits="userSpaceOnUse" orient="auto" markerWidth="16.23606797749979" markerHeight="10.550836550532098" viewBox="-1.0 -1.3763819204711736 16.23606797749979 10.550836550532098" refX="-1.0" refY="3.8990363547948754"><path id="ProcessOnPath1133" d="M12.0 3.8990363547948754L0.0 7.798072709589751V0.0Z" stroke="#323232" stroke-width="2.0" fill="#323232" transform="matrix(1.0,0.0,0.0,1.0,0.0,0.0)"/></marker><marker id="ProcessOnMarker1136" markerUnits="userSpaceOnUse" orient="auto" markerWidth="16.23606797749979" markerHeight="10.550836550532098" viewBox="-1.0 -1.3763819204711736 16.23606797749979 10.550836550532098" refX="-1.0" refY="3.8990363547948754"><path id="ProcessOnPath1137" d="M12.0 3.8990363547948754L0.0 7.798072709589751V0.0Z" stroke="#323232" stroke-width="2.0" fill="#323232" transform="matrix(1.0,0.0,0.0,1.0,0.0,0.0)"/></marker></defs><g id="ProcessOnG1002"><path id="ProcessOnPath1003" d="M136.375 53.0H1087.6875V626.5H136.375V53.0Z" fill="none"/><g id="ProcessOnG1004"><g id="ProcessOnG1005" transform="matrix(1.0,0.0,0.0,1.0,156.375,256.0)" opacity="1.0"><path id="ProcessOnPath1006" d="M0.0 0.0L230.125 0.0L230.125 350.5L0.0 350.5Z" stroke="#323232" stroke-width="2.0" stroke-dasharray="none" opacity="1.0" fill="#ffffff"/></g><g id="ProcessOnG1007" transform="matrix(1.0,0.0,0.0,1.0,175.0,292.0)" opacity="1.0"><path id="ProcessOnPath1008" d="M0.0 0.0L196.6875 0.0L196.6875 162.0L0.0 162.0Z" stroke="#ff9933" stroke-width="2.0" stroke-dasharray="2.0 3.0" opacity="1.0" fill="#ff9933"/></g><g id="ProcessOnG1009" transform="matrix(1.0,0.0,0.0,1.0,326.71875,176.25)" opacity="1.0"><path id="ProcessOnPath1010" d="M0.0 0.0L175.5625 0.0L175.5625 28.875L0.0 28.875Z" stroke="#ff3333" stroke-width="2.0" stroke-dasharray="none" opacity="1.0" fill="#ffffff"/><g id="ProcessOnG1011" transform="matrix(1.0,0.0,0.0,1.0,10.0,6.3125)"><text id="ProcessOnText1012" fill="#000000" font-size="13" x="76.78125" y="13.325" font-family="微软雅黑" font-weight="normal" font-style="normal" text-decoration="none" family="微软雅黑" text-anchor="middle" size="13">channel.writeAndFlush()</text></g></g><g id="ProcessOnG1013" transform="matrix(1.0,0.0,0.0,1.0,359.5,99.5)" opacity="1.0"><path id="ProcessOnPath1014" d="M0.0 4.0Q0.0 0.0 4.0 0.0L106.0 0.0Q110.0 0.0 110.0 4.0L110.0 29.5Q110.0 33.5 106.0 33.5L4.0 33.5Q0.0 33.5 0.0 29.5Z" stroke="#323232" stroke-width="2.0" stroke-dasharray="none" opacity="1.0" fill="#ffffff"/><g id="ProcessOnG1015" transform="matrix(1.0,0.0,0.0,1.0,10.0,8.625)"><text id="ProcessOnText1016" fill="#000000" font-size="13" x="44.0" y="13.325" font-family="微软雅黑" font-weight="normal" font-style="normal" text-decoration="none" family="微软雅黑" text-anchor="middle" size="13">外部调用</text></g></g><g id="ProcessOnG1017" transform="matrix(1.0,0.0,0.0,1.0,184.71875,301.5)" opacity="1.0"><path id="ProcessOnPath1018" d="M0.0 0.0L177.25 0.0L177.25 32.5L0.0 32.5Z" stroke="#323232" stroke-width="2.0" stroke-dasharray="none" opacity="1.0" fill="#ffffff"/><g id="ProcessOnG1019" transform="matrix(1.0,0.0,0.0,1.0,10.0,8.125)"><text id="ProcessOnText1020" fill="#000000" font-size="13" x="77.625" y="13.325" font-family="微软雅黑" font-weight="normal" font-style="normal" text-decoration="none" family="微软雅黑" text-anchor="middle" size="13">tail.write()</text></g></g><g id="ProcessOnG1021" transform="matrix(1.0,0.0,0.0,1.0,187.1875,415.0)" opacity="1.0"><path id="ProcessOnPath1022" d="M0.0 0.0L172.875 0.0L172.875 32.5L0.0 32.5Z" stroke="#323232" stroke-width="2.0" stroke-dasharray="none" opacity="1.0" fill="#ffffff"/><g id="ProcessOnG1023" transform="matrix(1.0,0.0,0.0,1.0,10.0,8.125)"><text id="ProcessOnText1024" fill="#000000" font-size="13" x="75.4375" y="13.325" font-family="微软雅黑" font-weight="normal" font-style="normal" text-decoration="none" family="微软雅黑" text-anchor="middle" size="13">head.write()</text></g></g><g id="ProcessOnG1025" transform="matrix(1.0,0.0,0.0,1.0,181.1875,357.0)" opacity="1.0"><path id="ProcessOnPath1026" d="M0.0 0.0L184.3125 0.0L184.3125 32.0L0.0 32.0Z" stroke="#323232" stroke-width="2.0" stroke-dasharray="2.0 3.0" opacity="1.0" fill="#ffffff"/><g id="ProcessOnG1027" transform="matrix(1.0,0.0,0.0,1.0,10.0,7.875)"><text id="ProcessOnText1028" fill="#000000" font-size="13" x="81.15625" y="13.325" font-family="微软雅黑" font-weight="normal" font-style="normal" text-decoration="none" family="微软雅黑" text-anchor="middle" size="13">ChannelOutBoundHandler</text></g></g><g id="ProcessOnG1029" transform="matrix(1.0,0.0,0.0,1.0,187.1875,477.0)" opacity="1.0"><path id="ProcessOnPath1030" d="M0.0 0.0L172.875 0.0L172.875 35.0L0.0 35.0Z" stroke="#323232" stroke-width="2.0" stroke-dasharray="none" opacity="1.0" fill="#ffffff"/><g id="ProcessOnG1031" transform="matrix(1.0,0.0,0.0,1.0,10.0,9.375)"><text id="ProcessOnText1032" fill="#000000" font-size="13" x="75.4375" y="13.325" font-family="微软雅黑" font-weight="normal" font-style="normal" text-decoration="none" family="微软雅黑" text-anchor="middle" size="13">unsafe.write()</text></g></g><g id="ProcessOnG1033" transform="matrix(1.0,0.0,0.0,1.0,187.1875,540.0)" opacity="1.0"><path id="ProcessOnPath1034" d="M0.0 0.0L172.3125 0.0L172.3125 37.0L0.0 37.0Z" stroke="#ff3333" stroke-width="2.0" stroke-dasharray="none" opacity="1.0" fill="#ffffff"/><g id="ProcessOnG1035" transform="matrix(1.0,0.0,0.0,1.0,10.0,2.25)"><text id="ProcessOnText1036" fill="#000000" font-size="13" x="75.15625" y="13.325" font-family="微软雅黑" font-weight="normal" font-style="normal" text-decoration="none" family="微软雅黑" text-anchor="middle" size="13">channelOutboundBuffer</text><text id="ProcessOnText1037" fill="#000000" font-size="13" x="75.15625" y="29.575" font-family="微软雅黑" font-weight="normal" font-style="normal" text-decoration="none" family="微软雅黑" text-anchor="middle" size="13">.addMessage(msg)</text></g></g><g id="ProcessOnG1038" transform="matrix(1.0,0.0,0.0,1.0,225.34375,260.0)" opacity="1.0"><path id="ProcessOnPath1039" d="M0.0 0.0L96.0 0.0L96.0 20.0L0.0 20.0Z" stroke="none" stroke-width="0.0" stroke-dasharray="none" opacity="1.0" fill="none"/><g id="ProcessOnG1040" transform="matrix(1.0,0.0,0.0,1.0,0.0,1.875)"><text id="ProcessOnText1041" fill="#ff3333" font-size="13" x="47.0" y="13.325" font-family="微软雅黑" font-weight="bold" font-style="normal" text-decoration="none" family="微软雅黑" text-anchor="middle" size="13">invokeWrite0()</text></g></g><g id="ProcessOnG1042"><path id="ProcessOnPath1043" d="M273.34375 334.0L273.34375 345.5L273.34375 345.5L273.34375 346.5" stroke="#323232" stroke-width="2.0" stroke-dasharray="2.0 3.0" fill="none" marker-end="url(#ProcessOnMarker1044)"/></g><g id="ProcessOnG1046"><path id="ProcessOnPath1047" d="M273.34375 389.0L273.34375 402.0L273.625 402.0L273.625 403.0" stroke="#323232" stroke-width="2.0" stroke-dasharray="2.0 3.0" fill="none" marker-end="url(#ProcessOnMarker1048)"/></g><g id="ProcessOnG1050"><path id="ProcessOnPath1051" d="M273.625 447.5L273.625 462.25L273.625 462.25L273.625 463.25" stroke="#323232" stroke-width="2.0" stroke-dasharray="none" fill="none" marker-end="url(#ProcessOnMarker1052)"/></g><g id="ProcessOnG1054"><path id="ProcessOnPath1055" d="M273.625 512.0L273.625 526.0L273.34375 526.0L273.34375 527.0" stroke="#323232" stroke-width="2.0" stroke-dasharray="none" fill="none" marker-end="url(#ProcessOnMarker1056)"/></g><g id="ProcessOnG1058" transform="matrix(1.0,0.0,0.0,1.0,436.375,256.0)" opacity="1.0"><path id="ProcessOnPath1059" d="M0.0 0.0L230.125 0.0L230.125 350.5L0.0 350.5Z" stroke="#323232" stroke-width="2.0" stroke-dasharray="none" opacity="1.0" fill="#ffffff"/></g><g id="ProcessOnG1060" transform="matrix(1.0,0.0,0.0,1.0,452.84375,295.0)" opacity="1.0"><path id="ProcessOnPath1061" d="M0.0 0.0L201.0 0.0L201.0 162.0L0.0 162.0Z" stroke="#ff9933" stroke-width="2.0" stroke-dasharray="2.0 3.0" opacity="1.0" fill="#ff9933"/></g><g id="ProcessOnG1062" transform="matrix(1.0,0.0,0.0,1.0,464.71875,301.5)" opacity="1.0"><path id="ProcessOnPath1063" d="M0.0 0.0L177.25 0.0L177.25 32.5L0.0 32.5Z" stroke="#323232" stroke-width="2.0" stroke-dasharray="none" opacity="1.0" fill="#ffffff"/><g id="ProcessOnG1064" transform="matrix(1.0,0.0,0.0,1.0,10.0,8.125)"><text id="ProcessOnText1065" fill="#000000" font-size="13" x="77.625" y="13.325" font-family="微软雅黑" font-weight="normal" font-style="normal" text-decoration="none" family="微软雅黑" text-anchor="middle" size="13">tail.flush()</text></g></g><g id="ProcessOnG1066" transform="matrix(1.0,0.0,0.0,1.0,467.1875,415.0)" opacity="1.0"><path id="ProcessOnPath1067" d="M0.0 0.0L172.875 0.0L172.875 32.5L0.0 32.5Z" stroke="#323232" stroke-width="2.0" stroke-dasharray="none" opacity="1.0" fill="#ffffff"/><g id="ProcessOnG1068" transform="matrix(1.0,0.0,0.0,1.0,10.0,8.125)"><text id="ProcessOnText1069" fill="#000000" font-size="13" x="75.4375" y="13.325" font-family="微软雅黑" font-weight="normal" font-style="normal" text-decoration="none" family="微软雅黑" text-anchor="middle" size="13">head.flush()</text></g></g><g id="ProcessOnG1070" transform="matrix(1.0,0.0,0.0,1.0,461.1875,357.0)" opacity="1.0"><path id="ProcessOnPath1071" d="M0.0 0.0L184.875 0.0L184.875 32.0L0.0 32.0Z" stroke="#323232" stroke-width="2.0" stroke-dasharray="2.0 3.0" opacity="1.0" fill="#ffffff"/><g id="ProcessOnG1072" transform="matrix(1.0,0.0,0.0,1.0,10.0,7.875)"><text id="ProcessOnText1073" fill="#000000" font-size="13" x="81.4375" y="13.325" font-family="微软雅黑" font-weight="normal" font-style="normal" text-decoration="none" family="微软雅黑" text-anchor="middle" size="13">ChannelOutBoundHandler</text></g></g><g id="ProcessOnG1074" transform="matrix(1.0,0.0,0.0,1.0,467.1875,477.0)" opacity="1.0"><path id="ProcessOnPath1075" d="M0.0 0.0L172.875 0.0L172.875 35.0L0.0 35.0Z" stroke="#323232" stroke-width="2.0" stroke-dasharray="none" opacity="1.0" fill="#ffffff"/><g id="ProcessOnG1076" transform="matrix(1.0,0.0,0.0,1.0,10.0,9.375)"><text id="ProcessOnText1077" fill="#000000" font-size="13" x="75.4375" y="13.325" font-family="微软雅黑" font-weight="normal" font-style="normal" text-decoration="none" family="微软雅黑" text-anchor="middle" size="13">unsafe.flush()</text></g></g><g id="ProcessOnG1078" transform="matrix(1.0,0.0,0.0,1.0,452.84375,540.0)" opacity="1.0"><path id="ProcessOnPath1079" d="M0.0 0.0L201.0 0.0L201.0 50.0L0.0 50.0Z" stroke="#ff3333" stroke-width="2.0" stroke-dasharray="none" opacity="1.0" fill="#ffffff"/><g id="ProcessOnG1080" transform="matrix(1.0,0.0,0.0,1.0,10.0,8.75)"><text id="ProcessOnText1081" fill="#000000" font-size="13" x="89.5" y="13.325" font-family="微软雅黑" font-weight="normal" font-style="normal" text-decoration="none" family="微软雅黑" text-anchor="middle" size="13">1.buf.readBytes(javaChannel)</text><text id="ProcessOnText1082" fill="#000000" font-size="13" x="89.5" y="29.575" font-family="微软雅黑" font-weight="normal" font-style="normal" text-decoration="none" family="微软雅黑" text-anchor="middle" size="13">2.key.interestOps(OP_WRITE)</text></g></g><g id="ProcessOnG1083" transform="matrix(1.0,0.0,0.0,1.0,505.34375,260.0)" opacity="1.0"><path id="ProcessOnPath1084" d="M0.0 0.0L96.0 0.0L96.0 20.0L0.0 20.0Z" stroke="none" stroke-width="0.0" stroke-dasharray="none" opacity="1.0" fill="none"/><g id="ProcessOnG1085" transform="matrix(1.0,0.0,0.0,1.0,0.0,1.875)"><text id="ProcessOnText1086" fill="#ff3333" font-size="13" x="47.0" y="13.325" font-family="微软雅黑" font-weight="bold" font-style="normal" text-decoration="none" family="微软雅黑" text-anchor="middle" size="13">invokeFlush0()</text></g></g><g id="ProcessOnG1087"><path id="ProcessOnPath1088" d="M553.34375 334.0L553.34375 345.5L553.625 345.5L553.625 346.5" stroke="#323232" stroke-width="2.0" stroke-dasharray="2.0 3.0" fill="none" marker-end="url(#ProcessOnMarker1089)"/></g><g id="ProcessOnG1091"><path id="ProcessOnPath1092" d="M553.625 389.0L553.625 402.0L553.625 402.0L553.625 403.0" stroke="#323232" stroke-width="2.0" stroke-dasharray="2.0 3.0" fill="none" marker-end="url(#ProcessOnMarker1093)"/></g><g id="ProcessOnG1095"><path id="ProcessOnPath1096" d="M553.625 447.5L553.625 462.25L553.625 462.25L553.625 463.25" stroke="#323232" stroke-width="2.0" stroke-dasharray="none" fill="none" marker-end="url(#ProcessOnMarker1097)"/></g><g id="ProcessOnG1099"><path id="ProcessOnPath1100" d="M553.625 512.0L553.625 526.0L553.34375 526.0L553.34375 527.0" stroke="#323232" stroke-width="2.0" stroke-dasharray="none" fill="none" marker-end="url(#ProcessOnMarker1101)"/></g><g id="ProcessOnG1103" transform="matrix(1.0,0.0,0.0,1.0,804.03125,171.375)" opacity="1.0"><path id="ProcessOnPath1104" d="M0.0 4.0Q0.0 0.0 4.0 0.0L137.875 0.0Q141.875 0.0 141.875 4.0L141.875 34.625Q141.875 38.625 137.875 38.625L4.0 38.625Q0.0 38.625 0.0 34.625Z" stroke="#ff3333" stroke-width="2.0" stroke-dasharray="none" opacity="1.0" fill="#ffffff"/><g id="ProcessOnG1105" transform="matrix(1.0,0.0,0.0,1.0,10.0,3.0625)"><text id="ProcessOnText1106" fill="#000000" font-size="13" x="59.9375" y="13.325" font-family="微软雅黑" font-weight="normal" font-style="normal" text-decoration="none" family="微软雅黑" text-anchor="middle" size="13">NioEventLoop</text><text id="ProcessOnText1107" fill="#000000" font-size="13" x="59.9375" y="29.575" font-family="微软雅黑" font-weight="normal" font-style="normal" text-decoration="none" family="微软雅黑" text-anchor="middle" size="13">线程监听OP_WRITE</text></g></g><g id="ProcessOnG1108" transform="matrix(1.0,0.0,0.0,1.0,802.5,263.0)" opacity="1.0"><path id="ProcessOnPath1109" d="M0.0 0.0L144.9375 0.0L144.9375 42.0L0.0 42.0Z" stroke="#323232" stroke-width="2.0" stroke-dasharray="none" opacity="1.0" fill="#ffffff"/><g id="ProcessOnG1110" transform="matrix(1.0,0.0,0.0,1.0,10.0,4.75)"><text id="ProcessOnText1111" fill="#000000" font-size="13" x="61.46875" y="13.325" font-family="微软雅黑" font-weight="normal" font-style="normal" text-decoration="none" family="微软雅黑" text-anchor="middle" size="13">unsafe.forceFlush()</text><text id="ProcessOnText1112" fill="#000000" font-size="13" x="61.46875" y="29.575" font-family="微软雅黑" font-weight="normal" font-style="normal" text-decoration="none" family="微软雅黑" text-anchor="middle" size="13">(NioByteUnsafe)</text></g></g><g id="ProcessOnG1113" transform="matrix(1.0,0.0,0.0,1.0,781.46875,365.0)" opacity="1.0"><path id="ProcessOnPath1114" d="M0.0 0.0L211.53125 0.0L211.53125 50.0L0.0 50.0Z" stroke="#ff3333" stroke-width="2.0" stroke-dasharray="none" opacity="1.0" fill="#ffffff"/><g id="ProcessOnG1115" transform="matrix(1.0,0.0,0.0,1.0,10.0,8.75)"><text id="ProcessOnText1116" fill="#000000" font-size="13" x="94.765625" y="13.325" font-family="微软雅黑" font-weight="normal" font-style="normal" text-decoration="none" family="微软雅黑" text-anchor="middle" size="13">1.buf.readBytes(javaChannel)</text><text id="ProcessOnText1117" fill="#000000" font-size="13" x="94.765625" y="29.575" font-family="微软雅黑" font-weight="normal" font-style="normal" text-decoration="none" family="微软雅黑" text-anchor="middle" size="13">2.key.interestOps(OP_WRITE)</text></g></g><g id="ProcessOnG1118"><path id="ProcessOnPath1119" d="M414.5 133.0L414.5 154.625L414.5 154.625L414.5 161.0139320225002" stroke="#323232" stroke-width="2.0" stroke-dasharray="none" fill="none" marker-end="url(#ProcessOnMarker1120)"/></g><g id="ProcessOnG1122"><path id="ProcessOnPath1123" d="M414.5 205.125L414.5 230.5625L271.4375 230.5625L271.4375 240.7639320225002" stroke="#323232" stroke-width="2.0" stroke-dasharray="none" fill="none" marker-end="url(#ProcessOnMarker1124)"/></g><g id="ProcessOnG1126"><path id="ProcessOnPath1127" d="M386.5 431.25L411.4375 431.25L411.4375 431.25L421.1389320225002 431.25" stroke="#323232" stroke-width="2.0" stroke-dasharray="none" fill="none" marker-end="url(#ProcessOnMarker1128)"/></g><g id="ProcessOnG1130"><path id="ProcessOnPath1131" d="M874.96875 210.0L874.96875 236.5L874.96875 236.5L874.96875 247.7639320225002" stroke="#323232" stroke-width="2.0" stroke-dasharray="none" fill="none" marker-end="url(#ProcessOnMarker1132)"/></g><g id="ProcessOnG1134"><path id="ProcessOnPath1135" d="M874.96875 305.0L874.96875 335.0L874.6385309779229 335.0L874.6385309779229 349.7639320225002" stroke="#323232" stroke-width="2.0" stroke-dasharray="none" fill="none" marker-end="url(#ProcessOnMarker1136)"/></g><g id="ProcessOnG1138" transform="matrix(1.0,0.0,0.0,1.0,494.0625,73.0)" opacity="1.0"><path id="ProcessOnPath1139" d="M0.0 0.0L134.625 0.0L150.625 16.0L150.625 63.0L0.0 63.0L0.0 0.0Z" stroke="none" stroke-width="0.0" stroke-dasharray="none" opacity="1.0" fill="#ffffaa"/><path id="ProcessOnPath1140" d="M134.625 0.0L134.625 16.0L150.625 16.0Z" stroke="none" stroke-width="0.0" stroke-dasharray="none" opacity="1.0" fill="#cdcd78"/><path id="ProcessOnPath1141" d="M0.0 0.0L134.625 0.0L150.625 16.0L150.625 63.0L0.0 63.0L0.0 0.0Z" stroke="none" stroke-width="0.0" stroke-dasharray="none" opacity="1.0" fill="none"/><g id="ProcessOnG1142" transform="matrix(1.0,0.0,0.0,1.0,10.0,23.375)"><text id="ProcessOnText1143" fill="#ff3333" font-size="13" x="64.3125" y="13.325" font-family="微软雅黑" font-weight="bold" font-style="normal" text-decoration="none" family="微软雅黑" text-anchor="middle" size="13">C/S写数据write</text></g></g><g id="ProcessOnG1144" transform="matrix(1.0,0.0,0.0,1.0,917.0625,87.0)" opacity="1.0"><path id="ProcessOnPath1145" d="M0.0 0.0L134.625 0.0L150.625 16.0L150.625 63.0L0.0 63.0L0.0 0.0Z" stroke="none" stroke-width="0.0" stroke-dasharray="none" opacity="1.0" fill="#ffffaa"/><path id="ProcessOnPath1146" d="M134.625 0.0L134.625 16.0L150.625 16.0Z" stroke="none" stroke-width="0.0" stroke-dasharray="none" opacity="1.0" fill="#cdcd78"/><path id="ProcessOnPath1147" d="M0.0 0.0L134.625 0.0L150.625 16.0L150.625 63.0L0.0 63.0L0.0 0.0Z" stroke="none" stroke-width="0.0" stroke-dasharray="none" opacity="1.0" fill="none"/><g id="ProcessOnG1148" transform="matrix(1.0,0.0,0.0,1.0,10.0,23.375)"><text id="ProcessOnText1149" fill="#ff3333" font-size="13" x="64.3125" y="13.325" font-family="微软雅黑" font-weight="bold" font-style="normal" text-decoration="none" family="微软雅黑" text-anchor="middle" size="13">C/S处理写事件write</text></g></g></g></g></svg>