<svg xmlns="http://www.w3.org/2000/svg" xmlns:xlink="http://www.w3.org/1999/xlink" id="processonSvg1000" viewBox="40.0 46.5 961.0 733.0" width="961.0" height="733.0"><defs id="ProcessOnDefs1001"><marker id="ProcessOnMarker1045" markerUnits="userSpaceOnUse" orient="auto" markerWidth="16.23606797749979" markerHeight="10.550836550532098" viewBox="-1.0 -1.3763819204711736 16.23606797749979 10.550836550532098" refX="-1.0" refY="3.8990363547948754"><path id="ProcessOnPath1046" d="M12.0 3.8990363547948754L0.0 7.798072709589751V0.0Z" stroke="#323232" stroke-width="2.0" fill="#323232" transform="matrix(1.0,0.0,0.0,1.0,0.0,0.0)"/></marker><marker id="ProcessOnMarker1052" markerUnits="userSpaceOnUse" orient="auto" markerWidth="16.23606797749979" markerHeight="10.550836550532098" viewBox="-1.0 -1.3763819204711736 16.23606797749979 10.550836550532098" refX="-1.0" refY="3.8990363547948754"><path id="ProcessOnPath1053" d="M12.0 3.8990363547948754L0.0 7.798072709589751V0.0Z" stroke="#323232" stroke-width="2.0" fill="#323232" transform="matrix(1.0,0.0,0.0,1.0,0.0,0.0)"/></marker><marker id="ProcessOnMarker1086" markerUnits="userSpaceOnUse" orient="auto" markerWidth="16.23606797749979" markerHeight="10.550836550532098" viewBox="-1.0 -1.3763819204711736 16.23606797749979 10.550836550532098" refX="-1.0" refY="3.8990363547948754"><path id="ProcessOnPath1087" d="M12.0 3.8990363547948754L0.0 7.798072709589751V0.0Z" stroke="#323232" stroke-width="2.0" fill="#323232" transform="matrix(1.0,0.0,0.0,1.0,0.0,0.0)"/></marker><marker id="ProcessOnMarker1112" markerUnits="userSpaceOnUse" orient="auto" markerWidth="16.23606797749979" markerHeight="10.550836550532098" viewBox="-1.0 -1.3763819204711736 16.23606797749979 10.550836550532098" refX="-1.0" refY="3.8990363547948754"><path id="ProcessOnPath1113" d="M12.0 3.8990363547948754L0.0 7.798072709589751V0.0Z" stroke="#323232" stroke-width="2.0" fill="#323232" transform="matrix(1.0,0.0,0.0,1.0,0.0,0.0)"/></marker><marker id="ProcessOnMarker1116" markerUnits="userSpaceOnUse" orient="auto" markerWidth="16.23606797749979" markerHeight="10.550836550532098" viewBox="-1.0 -1.3763819204711736 16.23606797749979 10.550836550532098" refX="-1.0" refY="3.8990363547948754"><path id="ProcessOnPath1117" d="M12.0 3.8990363547948754L0.0 7.798072709589751V0.0Z" stroke="#323232" stroke-width="2.0" fill="#323232" transform="matrix(1.0,0.0,0.0,1.0,0.0,0.0)"/></marker><marker id="ProcessOnMarker1120" markerUnits="userSpaceOnUse" orient="auto" markerWidth="16.23606797749979" markerHeight="10.550836550532098" viewBox="-1.0 -1.3763819204711736 16.23606797749979 10.550836550532098" refX="-1.0" refY="3.8990363547948754"><path id="ProcessOnPath1121" d="M12.0 3.8990363547948754L0.0 7.798072709589751V0.0Z" stroke="#323232" stroke-width="2.0" fill="#323232" transform="matrix(1.0,0.0,0.0,1.0,0.0,0.0)"/></marker><marker id="ProcessOnMarker1124" markerUnits="userSpaceOnUse" orient="auto" markerWidth="16.23606797749979" markerHeight="10.550836550532098" viewBox="-1.0 -1.3763819204711736 16.23606797749979 10.550836550532098" refX="-1.0" refY="3.8990363547948754"><path id="ProcessOnPath1125" d="M12.0 3.8990363547948754L0.0 7.798072709589751V0.0Z" stroke="#323232" stroke-width="2.0" fill="#323232" transform="matrix(1.0,0.0,0.0,1.0,0.0,0.0)"/></marker><marker id="ProcessOnMarker1128" markerUnits="userSpaceOnUse" orient="auto" markerWidth="16.23606797749979" markerHeight="10.550836550532098" viewBox="-1.0 -1.3763819204711736 16.23606797749979 10.550836550532098" refX="-1.0" refY="3.8990363547948754"><path id="ProcessOnPath1129" d="M12.0 3.8990363547948754L0.0 7.798072709589751V0.0Z" stroke="#323232" stroke-width="2.0" fill="#323232" transform="matrix(1.0,0.0,0.0,1.0,0.0,0.0)"/></marker><marker id="ProcessOnMarker1132" markerUnits="userSpaceOnUse" orient="auto" markerWidth="16.23606797749979" markerHeight="10.550836550532098" viewBox="-1.0 -1.3763819204711736 16.23606797749979 10.550836550532098" refX="-1.0" refY="3.8990363547948754"><path id="ProcessOnPath1133" d="M12.0 3.8990363547948754L0.0 7.798072709589751V0.0Z" stroke="#323232" stroke-width="2.0" fill="#323232" transform="matrix(1.0,0.0,0.0,1.0,0.0,0.0)"/></marker><marker id="ProcessOnMarker1145" markerUnits="userSpaceOnUse" orient="auto" markerWidth="16.23606797749979" markerHeight="10.550836550532098" viewBox="-1.0 -1.3763819204711736 16.23606797749979 10.550836550532098" refX="-1.0" refY="3.8990363547948754"><path id="ProcessOnPath1146" d="M12.0 3.8990363547948754L0.0 7.798072709589751V0.0Z" stroke="#323232" stroke-width="2.0" fill="#323232" transform="matrix(1.0,0.0,0.0,1.0,0.0,0.0)"/></marker><marker id="ProcessOnMarker1149" markerUnits="userSpaceOnUse" orient="auto" markerWidth="16.23606797749979" markerHeight="10.550836550532098" viewBox="-1.0 -1.3763819204711736 16.23606797749979 10.550836550532098" refX="-1.0" refY="3.8990363547948754"><path id="ProcessOnPath1150" d="M12.0 3.8990363547948754L0.0 7.798072709589751V0.0Z" stroke="#323232" stroke-width="2.0" fill="#323232" transform="matrix(1.0,0.0,0.0,1.0,0.0,0.0)"/></marker><marker id="ProcessOnMarker1161" markerUnits="userSpaceOnUse" orient="auto" markerWidth="16.23606797749979" markerHeight="10.550836550532098" viewBox="-1.0 -1.3763819204711736 16.23606797749979 10.550836550532098" refX="-1.0" refY="3.8990363547948754"><path id="ProcessOnPath1162" d="M12.0 3.8990363547948754L0.0 7.798072709589751V0.0Z" stroke="#323232" stroke-width="2.0" fill="#323232" transform="matrix(1.0,0.0,0.0,1.0,0.0,0.0)"/></marker><marker id="ProcessOnMarker1169" markerUnits="userSpaceOnUse" orient="auto" markerWidth="16.23606797749979" markerHeight="10.550836550532098" viewBox="-1.0 -1.3763819204711736 16.23606797749979 10.550836550532098" refX="-1.0" refY="3.8990363547948754"><path id="ProcessOnPath1170" d="M12.0 3.8990363547948754L0.0 7.798072709589751V0.0Z" stroke="#323232" stroke-width="2.0" fill="#323232" transform="matrix(1.0,0.0,0.0,1.0,0.0,0.0)"/></marker><marker id="ProcessOnMarker1173" markerUnits="userSpaceOnUse" orient="auto" markerWidth="16.23606797749979" markerHeight="10.550836550532098" viewBox="-1.0 -1.3763819204711736 16.23606797749979 10.550836550532098" refX="-1.0" refY="3.8990363547948754"><path id="ProcessOnPath1174" d="M12.0 3.8990363547948754L0.0 7.798072709589751V0.0Z" stroke="#323232" stroke-width="2.0" fill="#323232" transform="matrix(1.0,0.0,0.0,1.0,0.0,0.0)"/></marker></defs><g id="ProcessOnG1002"><path id="ProcessOnPath1003" d="M40.0 46.5H1001.0V779.5H40.0V46.5Z" fill="none"/><g id="ProcessOnG1004"><g id="ProcessOnG1005" transform="matrix(1.0,0.0,0.0,1.0,288.0,66.5)" opacity="1.0"><path id="ProcessOnPath1006" d="M0.0 0.0L268.0 0.0L268.0 235.0L0.0 235.0Z" stroke="#323232" stroke-width="2.0" stroke-dasharray="none" opacity="1.0" fill="#ccccff"/></g><g id="ProcessOnG1007" transform="matrix(1.0,0.0,0.0,1.0,336.5,118.5)" opacity="1.0"><path id="ProcessOnPath1008" d="M0.0 0.0L162.5 0.0L162.5 62.0L0.0 62.0Z" stroke="#323232" stroke-width="2.0" stroke-dasharray="none" opacity="1.0" fill="#ffcccc"/></g><g id="ProcessOnG1009" transform="matrix(1.0,0.0,0.0,1.0,377.5,149.5)" opacity="1.0"><path id="ProcessOnPath1010" d="M0.0 0.0L80.5 0.0L80.5 26.0L0.0 26.0Z" stroke="#323232" stroke-width="2.0" stroke-dasharray="none" opacity="1.0" fill="#ffe6cc"/><g id="ProcessOnG1011" transform="matrix(1.0,0.0,0.0,1.0,10.0,4.875)"><text id="ProcessOnText1012" fill="#000000" font-size="13" x="29.25" y="13.325" font-family="微软雅黑" font-weight="normal" font-style="normal" text-decoration="none" family="微软雅黑" text-anchor="middle" size="13">Selector</text></g></g><g id="ProcessOnG1013" transform="matrix(1.0,0.0,0.0,1.0,377.5,121.5)" opacity="1.0"><path id="ProcessOnPath1014" d="M0.0 0.0L89.0 0.0L89.0 20.0L0.0 20.0Z" stroke="none" stroke-width="0.0" stroke-dasharray="none" opacity="1.0" fill="none"/><g id="ProcessOnG1015" transform="matrix(1.0,0.0,0.0,1.0,0.0,1.875)"><text id="ProcessOnText1016" fill="#000000" font-size="13" x="43.5" y="13.325" font-family="微软雅黑" font-weight="normal" font-style="normal" text-decoration="none" family="微软雅黑" text-anchor="middle" size="13">NioEventLoop</text></g></g><g id="ProcessOnG1017" transform="matrix(1.0,0.0,0.0,1.0,356.25,82.5)" opacity="1.0"><path id="ProcessOnPath1018" d="M0.0 0.0L131.5 0.0L131.5 20.0L0.0 20.0Z" stroke="none" stroke-width="0.0" stroke-dasharray="none" opacity="1.0" fill="none"/><g id="ProcessOnG1019" transform="matrix(1.0,0.0,0.0,1.0,0.0,1.875)"><text id="ProcessOnText1020" fill="#ff3333" font-size="13" x="64.75" y="13.325" font-family="微软雅黑" font-weight="bold" font-style="normal" text-decoration="none" family="微软雅黑" text-anchor="middle" size="13">NioEventLoopGroup</text></g></g><g id="ProcessOnG1021" transform="matrix(1.0,0.0,0.0,1.0,336.5,223.5)" opacity="1.0"><path id="ProcessOnPath1022" d="M0.0 0.0L162.5 0.0L162.5 62.0L0.0 62.0Z" stroke="#323232" stroke-width="2.0" stroke-dasharray="none" opacity="1.0" fill="#ffcccc"/></g><g id="ProcessOnG1023" transform="matrix(1.0,0.0,0.0,1.0,377.5,254.5)" opacity="1.0"><path id="ProcessOnPath1024" d="M0.0 0.0L80.5 0.0L80.5 26.0L0.0 26.0Z" stroke="#323232" stroke-width="2.0" stroke-dasharray="none" opacity="1.0" fill="#ffe6cc"/><g id="ProcessOnG1025" transform="matrix(1.0,0.0,0.0,1.0,10.0,4.875)"><text id="ProcessOnText1026" fill="#000000" font-size="13" x="29.25" y="13.325" font-family="微软雅黑" font-weight="normal" font-style="normal" text-decoration="none" family="微软雅黑" text-anchor="middle" size="13">Selector</text></g></g><g id="ProcessOnG1027" transform="matrix(1.0,0.0,0.0,1.0,377.5,226.5)" opacity="1.0"><path id="ProcessOnPath1028" d="M0.0 0.0L89.0 0.0L89.0 20.0L0.0 20.0Z" stroke="none" stroke-width="0.0" stroke-dasharray="none" opacity="1.0" fill="none"/><g id="ProcessOnG1029" transform="matrix(1.0,0.0,0.0,1.0,0.0,1.875)"><text id="ProcessOnText1030" fill="#000000" font-size="13" x="43.5" y="13.325" font-family="微软雅黑" font-weight="normal" font-style="normal" text-decoration="none" family="微软雅黑" text-anchor="middle" size="13">NioEventLoop</text></g></g><g id="ProcessOnG1031" transform="matrix(1.0,0.0,0.0,1.0,384.75,188.5)" opacity="1.0"><path id="ProcessOnPath1032" d="M0.0 0.0L66.0 0.0L66.0 20.0L0.0 20.0Z" stroke="none" stroke-width="0.0" stroke-dasharray="none" opacity="1.0" fill="none"/><g id="ProcessOnG1033" transform="matrix(1.0,0.0,0.0,1.0,0.0,0.625)"><text id="ProcessOnText1034" fill="#000000" font-size="15" x="32.0" y="15.375" font-family="微软雅黑" font-weight="bold" font-style="normal" text-decoration="none" family="微软雅黑" text-anchor="middle" size="15">......</text></g></g><g id="ProcessOnG1035" transform="matrix(1.0,0.0,0.0,1.0,75.0,130.5)" opacity="1.0"><path id="ProcessOnPath1036" d="M0.0 4.0Q0.0 0.0 4.0 0.0L147.0 0.0Q151.0 0.0 151.0 4.0L151.0 32.0Q151.0 36.0 147.0 36.0L4.0 36.0Q0.0 36.0 0.0 32.0Z" stroke="#323232" stroke-width="2.0" stroke-dasharray="none" opacity="1.0" fill="#ffffff"/><g id="ProcessOnG1037" transform="matrix(1.0,0.0,0.0,1.0,10.0,9.875)"><text id="ProcessOnText1038" fill="#000000" font-size="13" x="64.5" y="13.325" font-family="微软雅黑" font-weight="normal" font-style="normal" text-decoration="none" family="微软雅黑" text-anchor="middle" size="13">Bootstrap.connect</text></g></g><g id="ProcessOnG1039" transform="matrix(1.0,0.0,0.0,1.0,60.0,235.5)" opacity="1.0"><path id="ProcessOnPath1040" d="M0.0 4.0Q0.0 0.0 4.0 0.0L175.5 0.0Q179.5 0.0 179.5 4.0L179.5 30.0Q179.5 34.0 175.5 34.0L4.0 34.0Q0.0 34.0 0.0 30.0Z" stroke="#323232" stroke-width="2.0" stroke-dasharray="none" opacity="1.0" fill="#3399ff"/><g id="ProcessOnG1041" transform="matrix(1.0,0.0,0.0,1.0,10.0,8.875)"><text id="ProcessOnText1042" fill="#000000" font-size="13" x="78.75" y="13.325" font-family="微软雅黑" font-weight="normal" font-style="normal" text-decoration="none" family="微软雅黑" text-anchor="middle" size="13">NioSocketChannel</text></g></g><g id="ProcessOnG1043"><path id="ProcessOnPath1044" d="M150.5 166.5L150.5 201.0L149.75 201.0L149.75 220.2639320225002" stroke="#323232" stroke-width="2.0" stroke-dasharray="none" fill="none" marker-end="url(#ProcessOnMarker1045)"/><g id="ProcessOnG1047" transform="matrix(1.0,0.0,0.0,1.0,150.5,185.63196601125009)"><path id="ProcessOnPath1048" d="M0 0H50.0V16.25H0Z" fill="#fff" transform="matrix(1.0,0.0,0.0,1.0,-25.0,0.0)"/><text id="ProcessOnText1049" fill="#3333ff" font-size="13" x="0.0" y="13.325" font-family="微软雅黑" font-weight="normal" font-style="normal" text-decoration="none" family="微软雅黑" text-anchor="middle" size="13">1.初始化</text></g></g><g id="ProcessOnG1050"><path id="ProcessOnPath1051" d="M239.5 252.5L283.25 252.5L283.25 251.5L311.7639320225002 251.5" stroke="#323232" stroke-width="2.0" stroke-dasharray="none" fill="none" marker-end="url(#ProcessOnMarker1052)"/></g><g id="ProcessOnG1054" transform="matrix(1.0,0.0,0.0,1.0,190.0,269.5)" opacity="1.0"><path id="ProcessOnPath1055" d="M0.0 0.0L150.0 0.0L150.0 21.0L0.0 21.0Z" stroke="none" stroke-width="0.0" stroke-dasharray="none" opacity="1.0" fill="none"/><g id="ProcessOnG1056" transform="matrix(1.0,0.0,0.0,1.0,0.0,-5.75)"><text id="ProcessOnText1057" fill="#3333ff" font-size="13" x="74.0" y="13.325" font-family="微软雅黑" font-weight="normal" font-style="normal" text-decoration="none" family="微软雅黑" text-anchor="middle" size="13">2.注册Channel到Selecto</text><text id="ProcessOnText1058" fill="#3333ff" font-size="13" x="74.0" y="29.575" font-family="微软雅黑" font-weight="normal" font-style="normal" text-decoration="none" family="微软雅黑" text-anchor="middle" size="13">r</text></g></g><g id="ProcessOnG1059" transform="matrix(1.0,0.0,0.0,1.0,347.0,381.5)" opacity="1.0"><path id="ProcessOnPath1060" d="M0.0 80.0C0.0 -26.666666666666668 160.0 -26.666666666666668 160.0 80.0C160.0 186.66666666666666 0.0 186.66666666666666 0.0 80.0Z" stroke="#323232" stroke-width="2.0" stroke-dasharray="none" opacity="1.0" fill="#ffffff"/></g><g id="ProcessOnG1061" transform="matrix(1.0,0.0,0.0,1.0,429.0,450.0)" opacity="1.0"><path id="ProcessOnPath1062" d="M0.0 0.0L160.0 0.0L160.0 36.5L0.0 36.5Z" stroke="#323232" stroke-width="2.0" stroke-dasharray="none" opacity="1.0" fill="#ffffff"/><g id="ProcessOnG1063" transform="matrix(1.0,0.0,0.0,1.0,10.0,2.0)"><text id="ProcessOnText1064" fill="#000000" font-size="13" x="69.0" y="13.325" font-family="微软雅黑" font-weight="normal" font-style="normal" text-decoration="none" family="微软雅黑" text-anchor="middle" size="13">step2:</text><text id="ProcessOnText1065" fill="#000000" font-size="13" x="69.0" y="29.575" font-family="微软雅黑" font-weight="normal" font-style="normal" text-decoration="none" family="微软雅黑" text-anchor="middle" size="13">processSelectedKeys</text></g></g><g id="ProcessOnG1066" transform="matrix(1.0,0.0,0.0,1.0,299.0,450.0)" opacity="1.0"><path id="ProcessOnPath1067" d="M0.0 0.0L97.0 0.0L97.0 36.5L0.0 36.5Z" stroke="#323232" stroke-width="2.0" stroke-dasharray="none" opacity="1.0" fill="#ffffff"/><g id="ProcessOnG1068" transform="matrix(1.0,0.0,0.0,1.0,10.0,2.0)"><text id="ProcessOnText1069" fill="#000000" font-size="13" x="37.5" y="13.325" font-family="微软雅黑" font-weight="normal" font-style="normal" text-decoration="none" family="微软雅黑" text-anchor="middle" size="13">step3:</text><text id="ProcessOnText1070" fill="#000000" font-size="13" x="37.5" y="29.575" font-family="微软雅黑" font-weight="normal" font-style="normal" text-decoration="none" family="微软雅黑" text-anchor="middle" size="13">runAllTasks</text></g></g><g id="ProcessOnG1071" transform="matrix(1.0,0.0,0.0,1.0,383.75,371.5)" opacity="1.0"><path id="ProcessOnPath1072" d="M0.0 0.0L76.5 0.0L76.5 35.0L0.0 35.0Z" stroke="#323232" stroke-width="2.0" stroke-dasharray="none" opacity="1.0" fill="#ffffff"/><g id="ProcessOnG1073" transform="matrix(1.0,0.0,0.0,1.0,10.0,1.25)"><text id="ProcessOnText1074" fill="#000000" font-size="13" x="27.25" y="13.325" font-family="微软雅黑" font-weight="normal" font-style="normal" text-decoration="none" family="微软雅黑" text-anchor="middle" size="13">step1:</text><text id="ProcessOnText1075" fill="#000000" font-size="13" x="27.25" y="29.575" font-family="微软雅黑" font-weight="normal" font-style="normal" text-decoration="none" family="微软雅黑" text-anchor="middle" size="13">select</text></g></g><g id="ProcessOnG1076" transform="matrix(1.0,0.0,0.0,1.0,470.0,368.5)" opacity="1.0"><path id="ProcessOnPath1077" d="M0.0 0.0L198.0 0.0L198.0 20.0L0.0 20.0Z" stroke="none" stroke-width="0.0" stroke-dasharray="none" opacity="1.0" fill="none"/><g id="ProcessOnG1078" transform="matrix(1.0,0.0,0.0,1.0,0.0,1.875)"><text id="ProcessOnText1079" fill="#3333ff" font-size="13" x="98.0" y="13.325" font-family="微软雅黑" font-weight="normal" font-style="normal" text-decoration="none" family="微软雅黑" text-anchor="middle" size="13">3.轮询connect/read/write事件</text></g></g><g id="ProcessOnG1080" transform="matrix(1.0,0.0,0.0,1.0,515.0,490.5)" opacity="1.0"><path id="ProcessOnPath1081" d="M0.0 0.0L187.0 0.0L187.0 27.5L0.0 27.5Z" stroke="none" stroke-width="0.0" stroke-dasharray="none" opacity="1.0" fill="none"/><g id="ProcessOnG1082" transform="matrix(1.0,0.0,0.0,1.0,0.0,5.625)"><text id="ProcessOnText1083" fill="#3333ff" font-size="13" x="92.5" y="13.325" font-family="微软雅黑" font-weight="normal" font-style="normal" text-decoration="none" family="微软雅黑" text-anchor="middle" size="13">4.处理connect/read/write事件</text></g></g><g id="ProcessOnG1084"><path id="ProcessOnPath1085" d="M417.75 285.5L417.75 324.0L417.75 324.0L417.75 347.2639320225002" stroke="#323232" stroke-width="2.0" stroke-dasharray="none" fill="none" marker-end="url(#ProcessOnMarker1086)"/></g><g id="ProcessOnG1088" transform="matrix(1.0,0.0,0.0,1.0,340.0,650.5)" opacity="1.0"><path id="ProcessOnPath1089" d="M0.0 0.0L637.0 0.0L637.0 109.0L0.0 109.0Z" stroke="#323232" stroke-width="2.0" stroke-dasharray="none" opacity="1.0" fill="#ffffcc"/></g><g id="ProcessOnG1090" transform="matrix(1.0,0.0,0.0,1.0,362.5,683.5)" opacity="1.0"><path id="ProcessOnPath1091" d="M0.0 4.0Q0.0 0.0 4.0 0.0L99.0 0.0Q103.0 0.0 103.0 4.0L103.0 54.5Q103.0 58.5 99.0 58.5L4.0 58.5Q0.0 58.5 0.0 54.5Z" stroke="#323232" stroke-width="2.0" stroke-dasharray="none" opacity="1.0" fill="#ffcce6"/><g id="ProcessOnG1092" transform="matrix(1.0,0.0,0.0,1.0,10.0,13.0)"><text id="ProcessOnText1093" fill="#000000" font-size="13" x="40.5" y="13.325" font-family="微软雅黑" font-weight="normal" font-style="normal" text-decoration="none" family="微软雅黑" text-anchor="middle" size="13">HeadContext</text><text id="ProcessOnText1094" fill="#000000" font-size="13" x="40.5" y="29.575" font-family="微软雅黑" font-weight="normal" font-style="normal" text-decoration="none" family="微软雅黑" text-anchor="middle" size="13">(outBound)</text></g></g><g id="ProcessOnG1095" transform="matrix(1.0,0.0,0.0,1.0,854.5,683.5)" opacity="1.0"><path id="ProcessOnPath1096" d="M0.0 4.0Q0.0 0.0 4.0 0.0L99.0 0.0Q103.0 0.0 103.0 4.0L103.0 54.5Q103.0 58.5 99.0 58.5L4.0 58.5Q0.0 58.5 0.0 54.5Z" stroke="#323232" stroke-width="2.0" stroke-dasharray="none" opacity="1.0" fill="#ffcce6"/><g id="ProcessOnG1097" transform="matrix(1.0,0.0,0.0,1.0,10.0,13.0)"><text id="ProcessOnText1098" fill="#000000" font-size="13" x="40.5" y="13.325" font-family="微软雅黑" font-weight="normal" font-style="normal" text-decoration="none" family="微软雅黑" text-anchor="middle" size="13">TailContext</text><text id="ProcessOnText1099" fill="#000000" font-size="13" x="40.5" y="29.575" font-family="微软雅黑" font-weight="normal" font-style="normal" text-decoration="none" family="微软雅黑" text-anchor="middle" size="13">(inBound)</text></g></g><g id="ProcessOnG1100" transform="matrix(1.0,0.0,0.0,1.0,501.5,683.5)" opacity="1.0"><path id="ProcessOnPath1101" d="M0.0 4.0Q0.0 0.0 4.0 0.0L131.0 0.0Q135.0 0.0 135.0 4.0L135.0 54.5Q135.0 58.5 131.0 58.5L4.0 58.5Q0.0 58.5 0.0 54.5Z" stroke="#323232" stroke-width="2.0" stroke-dasharray="none" opacity="1.0" fill="#ffcce6"/><g id="ProcessOnG1102" transform="matrix(1.0,0.0,0.0,1.0,10.0,13.0)"><text id="ProcessOnText1103" fill="#000000" font-size="13" x="56.5" y="13.325" font-family="微软雅黑" font-weight="normal" font-style="normal" text-decoration="none" family="微软雅黑" text-anchor="middle" size="13">ChannelHandler 1</text><text id="ProcessOnText1104" fill="#000000" font-size="13" x="56.5" y="29.575" font-family="微软雅黑" font-weight="normal" font-style="normal" text-decoration="none" family="微软雅黑" text-anchor="middle" size="13">(handler)</text></g></g><g id="ProcessOnG1105" transform="matrix(1.0,0.0,0.0,1.0,681.0,683.5)" opacity="1.0"><path id="ProcessOnPath1106" d="M0.0 4.0Q0.0 0.0 4.0 0.0L132.75 0.0Q136.75 0.0 136.75 4.0L136.75 54.5Q136.75 58.5 132.75 58.5L4.0 58.5Q0.0 58.5 0.0 54.5Z" stroke="#323232" stroke-width="2.0" stroke-dasharray="none" opacity="1.0" fill="#ffcce6"/><g id="ProcessOnG1107" transform="matrix(1.0,0.0,0.0,1.0,10.0,13.0)"><text id="ProcessOnText1108" fill="#000000" font-size="13" x="57.375" y="13.325" font-family="微软雅黑" font-weight="normal" font-style="normal" text-decoration="none" family="微软雅黑" text-anchor="middle" size="13">ChannelHandler n</text><text id="ProcessOnText1109" fill="#000000" font-size="13" x="57.375" y="29.575" font-family="微软雅黑" font-weight="normal" font-style="normal" text-decoration="none" family="微软雅黑" text-anchor="middle" size="13">(handler)</text></g></g><g id="ProcessOnG1110"><path id="ProcessOnPath1111" d="M465.5 698.5L483.5 698.5L483.5 698.5L486.2639320225002 698.5" stroke="#323232" stroke-width="2.0" stroke-dasharray="none" fill="none" marker-end="url(#ProcessOnMarker1112)"/></g><g id="ProcessOnG1114"><path id="ProcessOnPath1115" d="M501.5 724.5L483.5 724.5L483.5 724.5L480.7360679774998 724.5" stroke="#323232" stroke-width="2.0" stroke-dasharray="none" fill="none" marker-end="url(#ProcessOnMarker1116)"/></g><g id="ProcessOnG1118"><path id="ProcessOnPath1119" d="M817.4559139784947 698.5L835.9779569892473 698.5L835.9779569892473 698.5L839.2639320225002 698.5" stroke="#323232" stroke-width="2.0" stroke-dasharray="none" fill="none" marker-end="url(#ProcessOnMarker1120)"/></g><g id="ProcessOnG1122"><path id="ProcessOnPath1123" d="M854.5 723.5L835.9779569892473 723.5L835.9779569892473 723.5L832.6919819559945 723.5" stroke="#323232" stroke-width="2.0" stroke-dasharray="none" fill="none" marker-end="url(#ProcessOnMarker1124)"/></g><g id="ProcessOnG1126"><path id="ProcessOnPath1127" d="M636.5 697.5L658.75 697.5L658.75 697.5L665.7639320225002 697.5" stroke="#323232" stroke-width="2.0" stroke-dasharray="2.0 3.0" fill="none" marker-end="url(#ProcessOnMarker1128)"/></g><g id="ProcessOnG1130"><path id="ProcessOnPath1131" d="M681.0 725.5L658.75 725.5L658.75 725.5L651.7360679774998 725.5" stroke="#323232" stroke-width="2.0" stroke-dasharray="2.0 3.0" fill="none" marker-end="url(#ProcessOnMarker1132)"/></g><g id="ProcessOnG1134" transform="matrix(1.0,0.0,0.0,1.0,621.75,654.5)" opacity="1.0"><path id="ProcessOnPath1135" d="M0.0 0.0L89.0 0.0L89.0 20.0L0.0 20.0Z" stroke="none" stroke-width="0.0" stroke-dasharray="none" opacity="1.0" fill="none"/><g id="ProcessOnG1136" transform="matrix(1.0,0.0,0.0,1.0,0.0,1.875)"><text id="ProcessOnText1137" fill="#000000" font-size="13" x="43.5" y="13.325" font-family="微软雅黑" font-weight="normal" font-style="normal" text-decoration="none" family="微软雅黑" text-anchor="middle" size="13">Pipeline</text></g></g><g id="ProcessOnG1138" transform="matrix(1.0,0.0,0.0,1.0,274.75,494.5)" opacity="1.0"><path id="ProcessOnPath1139" d="M0.0 0.0L109.0 0.0L109.0 30.0L0.0 30.0Z" stroke="none" stroke-width="0.0" stroke-dasharray="none" opacity="1.0" fill="none"/><g id="ProcessOnG1140" transform="matrix(1.0,0.0,0.0,1.0,0.0,-1.25)"><text id="ProcessOnText1141" fill="#3333ff" font-size="13" x="53.5" y="13.325" font-family="微软雅黑" font-weight="normal" font-style="normal" text-decoration="none" family="微软雅黑" text-anchor="middle" size="13">处理定时任务</text><text id="ProcessOnText1142" fill="#3333ff" font-size="13" x="53.5" y="29.575" font-family="微软雅黑" font-weight="normal" font-style="normal" text-decoration="none" family="微软雅黑" text-anchor="middle" size="13">和普通任务</text></g></g><g id="ProcessOnG1143"><path id="ProcessOnPath1144" d="M362.0 631.5L419.0 631.5L419.0 631.5L460.7639320225002 631.5" stroke="#323232" stroke-width="2.0" stroke-dasharray="none" fill="none" marker-end="url(#ProcessOnMarker1145)"/></g><g id="ProcessOnG1147"><path id="ProcessOnPath1148" d="M972.0 630.5L914.5 630.5L914.5 630.5L872.2360679774998 630.5" stroke="#323232" stroke-width="2.0" stroke-dasharray="none" fill="none" marker-end="url(#ProcessOnMarker1149)"/></g><g id="ProcessOnG1151" transform="matrix(1.0,0.0,0.0,1.0,840.0,604.5)" opacity="1.0"><path id="ProcessOnPath1152" d="M0.0 0.0L132.0 0.0L132.0 20.0L0.0 20.0Z" stroke="none" stroke-width="0.0" stroke-dasharray="none" opacity="1.0" fill="none"/><g id="ProcessOnG1153" transform="matrix(1.0,0.0,0.0,1.0,0.0,1.875)"><text id="ProcessOnText1154" fill="#3333ff" font-size="13" x="65.0" y="13.325" font-family="微软雅黑" font-weight="normal" font-style="normal" text-decoration="none" family="微软雅黑" text-anchor="middle" size="13">write (outBound)</text></g></g><g id="ProcessOnG1155" transform="matrix(1.0,0.0,0.0,1.0,356.0,607.5)" opacity="1.0"><path id="ProcessOnPath1156" d="M0.0 0.0L132.0 0.0L132.0 20.0L0.0 20.0Z" stroke="none" stroke-width="0.0" stroke-dasharray="none" opacity="1.0" fill="none"/><g id="ProcessOnG1157" transform="matrix(1.0,0.0,0.0,1.0,0.0,1.875)"><text id="ProcessOnText1158" fill="#3333ff" font-size="13" x="65.0" y="13.325" font-family="微软雅黑" font-weight="normal" font-style="normal" text-decoration="none" family="微软雅黑" text-anchor="middle" size="13">read (inBound)</text></g></g><g id="ProcessOnG1159"><path id="ProcessOnPath1160" d="M589.0 468.25L658.5 468.25L658.5 635.2639320225002" stroke="#323232" stroke-width="2.0" stroke-dasharray="none" fill="none" marker-end="url(#ProcessOnMarker1161)"/></g><g id="ProcessOnG1163" transform="matrix(1.0,0.0,0.0,1.0,383.75,424.0)" opacity="1.0"><path id="ProcessOnPath1164" d="M0.0 0.0L89.0 0.0L89.0 20.0L0.0 20.0Z" stroke="none" stroke-width="0.0" stroke-dasharray="none" opacity="1.0" fill="none"/><g id="ProcessOnG1165" transform="matrix(1.0,0.0,0.0,1.0,0.0,1.875)"><text id="ProcessOnText1166" fill="#ff3333" font-size="13" x="43.5" y="13.325" font-family="微软雅黑" font-weight="bold" font-style="normal" text-decoration="none" family="微软雅黑" text-anchor="middle" size="13">NioEventLoop</text></g></g><g id="ProcessOnG1167"><path id="ProcessOnPath1168" d="M489.0 392.5C508.0 399.5 525.0 413.5 524.2920159804626 421.8188122295644" stroke="#323232" stroke-width="2.0" stroke-dasharray="none" fill="none" marker-end="url(#ProcessOnMarker1169)"/></g><g id="ProcessOnG1171"><path id="ProcessOnPath1172" d="M972.0 583.5L914.5 583.5L914.5 583.5L872.2360679774998 583.5" stroke="#323232" stroke-width="2.0" stroke-dasharray="none" fill="none" marker-end="url(#ProcessOnMarker1173)"/></g><g id="ProcessOnG1175" transform="matrix(1.0,0.0,0.0,1.0,849.0,557.5)" opacity="1.0"><path id="ProcessOnPath1176" d="M0.0 0.0L132.0 0.0L132.0 20.0L0.0 20.0Z" stroke="none" stroke-width="0.0" stroke-dasharray="none" opacity="1.0" fill="none"/><g id="ProcessOnG1177" transform="matrix(1.0,0.0,0.0,1.0,0.0,1.875)"><text id="ProcessOnText1178" fill="#3333ff" font-size="13" x="65.0" y="13.325" font-family="微软雅黑" font-weight="normal" font-style="normal" text-decoration="none" family="微软雅黑" text-anchor="middle" size="13">connect (outBound)</text></g></g></g></g></svg>