<svg xmlns="http://www.w3.org/2000/svg" xmlns:xlink="http://www.w3.org/1999/xlink" id="processonSvg1000" viewBox="63.0 228.0 918.0 561.0" width="918.0" height="561.0"><defs id="ProcessOnDefs1001"><marker id="ProcessOnMarker1070" markerUnits="userSpaceOnUse" orient="auto" markerWidth="16.23606797749979" markerHeight="10.550836550532098" viewBox="-1.0 -1.3763819204711736 16.23606797749979 10.550836550532098" refX="-1.0" refY="3.8990363547948754"><path id="ProcessOnPath1071" d="M12.0 3.8990363547948754L0.0 7.798072709589751V0.0Z" stroke="#323232" stroke-width="2.0" fill="#323232" transform="matrix(1.0,0.0,0.0,1.0,0.0,0.0)"/></marker><marker id="ProcessOnMarker1074" markerUnits="userSpaceOnUse" orient="auto" markerWidth="16.23606797749979" markerHeight="10.550836550532098" viewBox="-1.0 -1.3763819204711736 16.23606797749979 10.550836550532098" refX="-1.0" refY="3.8990363547948754"><path id="ProcessOnPath1075" d="M12.0 3.8990363547948754L0.0 7.798072709589751V0.0Z" stroke="#323232" stroke-width="2.0" fill="#323232" transform="matrix(1.0,0.0,0.0,1.0,0.0,0.0)"/></marker><marker id="ProcessOnMarker1078" markerUnits="userSpaceOnUse" orient="auto" markerWidth="16.23606797749979" markerHeight="10.550836550532098" viewBox="-1.0 -1.3763819204711736 16.23606797749979 10.550836550532098" refX="-1.0" refY="3.8990363547948754"><path id="ProcessOnPath1079" d="M12.0 3.8990363547948754L0.0 7.798072709589751V0.0Z" stroke="#323232" stroke-width="2.0" fill="#323232" transform="matrix(1.0,0.0,0.0,1.0,0.0,0.0)"/></marker></defs><g id="ProcessOnG1002"><path id="ProcessOnPath1003" d="M63.0 228.0H981.0V789.0H63.0V228.0Z" fill="none"/><g id="ProcessOnG1004"><g id="ProcessOnG1005" transform="matrix(1.0,0.0,0.0,1.0,83.0,248.0)" opacity="1.0"><path id="ProcessOnPath1006" d="M0.0 0.0L299.0 0.0L299.0 521.0L0.0 521.0Z" stroke="#323232" stroke-width="2.0" stroke-dasharray="none" opacity="1.0" fill="#cce5ff"/></g><g id="ProcessOnG1007" transform="matrix(1.0,0.0,0.0,1.0,102.0,291.0)" opacity="1.0"><path id="ProcessOnPath1008" d="M0.0 0.0L261.0 0.0L261.0 464.0L0.0 464.0Z" stroke="#323232" stroke-width="2.0" stroke-dasharray="none" opacity="1.0" fill="#ccccff"/></g><g id="ProcessOnG1009" transform="matrix(1.0,0.0,0.0,1.0,123.0,338.0)" opacity="1.0"><path id="ProcessOnPath1010" d="M0.0 0.0L225.0 0.0L225.0 400.0L0.0 400.0Z" stroke="#323232" stroke-width="2.0" stroke-dasharray="none" opacity="1.0" fill="#ffe6cc"/></g><g id="ProcessOnG1011" transform="matrix(1.0,0.0,0.0,1.0,140.0,385.0)" opacity="1.0"><path id="ProcessOnPath1012" d="M0.0 0.0L185.0 0.0L185.0 44.0L0.0 44.0Z" stroke="#323232" stroke-width="2.0" stroke-dasharray="none" opacity="1.0" fill="#ffccff"/></g><g id="ProcessOnG1013" transform="matrix(1.0,0.0,0.0,1.0,140.0,451.0)" opacity="1.0"><path id="ProcessOnPath1014" d="M0.0 0.0L185.0 0.0L185.0 213.0L0.0 213.0Z" stroke="#323232" stroke-width="2.0" stroke-dasharray="none" opacity="1.0" fill="#ffccff"/></g><g id="ProcessOnG1015" transform="matrix(1.0,0.0,0.0,1.0,140.0,685.0)" opacity="1.0"><path id="ProcessOnPath1016" d="M0.0 0.0L185.0 0.0L185.0 41.0L0.0 41.0Z" stroke="#323232" stroke-width="2.0" stroke-dasharray="none" opacity="1.0" fill="#ffccff"/></g><g id="ProcessOnG1017" transform="matrix(1.0,0.0,0.0,1.0,157.0,473.0)" opacity="1.0"><path id="ProcessOnPath1018" d="M0.0 0.0L151.0 0.0L151.0 38.0L0.0 38.0Z" stroke="#323232" stroke-width="2.0" stroke-dasharray="none" opacity="1.0" fill="#ff8000"/></g><g id="ProcessOnG1019" transform="matrix(1.0,0.0,0.0,1.0,157.0,526.0)" opacity="1.0"><path id="ProcessOnPath1020" d="M0.0 0.0L151.0 0.0L151.0 120.0L0.0 120.0Z" stroke="#323232" stroke-width="2.0" stroke-dasharray="none" opacity="1.0" fill="#ff8000"/></g><g id="ProcessOnG1021" transform="matrix(1.0,0.0,0.0,1.0,187.0,256.0)" opacity="1.0"><path id="ProcessOnPath1022" d="M0.0 0.0L79.0 0.0L79.0 24.0L0.0 24.0Z" stroke="none" stroke-width="0.0" stroke-dasharray="none" opacity="1.0" fill="none"/><g id="ProcessOnG1023" transform="matrix(1.0,0.0,0.0,1.0,0.0,2.625)"><text id="ProcessOnText1024" fill="#000000" font-size="15" x="38.5" y="15.375" font-family="微软雅黑" font-weight="bold" font-style="normal" text-decoration="none" family="微软雅黑" text-anchor="middle" size="15">Activity</text></g></g><g id="ProcessOnG1025" transform="matrix(1.0,0.0,0.0,1.0,172.0,298.0)" opacity="1.0"><path id="ProcessOnPath1026" d="M0.0 0.0L121.0 0.0L121.0 30.0L0.0 30.0Z" stroke="none" stroke-width="0.0" stroke-dasharray="none" opacity="1.0" fill="none"/><g id="ProcessOnG1027" transform="matrix(1.0,0.0,0.0,1.0,0.0,5.625)"><text id="ProcessOnText1028" fill="#000000" font-size="15" x="59.5" y="15.375" font-family="微软雅黑" font-weight="bold" font-style="normal" text-decoration="none" family="微软雅黑" text-anchor="middle" size="15">PhoneWindow</text></g></g><g id="ProcessOnG1029" transform="matrix(1.0,0.0,0.0,1.0,180.5,345.0)" opacity="1.0"><path id="ProcessOnPath1030" d="M0.0 0.0L104.0 0.0L104.0 29.0L0.0 29.0Z" stroke="none" stroke-width="0.0" stroke-dasharray="none" opacity="1.0" fill="none"/><g id="ProcessOnG1031" transform="matrix(1.0,0.0,0.0,1.0,0.0,5.125)"><text id="ProcessOnText1032" fill="#000000" font-size="15" x="51.0" y="15.375" font-family="微软雅黑" font-weight="bold" font-style="normal" text-decoration="none" family="微软雅黑" text-anchor="middle" size="15">DecorView</text></g></g><g id="ProcessOnG1033" transform="matrix(1.0,0.0,0.0,1.0,180.5,392.5)" opacity="1.0"><path id="ProcessOnPath1034" d="M0.0 0.0L104.0 0.0L104.0 29.0L0.0 29.0Z" stroke="none" stroke-width="0.0" stroke-dasharray="none" opacity="1.0" fill="none"/><g id="ProcessOnG1035" transform="matrix(1.0,0.0,0.0,1.0,0.0,5.125)"><text id="ProcessOnText1036" fill="#000000" font-size="15" x="51.0" y="15.375" font-family="微软雅黑" font-weight="bold" font-style="normal" text-decoration="none" family="微软雅黑" text-anchor="middle" size="15">StatusBar</text></g></g><g id="ProcessOnG1037" transform="matrix(1.0,0.0,0.0,1.0,180.5,477.5)" opacity="1.0"><path id="ProcessOnPath1038" d="M0.0 0.0L104.0 0.0L104.0 29.0L0.0 29.0Z" stroke="none" stroke-width="0.0" stroke-dasharray="none" opacity="1.0" fill="none"/><g id="ProcessOnG1039" transform="matrix(1.0,0.0,0.0,1.0,0.0,5.125)"><text id="ProcessOnText1040" fill="#000000" font-size="15" x="51.0" y="15.375" font-family="微软雅黑" font-weight="bold" font-style="normal" text-decoration="none" family="微软雅黑" text-anchor="middle" size="15">TitleBar</text></g></g><g id="ProcessOnG1041" transform="matrix(1.0,0.0,0.0,1.0,167.5,563.25)" opacity="1.0"><path id="ProcessOnPath1042" d="M0.0 0.0L131.5 0.0L131.5 45.5L0.0 45.5Z" stroke="none" stroke-width="0.0" stroke-dasharray="none" opacity="1.0" fill="none"/><g id="ProcessOnG1043" transform="matrix(1.0,0.0,0.0,1.0,0.0,4.0)"><text id="ProcessOnText1044" fill="#000000" font-size="15" x="64.75" y="15.375" font-family="微软雅黑" font-weight="bold" font-style="normal" text-decoration="none" family="微软雅黑" text-anchor="middle" size="15">ContentView</text><text id="ProcessOnText1045" fill="#000000" font-size="15" x="64.75" y="34.125" font-family="微软雅黑" font-weight="bold" font-style="normal" text-decoration="none" family="微软雅黑" text-anchor="middle" size="15">（R.id. content）</text></g></g><g id="ProcessOnG1046" transform="matrix(1.0,0.0,0.0,1.0,176.5,691.0)" opacity="1.0"><path id="ProcessOnPath1047" d="M0.0 0.0L122.5 0.0L122.5 29.0L0.0 29.0Z" stroke="none" stroke-width="0.0" stroke-dasharray="none" opacity="1.0" fill="none"/><g id="ProcessOnG1048" transform="matrix(1.0,0.0,0.0,1.0,0.0,5.125)"><text id="ProcessOnText1049" fill="#000000" font-size="15" x="60.25" y="15.375" font-family="微软雅黑" font-weight="bold" font-style="normal" text-decoration="none" family="微软雅黑" text-anchor="middle" size="15">NavigationBar</text></g></g><g id="ProcessOnG1050" transform="matrix(1.0,0.0,0.0,1.0,475.0,248.0)" opacity="1.0"><path id="ProcessOnPath1051" d="M0.0 0.0L192.0 0.0L192.0 521.0L0.0 521.0Z" stroke="#323232" stroke-width="2.0" stroke-dasharray="none" opacity="1.0" fill="#ffffff"/></g><g id="ProcessOnG1052" transform="matrix(1.0,0.0,0.0,1.0,763.0,248.0)" opacity="1.0"><path id="ProcessOnPath1053" d="M0.0 0.0L198.0 0.0L198.0 521.0L0.0 521.0Z" stroke="#323232" stroke-width="2.0" stroke-dasharray="none" opacity="1.0" fill="#ffffff"/></g><g id="ProcessOnG1054" transform="matrix(1.0,0.0,0.0,1.0,503.0,261.0)" opacity="1.0"><path id="ProcessOnPath1055" d="M0.0 0.0L144.0 0.0L144.0 30.0L0.0 30.0Z" stroke="none" stroke-width="0.0" stroke-dasharray="none" opacity="1.0" fill="none"/><g id="ProcessOnG1056" transform="matrix(1.0,0.0,0.0,1.0,0.0,5.625)"><text id="ProcessOnText1057" fill="#000000" font-size="15" x="71.0" y="15.375" font-family="微软雅黑" font-weight="bold" font-style="normal" text-decoration="none" family="微软雅黑" text-anchor="middle" size="15">WindowManager</text></g></g><g id="ProcessOnG1058" transform="matrix(1.0,0.0,0.0,1.0,767.0,261.0)" opacity="1.0"><path id="ProcessOnPath1059" d="M0.0 0.0L190.0 0.0L190.0 30.0L0.0 30.0Z" stroke="none" stroke-width="0.0" stroke-dasharray="none" opacity="1.0" fill="none"/><g id="ProcessOnG1060" transform="matrix(1.0,0.0,0.0,1.0,0.0,5.625)"><text id="ProcessOnText1061" fill="#000000" font-size="15" x="94.0" y="15.375" font-family="微软雅黑" font-weight="bold" font-style="normal" text-decoration="none" family="微软雅黑" text-anchor="middle" size="15">WindowManagerService</text></g></g><g id="ProcessOnG1062" transform="matrix(1.0,0.0,0.0,1.0,492.25,429.0)" opacity="1.0"><path id="ProcessOnPath1063" d="M0.0 0.0L157.5 0.0L157.5 69.0L0.0 69.0Z" stroke="#323232" stroke-width="2.0" stroke-dasharray="none" opacity="1.0" fill="#cc99ff"/><g id="ProcessOnG1064" transform="matrix(1.0,0.0,0.0,1.0,10.0,10.125)"><text id="ProcessOnText1065" fill="#000000" font-size="13" x="67.75" y="13.325" font-family="微软雅黑" font-weight="normal" font-style="normal" text-decoration="none" family="微软雅黑" text-anchor="middle" size="13">ViewRoot</text><text id="ProcessOnText1066" fill="#000000" font-size="13" x="67.75" y="29.575" font-family="微软雅黑" font-weight="normal" font-style="normal" text-decoration="none" family="微软雅黑" text-anchor="middle" size="13">负责View的事件处理</text><text id="ProcessOnText1067" fill="#000000" font-size="13" x="67.75" y="45.825" font-family="微软雅黑" font-weight="normal" font-style="normal" text-decoration="none" family="微软雅黑" text-anchor="middle" size="13">和逻辑处理</text></g></g><g id="ProcessOnG1068"><path id="ProcessOnPath1069" d="M475.0 508.5L428.5 508.5L428.5 508.5L397.2360679774998 508.5" stroke="#323232" stroke-width="2.0" stroke-dasharray="none" fill="none" marker-end="url(#ProcessOnMarker1070)"/></g><g id="ProcessOnG1072"><path id="ProcessOnPath1073" d="M667.0 424.0L715.0 424.0L715.0 424.0L747.7639320225002 424.0" stroke="#323232" stroke-width="2.0" stroke-dasharray="none" fill="none" marker-end="url(#ProcessOnMarker1074)"/></g><g id="ProcessOnG1076"><path id="ProcessOnPath1077" d="M763.0 585.0L715.0 585.0L715.0 585.0L682.2360679774998 585.0" stroke="#323232" stroke-width="2.0" stroke-dasharray="none" fill="none" marker-end="url(#ProcessOnMarker1078)"/></g><g id="ProcessOnG1080" transform="matrix(1.0,0.0,0.0,1.0,654.0,393.0)" opacity="1.0"><path id="ProcessOnPath1081" d="M0.0 0.0L120.0 0.0L120.0 28.0L0.0 28.0Z" stroke="none" stroke-width="0.0" stroke-dasharray="none" opacity="1.0" fill="none"/><g id="ProcessOnG1082" transform="matrix(1.0,0.0,0.0,1.0,0.0,5.875)"><text id="ProcessOnText1083" fill="#000000" font-size="13" x="59.0" y="13.325" font-family="微软雅黑" font-weight="normal" font-style="normal" text-decoration="none" family="微软雅黑" text-anchor="middle" size="13">IWindowSession</text></g></g><g id="ProcessOnG1084" transform="matrix(1.0,0.0,0.0,1.0,679.0,555.0)" opacity="1.0"><path id="ProcessOnPath1085" d="M0.0 0.0L79.0 0.0L79.0 22.0L0.0 22.0Z" stroke="none" stroke-width="0.0" stroke-dasharray="none" opacity="1.0" fill="none"/><g id="ProcessOnG1086" transform="matrix(1.0,0.0,0.0,1.0,0.0,2.875)"><text id="ProcessOnText1087" fill="#000000" font-size="13" x="38.5" y="13.325" font-family="微软雅黑" font-weight="normal" font-style="normal" text-decoration="none" family="微软雅黑" text-anchor="middle" size="13">IWindow</text></g></g></g></g></svg>