<svg xmlns="http://www.w3.org/2000/svg" xmlns:xlink="http://www.w3.org/1999/xlink" id="processonSvg1000" viewBox="23.0 59.0 1010.0 574.0" width="1010.0" height="574.0"><defs id="ProcessOnDefs1001"><marker id="ProcessOnMarker1051" markerUnits="userSpaceOnUse" orient="auto" markerWidth="16.23606797749979" markerHeight="10.550836550532098" viewBox="-1.0 -1.3763819204711736 16.23606797749979 10.550836550532098" refX="-1.0" refY="3.8990363547948754"><path id="ProcessOnPath1052" d="M12.0 3.8990363547948754L0.0 7.798072709589751V0.0Z" stroke="#323232" stroke-width="2.0" fill="#323232" transform="matrix(1.0,0.0,0.0,1.0,0.0,0.0)"/></marker><marker id="ProcessOnMarker1055" markerUnits="userSpaceOnUse" orient="auto" markerWidth="16.23606797749979" markerHeight="10.550836550532098" viewBox="-1.0 -1.3763819204711736 16.23606797749979 10.550836550532098" refX="-1.0" refY="3.8990363547948754"><path id="ProcessOnPath1056" d="M12.0 3.8990363547948754L0.0 7.798072709589751V0.0Z" stroke="#323232" stroke-width="2.0" fill="#323232" transform="matrix(1.0,0.0,0.0,1.0,0.0,0.0)"/></marker><marker id="ProcessOnMarker1059" markerUnits="userSpaceOnUse" orient="auto" markerWidth="16.23606797749979" markerHeight="10.550836550532098" viewBox="-1.0 -1.3763819204711736 16.23606797749979 10.550836550532098" refX="-1.0" refY="3.8990363547948754"><path id="ProcessOnPath1060" d="M12.0 3.8990363547948754L0.0 7.798072709589751V0.0Z" stroke="#323232" stroke-width="2.0" fill="#323232" transform="matrix(1.0,0.0,0.0,1.0,0.0,0.0)"/></marker><marker id="ProcessOnMarker1063" markerUnits="userSpaceOnUse" orient="auto" markerWidth="16.23606797749979" markerHeight="10.550836550532098" viewBox="-1.0 -1.3763819204711736 16.23606797749979 10.550836550532098" refX="-1.0" refY="3.8990363547948754"><path id="ProcessOnPath1064" d="M12.0 3.8990363547948754L0.0 7.798072709589751V0.0Z" stroke="#323232" stroke-width="2.0" fill="#323232" transform="matrix(1.0,0.0,0.0,1.0,0.0,0.0)"/></marker><marker id="ProcessOnMarker1067" markerUnits="userSpaceOnUse" orient="auto" markerWidth="16.23606797749979" markerHeight="10.550836550532098" viewBox="-1.0 -1.3763819204711736 16.23606797749979 10.550836550532098" refX="-1.0" refY="3.8990363547948754"><path id="ProcessOnPath1068" d="M12.0 3.8990363547948754L0.0 7.798072709589751V0.0Z" stroke="#323232" stroke-width="2.0" fill="#323232" transform="matrix(1.0,0.0,0.0,1.0,0.0,0.0)"/></marker><marker id="ProcessOnMarker1091" markerUnits="userSpaceOnUse" orient="auto" markerWidth="16.23606797749979" markerHeight="10.550836550532098" viewBox="-1.0 -1.3763819204711736 16.23606797749979 10.550836550532098" refX="-1.0" refY="3.8990363547948754"><path id="ProcessOnPath1092" d="M12.0 3.8990363547948754L0.0 7.798072709589751V0.0Z" stroke="#323232" stroke-width="2.0" fill="#323232" transform="matrix(1.0,0.0,0.0,1.0,0.0,0.0)"/></marker><marker id="ProcessOnMarker1095" markerUnits="userSpaceOnUse" orient="auto" markerWidth="16.23606797749979" markerHeight="10.550836550532098" viewBox="-1.0 -1.3763819204711736 16.23606797749979 10.550836550532098" refX="-1.0" refY="3.8990363547948754"><path id="ProcessOnPath1096" d="M12.0 3.8990363547948754L0.0 7.798072709589751V0.0Z" stroke="#323232" stroke-width="2.0" fill="#323232" transform="matrix(1.0,0.0,0.0,1.0,0.0,0.0)"/></marker><marker id="ProcessOnMarker1099" markerUnits="userSpaceOnUse" orient="auto" markerWidth="16.23606797749979" markerHeight="10.550836550532098" viewBox="-1.0 -1.3763819204711736 16.23606797749979 10.550836550532098" refX="-1.0" refY="3.8990363547948754"><path id="ProcessOnPath1100" d="M12.0 3.8990363547948754L0.0 7.798072709589751V0.0Z" stroke="#323232" stroke-width="2.0" fill="#323232" transform="matrix(1.0,0.0,0.0,1.0,0.0,0.0)"/></marker><marker id="ProcessOnMarker1107" markerUnits="userSpaceOnUse" orient="auto" markerWidth="16.23606797749979" markerHeight="10.550836550532098" viewBox="-1.0 -1.3763819204711736 16.23606797749979 10.550836550532098" refX="-1.0" refY="3.8990363547948754"><path id="ProcessOnPath1108" d="M12.0 3.8990363547948754L0.0 7.798072709589751V0.0Z" stroke="#323232" stroke-width="2.0" fill="#323232" transform="matrix(1.0,0.0,0.0,1.0,0.0,0.0)"/></marker><marker id="ProcessOnMarker1111" markerUnits="userSpaceOnUse" orient="auto" markerWidth="16.23606797749979" markerHeight="10.550836550532098" viewBox="-1.0 -1.3763819204711736 16.23606797749979 10.550836550532098" refX="-1.0" refY="3.8990363547948754"><path id="ProcessOnPath1112" d="M12.0 3.8990363547948754L0.0 7.798072709589751V0.0Z" stroke="#323232" stroke-width="2.0" fill="#323232" transform="matrix(1.0,0.0,0.0,1.0,0.0,0.0)"/></marker></defs><g id="ProcessOnG1002"><path id="ProcessOnPath1003" d="M23.0 59.0H1033.0V633.0H23.0V59.0Z" fill="none"/><g id="ProcessOnG1004"><g id="ProcessOnG1005" transform="matrix(1.0,0.0,0.0,1.0,677.0,399.0)" opacity="1.0"><path id="ProcessOnPath1006" d="M0.0 0.0L199.0 0.0L199.0 134.0L0.0 134.0Z" stroke="#323232" stroke-width="2.0" stroke-dasharray="none" opacity="1.0" fill="#ffffff"/></g><g id="ProcessOnG1007" transform="matrix(1.0,0.0,0.0,1.0,43.0,323.0)" opacity="1.0"><path id="ProcessOnPath1008" d="M0.0 0.0L251.5 0.0L251.5 290.0L0.0 290.0Z" stroke="#323232" stroke-width="2.0" stroke-dasharray="none" opacity="1.0" fill="#ffffff"/></g><g id="ProcessOnG1009" transform="matrix(1.0,0.0,0.0,1.0,273.0,79.0)" opacity="1.0"><path id="ProcessOnPath1010" d="M0.0 0.0L123.0 0.0L123.0 37.0L0.0 37.0Z" stroke="#323232" stroke-width="2.0" stroke-dasharray="2.0 3.0" opacity="1.0" fill="#ffcccc"/><g id="ProcessOnG1011" transform="matrix(1.0,0.0,0.0,1.0,10.0,10.375)"><text id="ProcessOnText1012" fill="#000000" font-size="13" x="50.5" y="13.325" font-family="微软雅黑" font-weight="normal" font-style="normal" text-decoration="none" family="微软雅黑" text-anchor="middle" size="13">MemoryCache</text></g></g><g id="ProcessOnG1013" transform="matrix(1.0,0.0,0.0,1.0,80.75,239.0)" opacity="1.0"><path id="ProcessOnPath1014" d="M0.0 0.0L176.0 0.0L176.0 42.0L0.0 42.0Z" stroke="#323232" stroke-width="2.0" stroke-dasharray="none" opacity="1.0" fill="#ffffff"/><g id="ProcessOnG1015" transform="matrix(1.0,0.0,0.0,1.0,10.0,12.875)"><text id="ProcessOnText1016" fill="#000000" font-size="13" x="77.0" y="13.325" font-family="微软雅黑" font-weight="normal" font-style="normal" text-decoration="none" family="微软雅黑" text-anchor="middle" size="13">LimitedMemoryCache</text></g></g><g id="ProcessOnG1017" transform="matrix(1.0,0.0,0.0,1.0,58.5,365.0)" opacity="1.0"><path id="ProcessOnPath1018" d="M0.0 0.0L220.5 0.0L220.5 38.0L0.0 38.0Z" stroke="#323232" stroke-width="2.0" stroke-dasharray="none" opacity="1.0" fill="#ffffff"/><g id="ProcessOnG1019" transform="matrix(1.0,0.0,0.0,1.0,10.0,10.875)"><text id="ProcessOnText1020" fill="#000000" font-size="13" x="99.25" y="13.325" font-family="微软雅黑" font-weight="normal" font-style="normal" text-decoration="none" family="微软雅黑" text-anchor="middle" size="13">FIFOLimitedMemoryCache</text></g></g><g id="ProcessOnG1021" transform="matrix(1.0,0.0,0.0,1.0,438.0,468.5)" opacity="1.0"><path id="ProcessOnPath1022" d="M0.0 0.0L194.0 0.0L194.0 41.0L0.0 41.0Z" stroke="#323232" stroke-width="2.0" stroke-dasharray="none" opacity="1.0" fill="#ffffff"/><g id="ProcessOnG1023" transform="matrix(1.0,0.0,0.0,1.0,10.0,12.375)"><text id="ProcessOnText1024" fill="#000000" font-size="13" x="86.0" y="13.325" font-family="微软雅黑" font-weight="normal" font-style="normal" text-decoration="none" family="微软雅黑" text-anchor="middle" size="13">FuzzyKeyMemoryCache</text></g></g><g id="ProcessOnG1025" transform="matrix(1.0,0.0,0.0,1.0,56.0,542.0)" opacity="1.0"><path id="ProcessOnPath1026" d="M0.0 0.0L225.5 0.0L225.5 38.0L0.0 38.0Z" stroke="#323232" stroke-width="2.0" stroke-dasharray="none" opacity="1.0" fill="#ffffff"/><g id="ProcessOnG1027" transform="matrix(1.0,0.0,0.0,1.0,10.0,10.875)"><text id="ProcessOnText1028" fill="#000000" font-size="13" x="101.75" y="13.325" font-family="微软雅黑" font-weight="normal" font-style="normal" text-decoration="none" family="微软雅黑" text-anchor="middle" size="13">LargestLimitedMemoryCache</text></g></g><g id="ProcessOnG1029" transform="matrix(1.0,0.0,0.0,1.0,438.0,392.5)" opacity="1.0"><path id="ProcessOnPath1030" d="M0.0 0.0L194.0 0.0L194.0 39.0L0.0 39.0Z" stroke="#323232" stroke-width="2.0" stroke-dasharray="none" opacity="1.0" fill="#ffffff"/><g id="ProcessOnG1031" transform="matrix(1.0,0.0,0.0,1.0,10.0,11.375)"><text id="ProcessOnText1032" fill="#000000" font-size="13" x="86.0" y="13.325" font-family="微软雅黑" font-weight="normal" font-style="normal" text-decoration="none" family="微软雅黑" text-anchor="middle" size="13">LimitedAgeMemoryCache</text></g></g><g id="ProcessOnG1033" transform="matrix(1.0,0.0,0.0,1.0,58.5,423.0)" opacity="1.0"><path id="ProcessOnPath1034" d="M0.0 0.0L220.5 0.0L220.5 38.0L0.0 38.0Z" stroke="#323232" stroke-width="2.0" stroke-dasharray="none" opacity="1.0" fill="#ffffff"/><g id="ProcessOnG1035" transform="matrix(1.0,0.0,0.0,1.0,10.0,10.875)"><text id="ProcessOnText1036" fill="#000000" font-size="13" x="99.25" y="13.325" font-family="微软雅黑" font-weight="normal" font-style="normal" text-decoration="none" family="微软雅黑" text-anchor="middle" size="13">LRULimitedMemoryCache</text></g></g><g id="ProcessOnG1037" transform="matrix(1.0,0.0,0.0,1.0,438.0,318.5)" opacity="1.0"><path id="ProcessOnPath1038" d="M0.0 0.0L194.0 0.0L194.0 39.0L0.0 39.0Z" stroke="#323232" stroke-width="2.0" stroke-dasharray="none" opacity="1.0" fill="#ffffff"/><g id="ProcessOnG1039" transform="matrix(1.0,0.0,0.0,1.0,10.0,11.375)"><text id="ProcessOnText1040" fill="#000000" font-size="13" x="86.0" y="13.325" font-family="微软雅黑" font-weight="normal" font-style="normal" text-decoration="none" family="微软雅黑" text-anchor="middle" size="13">LruMemoryCache</text></g></g><g id="ProcessOnG1041" transform="matrix(1.0,0.0,0.0,1.0,58.5,481.0)" opacity="1.0"><path id="ProcessOnPath1042" d="M0.0 0.0L220.5 0.0L220.5 39.0L0.0 39.0Z" stroke="#323232" stroke-width="2.0" stroke-dasharray="none" opacity="1.0" fill="#ffffff"/><g id="ProcessOnG1043" transform="matrix(1.0,0.0,0.0,1.0,10.0,11.375)"><text id="ProcessOnText1044" fill="#000000" font-size="13" x="99.25" y="13.325" font-family="微软雅黑" font-weight="normal" font-style="normal" text-decoration="none" family="微软雅黑" text-anchor="middle" size="13">UsingFreqLimitedMemoryCache</text></g></g><g id="ProcessOnG1045" transform="matrix(1.0,0.0,0.0,1.0,440.0,540.5)" opacity="1.0"><path id="ProcessOnPath1046" d="M0.0 0.0L190.0 0.0L190.0 37.0L0.0 37.0Z" stroke="#323232" stroke-width="2.0" stroke-dasharray="none" opacity="1.0" fill="#ffffff"/><g id="ProcessOnG1047" transform="matrix(1.0,0.0,0.0,1.0,10.0,10.375)"><text id="ProcessOnText1048" fill="#000000" font-size="13" x="84.0" y="13.325" font-family="微软雅黑" font-weight="normal" font-style="normal" text-decoration="none" family="微软雅黑" text-anchor="middle" size="13">WeakMemoryCache</text></g></g><g id="ProcessOnG1049"><path id="ProcessOnPath1050" d="M168.75 323.0L168.75 302.0L168.75 302.0L168.75 296.2360679774998" stroke="#323232" stroke-width="2.0" stroke-dasharray="none" fill="none" marker-end="url(#ProcessOnMarker1051)"/></g><g id="ProcessOnG1053"><path id="ProcessOnPath1054" d="M438.0 412.0C312.57065734047717 412.0 334.5 241.42934265952286 334.5 131.2360679774998" stroke="#323232" stroke-width="2.0" stroke-dasharray="none" fill="none" marker-end="url(#ProcessOnMarker1055)"/></g><g id="ProcessOnG1057"><path id="ProcessOnPath1058" d="M438.0 489.0C283.1626660007348 489.0 334.50000000000006 270.8373339992652 334.5 131.2360679774998" stroke="#323232" stroke-width="2.0" stroke-dasharray="none" fill="none" marker-end="url(#ProcessOnMarker1059)"/></g><g id="ProcessOnG1061"><path id="ProcessOnPath1062" d="M440.0 559.0C257.84435226982396 559.0 334.50000000000006 298.15564773017604 334.5 131.2360679774998" stroke="#323232" stroke-width="2.0" stroke-dasharray="none" fill="none" marker-end="url(#ProcessOnMarker1063)"/></g><g id="ProcessOnG1065"><path id="ProcessOnPath1066" d="M438.0 338.0C340.02347219869444 338.0 334.5 213.97652780130556 334.5 131.2360679774998" stroke="#323232" stroke-width="2.0" stroke-dasharray="none" fill="none" marker-end="url(#ProcessOnMarker1067)"/></g><g id="ProcessOnG1069" transform="matrix(1.0,0.0,0.0,1.0,783.0,165.0)" opacity="1.0"><path id="ProcessOnPath1070" d="M0.0 0.0L123.0 0.0L123.0 37.0L0.0 37.0Z" stroke="#000000" stroke-width="2.0" stroke-dasharray="2.0 3.0" opacity="1.0" fill="#ffcccc"/><g id="ProcessOnG1071" transform="matrix(1.0,0.0,0.0,1.0,10.0,10.375)"><text id="ProcessOnText1072" fill="#000000" font-size="13" x="50.5" y="13.325" font-family="微软雅黑" font-weight="normal" font-style="normal" text-decoration="none" family="微软雅黑" text-anchor="middle" size="13">DiskCache</text></g></g><g id="ProcessOnG1073" transform="matrix(1.0,0.0,0.0,1.0,697.0,421.0)" opacity="1.0"><path id="ProcessOnPath1074" d="M0.0 0.0L159.0 0.0L159.0 39.0L0.0 39.0Z" stroke="#323232" stroke-width="2.0" stroke-dasharray="none" opacity="1.0" fill="#ffffff"/><g id="ProcessOnG1075" transform="matrix(1.0,0.0,0.0,1.0,10.0,11.375)"><text id="ProcessOnText1076" fill="#000000" font-size="13" x="68.5" y="13.325" font-family="微软雅黑" font-weight="normal" font-style="normal" text-decoration="none" family="微软雅黑" text-anchor="middle" size="13">UnlimitedDiskCache</text></g></g><g id="ProcessOnG1077" transform="matrix(1.0,0.0,0.0,1.0,697.0,482.0)" opacity="1.0"><path id="ProcessOnPath1078" d="M0.0 0.0L159.0 0.0L159.0 37.0L0.0 37.0Z" stroke="#323232" stroke-width="2.0" stroke-dasharray="none" opacity="1.0" fill="#ffffff"/><g id="ProcessOnG1079" transform="matrix(1.0,0.0,0.0,1.0,10.0,10.375)"><text id="ProcessOnText1080" fill="#000000" font-size="13" x="68.5" y="13.325" font-family="微软雅黑" font-weight="normal" font-style="normal" text-decoration="none" family="微软雅黑" text-anchor="middle" size="13">LimitedAgeDiskCache</text></g></g><g id="ProcessOnG1081" transform="matrix(1.0,0.0,0.0,1.0,890.0,314.0)" opacity="1.0"><path id="ProcessOnPath1082" d="M0.0 0.0L123.0 0.0L123.0 37.0L0.0 37.0Z" stroke="#323232" stroke-width="2.0" stroke-dasharray="none" opacity="1.0" fill="#ffffff"/><g id="ProcessOnG1083" transform="matrix(1.0,0.0,0.0,1.0,10.0,10.375)"><text id="ProcessOnText1084" fill="#000000" font-size="13" x="50.5" y="13.325" font-family="微软雅黑" font-weight="normal" font-style="normal" text-decoration="none" family="微软雅黑" text-anchor="middle" size="13">LruDiskCache</text></g></g><g id="ProcessOnG1085" transform="matrix(1.0,0.0,0.0,1.0,697.0,314.0)" opacity="1.0"><path id="ProcessOnPath1086" d="M0.0 0.0L159.0 0.0L159.0 37.0L0.0 37.0Z" stroke="#323232" stroke-width="2.0" stroke-dasharray="none" opacity="1.0" fill="#ffffff"/><g id="ProcessOnG1087" transform="matrix(1.0,0.0,0.0,1.0,10.0,10.375)"><text id="ProcessOnText1088" fill="#000000" font-size="13" x="68.5" y="13.325" font-family="微软雅黑" font-weight="normal" font-style="normal" text-decoration="none" family="微软雅黑" text-anchor="middle" size="13">BaseDiskCache</text></g></g><g id="ProcessOnG1089"><path id="ProcessOnPath1090" d="M776.5 399.0C776.5 379.79999999999995 776.5 370.20000000000005 776.5 366.2360679774998" stroke="#323232" stroke-width="2.0" stroke-dasharray="none" fill="none" marker-end="url(#ProcessOnMarker1091)"/></g><g id="ProcessOnG1093"><path id="ProcessOnPath1094" d="M951.5 314.0L855.024813341586 213.01662704913667" stroke="#323232" stroke-width="2.0" stroke-dasharray="none" fill="none" marker-end="url(#ProcessOnMarker1095)"/></g><g id="ProcessOnG1097"><path id="ProcessOnPath1098" d="M776.5 314.0L836.5928138678564 215.0236006882364" stroke="#323232" stroke-width="2.0" stroke-dasharray="none" fill="none" marker-end="url(#ProcessOnMarker1099)"/></g><g id="ProcessOnG1101" transform="matrix(1.0,0.0,0.0,1.0,80.75,160.0)" opacity="1.0"><path id="ProcessOnPath1102" d="M0.0 0.0L176.0 0.0L176.0 42.0L0.0 42.0Z" stroke="#323232" stroke-width="2.0" stroke-dasharray="none" opacity="1.0" fill="#ffffff"/><g id="ProcessOnG1103" transform="matrix(1.0,0.0,0.0,1.0,10.0,12.875)"><text id="ProcessOnText1104" fill="#000000" font-size="13" x="77.0" y="13.325" font-family="微软雅黑" font-weight="normal" font-style="normal" text-decoration="none" family="微软雅黑" text-anchor="middle" size="13">BaseMemoryCache</text></g></g><g id="ProcessOnG1105"><path id="ProcessOnPath1106" d="M168.75 239.0L168.75 217.2360679774998" stroke="#323232" stroke-width="2.0" stroke-dasharray="none" fill="none" marker-end="url(#ProcessOnMarker1107)"/></g><g id="ProcessOnG1109"><path id="ProcessOnPath1110" d="M168.75 160.0L319.77396431445453 119.9091738773092" stroke="#323232" stroke-width="2.0" stroke-dasharray="none" fill="none" marker-end="url(#ProcessOnMarker1111)"/></g></g></g></svg>