<svg xmlns="http://www.w3.org/2000/svg" xmlns:xlink="http://www.w3.org/1999/xlink" id="processonSvg1000" viewBox="121.0 75.0 624.0 623.0" width="624.0" height="623.0"><defs id="ProcessOnDefs1001"><marker id="ProcessOnMarker1048" markerUnits="userSpaceOnUse" orient="auto" markerWidth="16.23606797749979" markerHeight="10.550836550532098" viewBox="-1.0 -1.3763819204711736 16.23606797749979 10.550836550532098" refX="-1.0" refY="3.8990363547948754"><path id="ProcessOnPath1049" d="M12.0 3.8990363547948754L0.0 7.798072709589751V0.0Z" stroke="#323232" stroke-width="2.0" fill="#323232" transform="matrix(1.0,0.0,0.0,1.0,0.0,0.0)"/></marker><marker id="ProcessOnMarker1055" markerUnits="userSpaceOnUse" orient="auto" markerWidth="16.23606797749979" markerHeight="10.550836550532098" viewBox="-1.0 -1.3763819204711736 16.23606797749979 10.550836550532098" refX="-1.0" refY="3.8990363547948754"><path id="ProcessOnPath1056" d="M12.0 3.8990363547948754L0.0 7.798072709589751V0.0Z" stroke="#323232" stroke-width="2.0" fill="#323232" transform="matrix(1.0,0.0,0.0,1.0,0.0,0.0)"/></marker><marker id="ProcessOnMarker1062" markerUnits="userSpaceOnUse" orient="auto" markerWidth="16.23606797749979" markerHeight="10.550836550532098" viewBox="-1.0 -1.3763819204711736 16.23606797749979 10.550836550532098" refX="-1.0" refY="3.8990363547948754"><path id="ProcessOnPath1063" d="M12.0 3.8990363547948754L0.0 7.798072709589751V0.0Z" stroke="#ff0000" stroke-width="2.0" fill="#ff0000" transform="matrix(1.0,0.0,0.0,1.0,0.0,0.0)"/></marker><marker id="ProcessOnMarker1069" markerUnits="userSpaceOnUse" orient="auto" markerWidth="16.23606797749979" markerHeight="10.550836550532098" viewBox="-1.0 -1.3763819204711736 16.23606797749979 10.550836550532098" refX="-1.0" refY="3.8990363547948754"><path id="ProcessOnPath1070" d="M12.0 3.8990363547948754L0.0 7.798072709589751V0.0Z" stroke="#323232" stroke-width="2.0" fill="#323232" transform="matrix(1.0,0.0,0.0,1.0,0.0,0.0)"/></marker><marker id="ProcessOnMarker1076" markerUnits="userSpaceOnUse" orient="auto" markerWidth="16.23606797749979" markerHeight="10.550836550532098" viewBox="-1.0 -1.3763819204711736 16.23606797749979 10.550836550532098" refX="-1.0" refY="3.8990363547948754"><path id="ProcessOnPath1077" d="M12.0 3.8990363547948754L0.0 7.798072709589751V0.0Z" stroke="#ff0000" stroke-width="2.0" fill="#ff0000" transform="matrix(1.0,0.0,0.0,1.0,0.0,0.0)"/></marker><marker id="ProcessOnMarker1083" markerUnits="userSpaceOnUse" orient="auto" markerWidth="16.23606797749979" markerHeight="10.550836550532098" viewBox="-1.0 -1.3763819204711736 16.23606797749979 10.550836550532098" refX="-1.0" refY="3.8990363547948754"><path id="ProcessOnPath1084" d="M12.0 3.8990363547948754L0.0 7.798072709589751V0.0Z" stroke="#323232" stroke-width="2.0" fill="#323232" transform="matrix(1.0,0.0,0.0,1.0,0.0,0.0)"/></marker><marker id="ProcessOnMarker1090" markerUnits="userSpaceOnUse" orient="auto" markerWidth="16.23606797749979" markerHeight="10.550836550532098" viewBox="-1.0 -1.3763819204711736 16.23606797749979 10.550836550532098" refX="-1.0" refY="3.8990363547948754"><path id="ProcessOnPath1091" d="M12.0 3.8990363547948754L0.0 7.798072709589751V0.0Z" stroke="#323232" stroke-width="2.0" fill="#323232" transform="matrix(1.0,0.0,0.0,1.0,0.0,0.0)"/></marker></defs><g id="ProcessOnG1002"><path id="ProcessOnPath1003" d="M121.0 75.0H745.0V698.0H121.0V75.0Z" fill="none"/><g id="ProcessOnG1004"><g id="ProcessOnG1005" transform="matrix(1.0,0.0,0.0,1.0,141.0,95.0)" opacity="1.0"><path id="ProcessOnPath1006" d="M0.0 0.0L193.25 0.0L193.25 583.0L0.0 583.0Z" stroke="#323232" stroke-width="2.0" stroke-dasharray="none" opacity="1.0" fill="#ffffff"/></g><g id="ProcessOnG1007" transform="matrix(1.0,0.0,0.0,1.0,530.0,95.0)" opacity="1.0"><path id="ProcessOnPath1008" d="M0.0 0.0L195.0 0.0L195.0 583.0L0.0 583.0Z" stroke="#323232" stroke-width="2.0" stroke-dasharray="none" opacity="1.0" fill="#ffffff"/></g><g id="ProcessOnG1009" transform="matrix(1.0,0.0,0.0,1.0,160.25,158.0)" opacity="1.0"><path id="ProcessOnPath1010" d="M0.0 0.0L139.5 0.0L139.5 40.0L0.0 40.0Z" stroke="#323232" stroke-width="2.0" stroke-dasharray="none" opacity="1.0" fill="#e5ccff"/><g id="ProcessOnG1011" transform="matrix(1.0,0.0,0.0,1.0,10.0,11.875)"><text id="ProcessOnText1012" fill="#000000" font-size="13" x="58.75" y="13.325" font-family="微软雅黑" font-weight="normal" font-style="normal" text-decoration="none" family="微软雅黑" text-anchor="middle" size="13">ApplicationThread</text></g></g><g id="ProcessOnG1013" transform="matrix(1.0,0.0,0.0,1.0,160.25,282.0)" opacity="1.0"><path id="ProcessOnPath1014" d="M0.0 0.0L139.5 0.0L139.5 40.0L0.0 40.0Z" stroke="#323232" stroke-width="2.0" stroke-dasharray="none" opacity="1.0" fill="#e5ccff"/><g id="ProcessOnG1015" transform="matrix(1.0,0.0,0.0,1.0,10.0,11.875)"><text id="ProcessOnText1016" fill="#000000" font-size="13" x="58.75" y="13.325" font-family="微软雅黑" font-weight="normal" font-style="normal" text-decoration="none" family="微软雅黑" text-anchor="middle" size="13">ActivityThread</text></g></g><g id="ProcessOnG1017" transform="matrix(1.0,0.0,0.0,1.0,156.25,406.0)" opacity="1.0"><path id="ProcessOnPath1018" d="M0.0 0.0L78.75 0.0L78.75 44.0L0.0 44.0Z" stroke="#323232" stroke-width="2.0" stroke-dasharray="none" opacity="1.0" fill="#cce5ff"/><g id="ProcessOnG1019" transform="matrix(1.0,0.0,0.0,1.0,10.0,5.75)"><text id="ProcessOnText1020" fill="#000000" font-size="13" x="28.375" y="13.325" font-family="微软雅黑" font-weight="normal" font-style="normal" text-decoration="none" family="微软雅黑" text-anchor="middle" size="13">Activity </text><text id="ProcessOnText1021" fill="#000000" font-size="13" x="28.375" y="29.575" font-family="微软雅黑" font-weight="normal" font-style="normal" text-decoration="none" family="微软雅黑" text-anchor="middle" size="13">A</text></g></g><g id="ProcessOnG1022" transform="matrix(1.0,0.0,0.0,1.0,160.25,624.0)" opacity="1.0"><path id="ProcessOnPath1023" d="M0.0 0.0L154.75 0.0L154.75 38.0L0.0 38.0Z" stroke="#323232" stroke-width="2.0" stroke-dasharray="none" opacity="1.0" fill="#e5ccff"/><g id="ProcessOnG1024" transform="matrix(1.0,0.0,0.0,1.0,10.0,2.75)"><text id="ProcessOnText1025" fill="#000000" font-size="13" x="66.375" y="13.325" font-family="微软雅黑" font-weight="normal" font-style="normal" text-decoration="none" family="微软雅黑" text-anchor="middle" size="13">ActivityManagerProx</text><text id="ProcessOnText1026" fill="#000000" font-size="13" x="66.375" y="29.575" font-family="微软雅黑" font-weight="normal" font-style="normal" text-decoration="none" family="微软雅黑" text-anchor="middle" size="13">y</text></g></g><g id="ProcessOnG1027" transform="matrix(1.0,0.0,0.0,1.0,544.25,158.0)" opacity="1.0"><path id="ProcessOnPath1028" d="M0.0 0.0L166.5 0.0L166.5 40.0L0.0 40.0Z" stroke="#323232" stroke-width="2.0" stroke-dasharray="none" opacity="1.0" fill="#e5ccff"/><g id="ProcessOnG1029" transform="matrix(1.0,0.0,0.0,1.0,10.0,3.75)"><text id="ProcessOnText1030" fill="#000000" font-size="13" x="72.25" y="13.325" font-family="微软雅黑" font-weight="normal" font-style="normal" text-decoration="none" family="微软雅黑" text-anchor="middle" size="13">ApplicationThreadProx</text><text id="ProcessOnText1031" fill="#000000" font-size="13" x="72.25" y="29.575" font-family="微软雅黑" font-weight="normal" font-style="normal" text-decoration="none" family="微软雅黑" text-anchor="middle" size="13">y</text></g></g><g id="ProcessOnG1032" transform="matrix(1.0,0.0,0.0,1.0,544.25,623.0)" opacity="1.0"><path id="ProcessOnPath1033" d="M0.0 0.0L166.5 0.0L166.5 40.0L0.0 40.0Z" stroke="#323232" stroke-width="2.0" stroke-dasharray="none" opacity="1.0" fill="#e5ccff"/><g id="ProcessOnG1034" transform="matrix(1.0,0.0,0.0,1.0,10.0,3.75)"><text id="ProcessOnText1035" fill="#000000" font-size="13" x="72.25" y="13.325" font-family="微软雅黑" font-weight="normal" font-style="normal" text-decoration="none" family="微软雅黑" text-anchor="middle" size="13">ActivityManagerServic</text><text id="ProcessOnText1036" fill="#000000" font-size="13" x="72.25" y="29.575" font-family="微软雅黑" font-weight="normal" font-style="normal" text-decoration="none" family="微软雅黑" text-anchor="middle" size="13">e</text></g></g><g id="ProcessOnG1037" transform="matrix(1.0,0.0,0.0,1.0,245.25,406.0)" opacity="1.0"><path id="ProcessOnPath1038" d="M0.0 0.0L78.75 0.0L78.75 44.0L0.0 44.0Z" stroke="#323232" stroke-width="2.0" stroke-dasharray="none" opacity="1.0" fill="#cce5ff"/><g id="ProcessOnG1039" transform="matrix(1.0,0.0,0.0,1.0,10.0,5.75)"><text id="ProcessOnText1040" fill="#000000" font-size="13" x="28.375" y="13.325" font-family="微软雅黑" font-weight="normal" font-style="normal" text-decoration="none" family="微软雅黑" text-anchor="middle" size="13">ActivityB</text><text id="ProcessOnText1041" fill="#000000" font-size="13" x="28.375" y="29.575" font-family="微软雅黑" font-weight="normal" font-style="normal" text-decoration="none" family="微软雅黑" text-anchor="middle" size="13">onCreate</text></g></g><g id="ProcessOnG1042" transform="matrix(1.0,0.0,0.0,1.0,160.25,521.0)" opacity="1.0"><path id="ProcessOnPath1043" d="M0.0 0.0L154.75 0.0L154.75 38.0L0.0 38.0Z" stroke="#323232" stroke-width="2.0" stroke-dasharray="none" opacity="1.0" fill="#ffe6cc"/><g id="ProcessOnG1044" transform="matrix(1.0,0.0,0.0,1.0,10.0,10.875)"><text id="ProcessOnText1045" fill="#000000" font-size="13" x="66.375" y="13.325" font-family="微软雅黑" font-weight="normal" font-style="normal" text-decoration="none" family="微软雅黑" text-anchor="middle" size="13">Instrumentation</text></g></g><g id="ProcessOnG1046"><path id="ProcessOnPath1047" d="M195.625 450.0L195.625 485.5L196.0 485.5L196.0 505.7639320225002" stroke="#323232" stroke-width="2.0" stroke-dasharray="none" fill="none" marker-end="url(#ProcessOnMarker1048)"/><g id="ProcessOnG1050" transform="matrix(1.0,0.0,0.0,1.0,195.625,469.94446601125014)"><path id="ProcessOnPath1051" d="M0 0H85.0V16.25H0Z" fill="#fff" transform="matrix(1.0,0.0,0.0,1.0,-42.5,0.0)"/><text id="ProcessOnText1052" fill="#000000" font-size="13" x="0.0" y="13.325" font-family="微软雅黑" font-weight="normal" font-style="normal" text-decoration="none" family="微软雅黑" text-anchor="middle" size="13">1.startActivity</text></g></g><g id="ProcessOnG1053"><path id="ProcessOnPath1054" d="M237.625 559.0L237.625 591.5L237.625 591.5L237.625 608.7639320225002" stroke="#323232" stroke-width="2.0" stroke-dasharray="none" fill="none" marker-end="url(#ProcessOnMarker1055)"/><g id="ProcessOnG1057" transform="matrix(1.0,0.0,0.0,1.0,237.625,575.7569660112501)"><path id="ProcessOnPath1058" d="M0 0H115.0V16.25H0Z" fill="#fff" transform="matrix(1.0,0.0,0.0,1.0,-57.5,0.0)"/><text id="ProcessOnText1059" fill="#000000" font-size="13" x="0.0" y="13.325" font-family="微软雅黑" font-weight="normal" font-style="normal" text-decoration="none" family="微软雅黑" text-anchor="middle" size="13">2.execStartActivity</text></g></g><g id="ProcessOnG1060"><path id="ProcessOnPath1061" d="M315.0 643.0L429.625 643.0L429.625 643.0L529.0139320225002 643.0" stroke="#ff0000" stroke-width="2.0" stroke-dasharray="none" fill="none" marker-end="url(#ProcessOnMarker1062)"/><g id="ProcessOnG1064" transform="matrix(1.0,0.0,0.0,1.0,422.0069660112501,634.875)"><path id="ProcessOnPath1065" d="M0 0H85.0V16.25H0Z" fill="#fff" transform="matrix(1.0,0.0,0.0,1.0,-42.5,0.0)"/><text id="ProcessOnText1066" fill="#ff0000" font-size="13" x="0.0" y="13.325" font-family="微软雅黑" font-weight="normal" font-style="normal" text-decoration="none" family="微软雅黑" text-anchor="middle" size="13">3.startActivity</text></g></g><g id="ProcessOnG1067"><path id="ProcessOnPath1068" d="M627.5 623.0L627.5 410.5L627.5 410.5L627.5 213.2360679774998" stroke="#323232" stroke-width="2.0" stroke-dasharray="none" fill="none" marker-end="url(#ProcessOnMarker1069)"/><g id="ProcessOnG1071" transform="matrix(1.0,0.0,0.0,1.0,627.5,409.9930339887499)"><path id="ProcessOnPath1072" d="M0 0H153.0V16.25H0Z" fill="#fff" transform="matrix(1.0,0.0,0.0,1.0,-76.5,0.0)"/><text id="ProcessOnText1073" fill="#000000" font-size="13" x="0.0" y="13.325" font-family="微软雅黑" font-weight="normal" font-style="normal" text-decoration="none" family="微软雅黑" text-anchor="middle" size="13">4.realStartActivityLocked</text></g></g><g id="ProcessOnG1074"><path id="ProcessOnPath1075" d="M544.25 178.0L422.0 178.0L422.0 178.0L314.9860679774998 178.0" stroke="#ff0000" stroke-width="2.0" stroke-dasharray="none" fill="none" marker-end="url(#ProcessOnMarker1076)"/><g id="ProcessOnG1078" transform="matrix(1.0,0.0,0.0,1.0,429.61803398874986,169.875)"><path id="ProcessOnPath1079" d="M0 0H156.0V16.25H0Z" fill="#fff" transform="matrix(1.0,0.0,0.0,1.0,-78.0,0.0)"/><text id="ProcessOnText1080" fill="#ff0000" font-size="13" x="0.0" y="13.325" font-family="微软雅黑" font-weight="normal" font-style="normal" text-decoration="none" family="微软雅黑" text-anchor="middle" size="13">5.scheduleLaunchActivity</text></g></g><g id="ProcessOnG1081"><path id="ProcessOnPath1082" d="M230.0 198.0L230.0 240.0L230.0 240.0L230.0 266.7639320225002" stroke="#323232" stroke-width="2.0" stroke-dasharray="none" fill="none" marker-end="url(#ProcessOnMarker1083)"/><g id="ProcessOnG1085" transform="matrix(1.0,0.0,0.0,1.0,230.0,224.2569660112501)"><path id="ProcessOnPath1086" d="M0 0H147.0V16.25H0Z" fill="#fff" transform="matrix(1.0,0.0,0.0,1.0,-73.5,0.0)"/><text id="ProcessOnText1087" fill="#000000" font-size="13" x="0.0" y="13.325" font-family="微软雅黑" font-weight="normal" font-style="normal" text-decoration="none" family="微软雅黑" text-anchor="middle" size="13">6. H.LAUNCH_ACTIVITY</text></g></g><g id="ProcessOnG1088"><path id="ProcessOnPath1089" d="M230.0 322.0L276.3188482577995 393.2271533849915" stroke="#323232" stroke-width="2.0" stroke-dasharray="none" fill="none" marker-end="url(#ProcessOnMarker1090)"/><g id="ProcessOnG1092" transform="matrix(1.0,0.0,0.0,1.0,253.15942412889976,349.4885766924957)"><path id="ProcessOnPath1093" d="M0 0H143.00000000000003V16.25H0Z" fill="#fff" transform="matrix(1.0,0.0,0.0,1.0,-71.50000000000001,0.0)"/><text id="ProcessOnText1094" fill="#000000" font-size="13" x="0.0" y="13.325" font-family="微软雅黑" font-weight="normal" font-style="normal" text-decoration="none" family="微软雅黑" text-anchor="middle" size="13">7.handleLaunchActivity</text></g></g><g id="ProcessOnG1095" transform="matrix(1.0,0.0,0.0,1.0,176.0,104.5)" opacity="1.0"><path id="ProcessOnPath1096" d="M0.0 0.0L108.0 0.0L108.0 27.0L0.0 27.0Z" stroke="none" stroke-width="0.0" stroke-dasharray="none" opacity="1.0" fill="none"/><g id="ProcessOnG1097" transform="matrix(1.0,0.0,0.0,1.0,0.0,4.125)"><text id="ProcessOnText1098" fill="#000000" font-size="15" x="53.0" y="15.375" font-family="微软雅黑" font-weight="bold" font-style="normal" text-decoration="none" family="微软雅黑" text-anchor="middle" size="15">App进程</text></g></g><g id="ProcessOnG1099" transform="matrix(1.0,0.0,0.0,1.0,559.0,103.0)" opacity="1.0"><path id="ProcessOnPath1100" d="M0.0 0.0L142.0 0.0L142.0 30.0L0.0 30.0Z" stroke="none" stroke-width="0.0" stroke-dasharray="none" opacity="1.0" fill="none"/><g id="ProcessOnG1101" transform="matrix(1.0,0.0,0.0,1.0,0.0,5.625)"><text id="ProcessOnText1102" fill="#000000" font-size="15" x="70.0" y="15.375" font-family="微软雅黑" font-weight="bold" font-style="normal" text-decoration="none" family="微软雅黑" text-anchor="middle" size="15">system_server进程</text></g></g></g></g></svg>