<svg xmlns="http://www.w3.org/2000/svg" xmlns:xlink="http://www.w3.org/1999/xlink" id="processonSvg1000" viewBox="113.0 148.5 953.0 561.5" width="953.0" height="561.5"><defs id="ProcessOnDefs1001"><marker id="ProcessOnMarker1053" markerUnits="userSpaceOnUse" orient="auto" markerWidth="16.23606797749979" markerHeight="10.550836550532098" viewBox="-1.0 -1.3763819204711736 16.23606797749979 10.550836550532098" refX="-1.0" refY="3.8990363547948754"><path id="ProcessOnPath1054" d="M12.0 3.8990363547948754L0.0 7.798072709589751V0.0Z" stroke="#ff6666" stroke-width="2.0" fill="#ff6666" transform="matrix(1.0,0.0,0.0,1.0,0.0,0.0)"/></marker><marker id="ProcessOnMarker1057" markerUnits="userSpaceOnUse" orient="auto" markerWidth="16.23606797749979" markerHeight="10.550836550532098" viewBox="-1.0 -1.3763819204711736 16.23606797749979 10.550836550532098" refX="-1.0" refY="3.8990363547948754"><path id="ProcessOnPath1058" d="M12.0 3.8990363547948754L0.0 7.798072709589751V0.0Z" stroke="#ff6666" stroke-width="2.0" fill="#ff6666" transform="matrix(1.0,0.0,0.0,1.0,0.0,0.0)"/></marker><marker id="ProcessOnMarker1074" markerUnits="userSpaceOnUse" orient="auto" markerWidth="16.23606797749979" markerHeight="10.550836550532098" viewBox="-1.0 -1.3763819204711736 16.23606797749979 10.550836550532098" refX="-1.0" refY="3.8990363547948754"><path id="ProcessOnPath1075" d="M12.0 3.8990363547948754L0.0 7.798072709589751V0.0Z" stroke="#ff6666" stroke-width="2.0" fill="#ff6666" transform="matrix(1.0,0.0,0.0,1.0,0.0,0.0)"/></marker><marker id="ProcessOnMarker1081" markerUnits="userSpaceOnUse" orient="auto" markerWidth="16.23606797749979" markerHeight="10.550836550532098" viewBox="-1.0 -1.3763819204711736 16.23606797749979 10.550836550532098" refX="-1.0" refY="3.8990363547948754"><path id="ProcessOnPath1082" d="M12.0 3.8990363547948754L0.0 7.798072709589751V0.0Z" stroke="#ff6666" stroke-width="2.0" fill="#ff6666" transform="matrix(1.0,0.0,0.0,1.0,0.0,0.0)"/></marker><marker id="ProcessOnMarker1088" markerUnits="userSpaceOnUse" orient="auto" markerWidth="16.23606797749979" markerHeight="10.550836550532098" viewBox="-1.0 -1.3763819204711736 16.23606797749979 10.550836550532098" refX="-1.0" refY="3.8990363547948754"><path id="ProcessOnPath1089" d="M12.0 3.8990363547948754L0.0 7.798072709589751V0.0Z" stroke="#ff6666" stroke-width="2.0" fill="#ff6666" transform="matrix(1.0,0.0,0.0,1.0,0.0,0.0)"/></marker><marker id="ProcessOnMarker1111" markerUnits="userSpaceOnUse" orient="auto" markerWidth="16.23606797749979" markerHeight="10.550836550532098" viewBox="-1.0 -1.3763819204711736 16.23606797749979 10.550836550532098" refX="-1.0" refY="3.8990363547948754"><path id="ProcessOnPath1112" d="M12.0 3.8990363547948754L0.0 7.798072709589751V0.0Z" stroke="#ff6666" stroke-width="2.0" fill="#ff6666" transform="matrix(1.0,0.0,0.0,1.0,0.0,0.0)"/></marker><marker id="ProcessOnMarker1115" markerUnits="userSpaceOnUse" orient="auto" markerWidth="16.23606797749979" markerHeight="10.550836550532098" viewBox="-1.0 -1.3763819204711736 16.23606797749979 10.550836550532098" refX="-1.0" refY="3.8990363547948754"><path id="ProcessOnPath1116" d="M12.0 3.8990363547948754L0.0 7.798072709589751V0.0Z" stroke="#323232" stroke-width="2.0" fill="#323232" transform="matrix(1.0,0.0,0.0,1.0,0.0,0.0)"/></marker><marker id="ProcessOnMarker1158" markerUnits="userSpaceOnUse" orient="auto" markerWidth="16.23606797749979" markerHeight="10.550836550532098" viewBox="-1.0 -1.3763819204711736 16.23606797749979 10.550836550532098" refX="-1.0" refY="3.8990363547948754"><path id="ProcessOnPath1159" d="M12.0 3.8990363547948754L0.0 7.798072709589751V0.0Z" stroke="#66b2ff" stroke-width="2.0" fill="#66b2ff" transform="matrix(1.0,0.0,0.0,1.0,0.0,0.0)"/></marker><marker id="ProcessOnMarker1177" markerUnits="userSpaceOnUse" orient="auto" markerWidth="16.23606797749979" markerHeight="10.550836550532098" viewBox="-1.0 -1.3763819204711736 16.23606797749979 10.550836550532098" refX="15.23606797749979" refY="3.8990363547948754"><path id="ProcessOnPath1178" d="M12.0 3.8990363547948754L0.0 7.798072709589751V0.0Z" stroke="#323232" stroke-width="2.0" fill="#323232" transform="matrix(-1.0,1.2246467991473532E-16,-1.2246467991473532E-16,-1.0,14.23606797749979,7.798072709589751)"/></marker><marker id="ProcessOnMarker1179" markerUnits="userSpaceOnUse" orient="auto" markerWidth="16.23606797749979" markerHeight="10.550836550532098" viewBox="-1.0 -1.3763819204711736 16.23606797749979 10.550836550532098" refX="-1.0" refY="3.8990363547948754"><path id="ProcessOnPath1180" d="M12.0 3.8990363547948754L0.0 7.798072709589751V0.0Z" stroke="#323232" stroke-width="2.0" fill="#323232" transform="matrix(1.0,0.0,0.0,1.0,0.0,0.0)"/></marker></defs><g id="ProcessOnG1002"><path id="ProcessOnPath1003" d="M113.0 148.5H1066.0V710.0H113.0V148.5Z" fill="none"/><g id="ProcessOnG1004"><g id="ProcessOnG1005" transform="matrix(1.0,0.0,0.0,1.0,452.5,295.0)" opacity="1.0"><path id="ProcessOnPath1006" d="M0.0 0.0L379.0 0.0L379.0 129.0L0.0 129.0Z" stroke="#323232" stroke-width="2.0" stroke-dasharray="none" opacity="1.0" fill="#ffffff"/></g><g id="ProcessOnG1007" transform="matrix(1.0,0.0,0.0,1.0,904.0,466.0)" opacity="1.0"><path id="ProcessOnPath1008" d="M0.0 0.0L142.0 0.0L142.0 224.0L0.0 224.0Z" stroke="#323232" stroke-width="2.0" stroke-dasharray="none" opacity="1.0" fill="#ffffff"/></g><g id="ProcessOnG1009" transform="matrix(1.0,0.0,0.0,1.0,452.5,466.0)" opacity="1.0"><path id="ProcessOnPath1010" d="M0.0 0.0L379.0 0.0L379.0 224.0L0.0 224.0Z" stroke="#323232" stroke-width="2.0" stroke-dasharray="none" opacity="1.0" fill="#ffffff"/></g><g id="ProcessOnG1011" transform="matrix(1.0,0.0,0.0,1.0,473.5,311.1887755102041)" opacity="1.0"><path id="ProcessOnPath1012" d="M0.0 0.0L329.5 0.0L329.5 38.0L0.0 38.0Z" stroke="#323232" stroke-width="2.0" stroke-dasharray="none" opacity="1.0" fill="#ffffff"/></g><g id="ProcessOnG1013" transform="matrix(1.0,0.0,0.0,1.0,488.43939393939394,319.0)" opacity="1.0"><path id="ProcessOnPath1014" d="M0.0 0.0L71.56060606060606 0.0L71.56060606060606 22.37755102040819L0.0 22.37755102040819Z" stroke="#323232" stroke-width="2.0" stroke-dasharray="none" opacity="1.0" fill="#ffffff"/><g id="ProcessOnG1015" transform="matrix(1.0,0.0,0.0,1.0,10.0,3.0637755102040956)"><text id="ProcessOnText1016" fill="#000000" font-size="13" x="24.78030303030303" y="13.325" font-family="微软雅黑" font-weight="normal" font-style="normal" text-decoration="none" family="微软雅黑" text-anchor="middle" size="13">journal</text></g></g><g id="ProcessOnG1017" transform="matrix(1.0,0.0,0.0,1.0,691.2962962962963,319.65816326530614)" opacity="1.0"><path id="ProcessOnPath1018" d="M0.0 0.0L95.7037037037037 0.0L95.7037037037037 21.061224489795904L0.0 21.061224489795904Z" stroke="#323232" stroke-width="2.0" stroke-dasharray="none" opacity="1.0" fill="#ffffff"/><g id="ProcessOnG1019" transform="matrix(1.0,0.0,0.0,1.0,10.0,2.4056122448979522)"><text id="ProcessOnText1020" fill="#000000" font-size="13" x="36.85185185185185" y="13.325" font-family="微软雅黑" font-weight="normal" font-style="normal" text-decoration="none" family="微软雅黑" text-anchor="middle" size="13">journal.bkp</text></g></g><g id="ProcessOnG1021" transform="matrix(1.0,0.0,0.0,1.0,473.5,507.5)" opacity="1.0"><path id="ProcessOnPath1022" d="M0.0 0.0L133.0 0.0L133.0 146.0L0.0 146.0Z" stroke="#323232" stroke-width="2.0" stroke-dasharray="none" opacity="1.0" fill="#ffffff"/></g><g id="ProcessOnG1023" transform="matrix(1.0,0.0,0.0,1.0,490.5,556.5)" opacity="1.0"><path id="ProcessOnPath1024" d="M0.0 0.0L99.0 0.0L99.0 33.0L0.0 33.0Z" stroke="#323232" stroke-width="2.0" stroke-dasharray="none" opacity="1.0" fill="#ffffff"/><g id="ProcessOnG1025" transform="matrix(1.0,0.0,0.0,1.0,10.0,0.25)"><text id="ProcessOnText1026" fill="#000000" font-size="13" x="38.5" y="13.325" font-family="微软雅黑" font-weight="normal" font-style="normal" text-decoration="none" family="微软雅黑" text-anchor="middle" size="13">keyxxx.0.tm</text><text id="ProcessOnText1027" fill="#000000" font-size="13" x="38.5" y="29.575" font-family="微软雅黑" font-weight="normal" font-style="normal" text-decoration="none" family="微软雅黑" text-anchor="middle" size="13">p</text></g></g><g id="ProcessOnG1028" transform="matrix(1.0,0.0,0.0,1.0,490.5,605.5)" opacity="1.0"><path id="ProcessOnPath1029" d="M0.0 0.0L99.0 0.0L99.0 33.0L0.0 33.0Z" stroke="#323232" stroke-width="2.0" stroke-dasharray="none" opacity="1.0" fill="#ffffff"/><g id="ProcessOnG1030" transform="matrix(1.0,0.0,0.0,1.0,10.0,0.25)"><text id="ProcessOnText1031" fill="#000000" font-size="13" x="38.5" y="13.325" font-family="微软雅黑" font-weight="normal" font-style="normal" text-decoration="none" family="微软雅黑" text-anchor="middle" size="13">keyxxx.1.tm</text><text id="ProcessOnText1032" fill="#000000" font-size="13" x="38.5" y="29.575" font-family="微软雅黑" font-weight="normal" font-style="normal" text-decoration="none" family="微软雅黑" text-anchor="middle" size="13">p</text></g></g><g id="ProcessOnG1033" transform="matrix(1.0,0.0,0.0,1.0,502.5,518.5)" opacity="1.0"><path id="ProcessOnPath1034" d="M0.0 0.0L75.0 0.0L75.0 25.0L0.0 25.0Z" stroke="none" stroke-width="0.0" stroke-dasharray="none" opacity="1.0" fill="none"/><g id="ProcessOnG1035" transform="matrix(1.0,0.0,0.0,1.0,0.0,4.375)"><text id="ProcessOnText1036" fill="#000000" font-size="13" x="36.5" y="13.325" font-family="微软雅黑" font-weight="normal" font-style="normal" text-decoration="none" family="微软雅黑" text-anchor="middle" size="13">dirtyFiles</text></g></g><g id="ProcessOnG1037" transform="matrix(1.0,0.0,0.0,1.0,663.5,514.5)" opacity="1.0"><path id="ProcessOnPath1038" d="M0.0 0.0L136.0 0.0L136.0 139.0L0.0 139.0Z" stroke="#323232" stroke-width="2.0" stroke-dasharray="none" opacity="1.0" fill="#ffffff"/></g><g id="ProcessOnG1039" transform="matrix(1.0,0.0,0.0,1.0,685.5,556.5)" opacity="1.0"><path id="ProcessOnPath1040" d="M0.0 0.0L99.0 0.0L99.0 33.0L0.0 33.0Z" stroke="#323232" stroke-width="2.0" stroke-dasharray="none" opacity="1.0" fill="#ffffff"/><g id="ProcessOnG1041" transform="matrix(1.0,0.0,0.0,1.0,10.0,8.375)"><text id="ProcessOnText1042" fill="#000000" font-size="13" x="38.5" y="13.325" font-family="微软雅黑" font-weight="normal" font-style="normal" text-decoration="none" family="微软雅黑" text-anchor="middle" size="13">keyxxx.0</text></g></g><g id="ProcessOnG1043" transform="matrix(1.0,0.0,0.0,1.0,685.5,605.5)" opacity="1.0"><path id="ProcessOnPath1044" d="M0.0 0.0L99.0 0.0L99.0 33.0L0.0 33.0Z" stroke="#323232" stroke-width="2.0" stroke-dasharray="none" opacity="1.0" fill="#ffffff"/><g id="ProcessOnG1045" transform="matrix(1.0,0.0,0.0,1.0,10.0,8.375)"><text id="ProcessOnText1046" fill="#000000" font-size="13" x="38.5" y="13.325" font-family="微软雅黑" font-weight="normal" font-style="normal" text-decoration="none" family="微软雅黑" text-anchor="middle" size="13">keyxxx.1</text></g></g><g id="ProcessOnG1047" transform="matrix(1.0,0.0,0.0,1.0,697.5,518.5)" opacity="1.0"><path id="ProcessOnPath1048" d="M0.0 0.0L75.0 0.0L75.0 25.0L0.0 25.0Z" stroke="none" stroke-width="0.0" stroke-dasharray="none" opacity="1.0" fill="none"/><g id="ProcessOnG1049" transform="matrix(1.0,0.0,0.0,1.0,0.0,4.375)"><text id="ProcessOnText1050" fill="#000000" font-size="13" x="36.5" y="13.325" font-family="微软雅黑" font-weight="normal" font-style="normal" text-decoration="none" family="微软雅黑" text-anchor="middle" size="13">cleanFiles</text></g></g><g id="ProcessOnG1051"><path id="ProcessOnPath1052" d="M589.5 573.0L637.5 573.0L637.5 573.0L670.2639320225002 573.0" stroke="#ff6666" stroke-width="2.0" stroke-dasharray="none" fill="none" marker-end="url(#ProcessOnMarker1053)"/></g><g id="ProcessOnG1055"><path id="ProcessOnPath1056" d="M589.5 622.0L637.5 622.0L637.5 622.0L670.2639320225002 622.0" stroke="#ff6666" stroke-width="2.0" stroke-dasharray="none" fill="none" marker-end="url(#ProcessOnMarker1057)"/></g><g id="ProcessOnG1059" transform="matrix(1.0,0.0,0.0,1.0,594.5,474.5)" opacity="1.0"><path id="ProcessOnPath1060" d="M0.0 0.0L75.0 0.0L75.0 25.0L0.0 25.0Z" stroke="none" stroke-width="0.0" stroke-dasharray="none" opacity="1.0" fill="none"/><g id="ProcessOnG1061" transform="matrix(1.0,0.0,0.0,1.0,0.0,4.375)"><text id="ProcessOnText1062" fill="#000000" font-size="13" x="36.5" y="13.325" font-family="微软雅黑" font-weight="normal" font-style="normal" text-decoration="none" family="微软雅黑" text-anchor="middle" size="13">Entry</text></g></g><g id="ProcessOnG1063" transform="matrix(1.0,0.0,0.0,1.0,577.5,319.65816326530614)" opacity="1.0"><path id="ProcessOnPath1064" d="M0.0 0.0L95.02525252525254 0.0L95.02525252525254 21.061224489795904L0.0 21.061224489795904Z" stroke="#323232" stroke-width="2.0" stroke-dasharray="none" opacity="1.0" fill="#ffffff"/><g id="ProcessOnG1065" transform="matrix(1.0,0.0,0.0,1.0,10.0,2.4056122448979522)"><text id="ProcessOnText1066" fill="#000000" font-size="13" x="36.51262626262627" y="13.325" font-family="微软雅黑" font-weight="normal" font-style="normal" text-decoration="none" family="微软雅黑" text-anchor="middle" size="13">journal.tmp</text></g></g><g id="ProcessOnG1067" transform="matrix(1.0,0.0,0.0,1.0,494.0,168.5)" opacity="1.0"><path id="ProcessOnPath1068" d="M0.0 0.0L296.0 0.0L296.0 46.0L0.0 46.0Z" stroke="#323232" stroke-width="2.0" stroke-dasharray="none" opacity="1.0" fill="#ffffff"/><g id="ProcessOnG1069" transform="matrix(1.0,0.0,0.0,1.0,10.0,6.75)"><text id="ProcessOnText1070" fill="#000000" font-size="13" x="137.0" y="13.325" font-family="微软雅黑" font-weight="normal" font-style="normal" text-decoration="none" family="微软雅黑" text-anchor="middle" size="13">LinkedHashMap&lt;String, Entry&gt;</text><text id="ProcessOnText1071" fill="#000000" font-size="13" x="137.0" y="29.575" font-family="微软雅黑" font-weight="normal" font-style="normal" text-decoration="none" family="微软雅黑" text-anchor="middle" size="13">(lruEntries)</text></g></g><g id="ProcessOnG1072"><path id="ProcessOnPath1073" d="M234.0 391.5C365.20975573485384 391.5 362.79024426514616 191.5 478.7639320225002 191.5" stroke="#ff6666" stroke-width="2.0" stroke-dasharray="none" fill="none" marker-end="url(#ProcessOnMarker1074)"/><g id="ProcessOnG1076" transform="matrix(1.0,0.0,0.0,1.0,362.09549150281254,283.375)"><path id="ProcessOnPath1077" d="M0 0H91.0V16.25H0Z" fill="#fff" transform="matrix(1.0,0.0,0.0,1.0,-45.5,0.0)"/><text id="ProcessOnText1078" fill="#000000" font-size="13" x="0.0" y="13.325" font-family="微软雅黑" font-weight="normal" font-style="normal" text-decoration="none" family="微软雅黑" text-anchor="middle" size="13">Editor.edit(key)</text></g></g><g id="ProcessOnG1079"><path id="ProcessOnPath1080" d="M233.04557674096338 401.4790554669992C348.0 426.0 439.0 477.0 483.29744161040963 559.5738717397927" stroke="#ff6666" stroke-width="2.0" stroke-dasharray="none" fill="none" marker-end="url(#ProcessOnMarker1081)"/><g id="ProcessOnG1083" transform="matrix(1.0,0.0,0.0,1.0,384.66787729392166,450.63161590084894)"><path id="ProcessOnPath1084" d="M0 0H89.0V16.25H0Z" fill="#fff" transform="matrix(1.0,0.0,0.0,1.0,-44.5,0.0)"/><text id="ProcessOnText1085" fill="#000000" font-size="13" x="0.0" y="13.325" font-family="微软雅黑" font-weight="normal" font-style="normal" text-decoration="none" family="微软雅黑" text-anchor="middle" size="13">writeTo(editor)</text></g></g><g id="ProcessOnG1086"><path id="ProcessOnPath1087" d="M230.24122951685638 408.6319194266973C310.0 505.0 400.0 581.0 476.621727668419 615.7126059050296" stroke="#ff6666" stroke-width="2.0" stroke-dasharray="none" fill="none" marker-end="url(#ProcessOnMarker1088)"/><g id="ProcessOnG1090" transform="matrix(1.0,0.0,0.0,1.0,354.6078696481594,527.1680656664658)"><path id="ProcessOnPath1091" d="M0 0H94.0V16.25H0Z" fill="#fff" transform="matrix(1.0,0.0,0.0,1.0,-47.0,0.0)"/><text id="ProcessOnText1092" fill="#000000" font-size="13" x="0.0" y="13.325" font-family="微软雅黑" font-weight="normal" font-style="normal" text-decoration="none" family="微软雅黑" text-anchor="middle" size="13">Editor.commit()</text></g></g><g id="ProcessOnG1093" transform="matrix(1.0,0.0,0.0,1.0,473.5,367.5)" opacity="1.0"><path id="ProcessOnPath1094" d="M0.0 0.0L62.0 0.0L62.0 33.0L0.0 33.0Z" stroke="#323232" stroke-width="2.0" stroke-dasharray="none" opacity="1.0" fill="#ffffff"/><g id="ProcessOnG1095" transform="matrix(1.0,0.0,0.0,1.0,10.0,8.375)"><text id="ProcessOnText1096" fill="#000000" font-size="13" x="20.0" y="13.325" font-family="微软雅黑" font-weight="normal" font-style="normal" text-decoration="none" family="微软雅黑" text-anchor="middle" size="13">Entry</text></g></g><g id="ProcessOnG1097" transform="matrix(1.0,0.0,0.0,1.0,566.5,367.5)" opacity="1.0"><path id="ProcessOnPath1098" d="M0.0 0.0L58.0 0.0L58.0 33.0L0.0 33.0Z" stroke="#323232" stroke-width="2.0" stroke-dasharray="none" opacity="1.0" fill="#ffffff"/><g id="ProcessOnG1099" transform="matrix(1.0,0.0,0.0,1.0,10.0,8.375)"><text id="ProcessOnText1100" fill="#000000" font-size="13" x="18.0" y="13.325" font-family="微软雅黑" font-weight="normal" font-style="normal" text-decoration="none" family="微软雅黑" text-anchor="middle" size="13">Entry</text></g></g><g id="ProcessOnG1101" transform="matrix(1.0,0.0,0.0,1.0,658.0,367.5)" opacity="1.0"><path id="ProcessOnPath1102" d="M0.0 0.0L61.0 0.0L61.0 33.0L0.0 33.0Z" stroke="#323232" stroke-width="2.0" stroke-dasharray="none" opacity="1.0" fill="#ffffff"/><g id="ProcessOnG1103" transform="matrix(1.0,0.0,0.0,1.0,10.0,8.375)"><text id="ProcessOnText1104" fill="#000000" font-size="13" x="19.5" y="13.325" font-family="微软雅黑" font-weight="normal" font-style="normal" text-decoration="none" family="微软雅黑" text-anchor="middle" size="13">Entry</text></g></g><g id="ProcessOnG1105" transform="matrix(1.0,0.0,0.0,1.0,746.0,367.5)" opacity="1.0"><path id="ProcessOnPath1106" d="M0.0 0.0L61.0 0.0L61.0 33.0L0.0 33.0Z" stroke="#323232" stroke-width="2.0" stroke-dasharray="none" opacity="1.0" fill="#ffffff"/><g id="ProcessOnG1107" transform="matrix(1.0,0.0,0.0,1.0,10.0,8.375)"><text id="ProcessOnText1108" fill="#000000" font-size="13" x="19.5" y="13.325" font-family="微软雅黑" font-weight="normal" font-style="normal" text-decoration="none" family="微软雅黑" text-anchor="middle" size="13">...</text></g></g><g id="ProcessOnG1109"><path id="ProcessOnPath1110" d="M642.0 214.5C642.0 246.7 642.0 262.8 642.0 279.7639320225002" stroke="#ff6666" stroke-width="2.0" stroke-dasharray="none" fill="none" marker-end="url(#ProcessOnMarker1111)"/></g><g id="ProcessOnG1113"><path id="ProcessOnPath1114" d="M504.5 400.5C504.5 426.7007633476584 505.0 439.7992366523416 505.0 450.7639320225002" stroke="#323232" stroke-width="2.0" stroke-dasharray="none" fill="none" marker-end="url(#ProcessOnMarker1115)"/></g><g id="ProcessOnG1117" transform="matrix(1.0,0.0,0.0,1.0,246.0,232.0)" opacity="1.0"><path id="ProcessOnPath1118" d="M0.0 0.0L148.0 0.0L148.0 35.0L0.0 35.0Z" stroke="none" stroke-width="0.0" stroke-dasharray="none" opacity="1.0" fill="none"/><g id="ProcessOnG1119" transform="matrix(1.0,0.0,0.0,1.0,0.0,1.25)"><text id="ProcessOnText1120" fill="#ff3333" font-size="13" x="73.0" y="13.325" font-family="微软雅黑" font-weight="bold" font-style="normal" text-decoration="none" family="微软雅黑" text-anchor="middle" size="13">1.从lruEntries中查找，</text><text id="ProcessOnText1121" fill="#ff3333" font-size="13" x="73.0" y="29.575" font-family="微软雅黑" font-weight="bold" font-style="normal" text-decoration="none" family="微软雅黑" text-anchor="middle" size="13">没有则设置一个</text></g></g><g id="ProcessOnG1122" transform="matrix(1.0,0.0,0.0,1.0,361.5,430.0)" opacity="1.0"><path id="ProcessOnPath1123" d="M0.0 0.0L102.5 0.0L102.5 20.0L0.0 20.0Z" stroke="none" stroke-width="0.0" stroke-dasharray="none" opacity="1.0" fill="none"/><g id="ProcessOnG1124" transform="matrix(1.0,0.0,0.0,1.0,0.0,1.875)"><text id="ProcessOnText1125" fill="#ff3333" font-size="13" x="50.25" y="13.325" font-family="微软雅黑" font-weight="bold" font-style="normal" text-decoration="none" family="微软雅黑" text-anchor="middle" size="13">3.写入Header</text></g></g><g id="ProcessOnG1126" transform="matrix(1.0,0.0,0.0,1.0,289.0,548.0)" opacity="1.0"><path id="ProcessOnPath1127" d="M0.0 0.0L102.5 0.0L102.5 20.0L0.0 20.0Z" stroke="none" stroke-width="0.0" stroke-dasharray="none" opacity="1.0" fill="none"/><g id="ProcessOnG1128" transform="matrix(1.0,0.0,0.0,1.0,0.0,1.875)"><text id="ProcessOnText1129" fill="#ff3333" font-size="13" x="50.25" y="13.325" font-family="微软雅黑" font-weight="bold" font-style="normal" text-decoration="none" family="微软雅黑" text-anchor="middle" size="13">4.写入body</text></g></g><g id="ProcessOnG1130" transform="matrix(1.0,0.0,0.0,1.0,540.0,653.5)" opacity="1.0"><path id="ProcessOnPath1131" d="M0.0 0.0L214.0 0.0L214.0 36.5L0.0 36.5Z" stroke="none" stroke-width="0.0" stroke-dasharray="none" opacity="1.0" fill="none"/><g id="ProcessOnG1132" transform="matrix(1.0,0.0,0.0,1.0,0.0,2.0)"><text id="ProcessOnText1133" fill="#ff3333" font-size="13" x="106.0" y="13.325" font-family="微软雅黑" font-weight="bold" font-style="normal" text-decoration="none" family="微软雅黑" text-anchor="middle" size="13">5.删除dirtyFiles，保留cleanFiles，</text><text id="ProcessOnText1134" fill="#ff3333" font-size="13" x="106.0" y="29.575" font-family="微软雅黑" font-weight="bold" font-style="normal" text-decoration="none" family="微软雅黑" text-anchor="middle" size="13">Journal中增加CLEAN记录</text></g></g><g id="ProcessOnG1135" transform="matrix(1.0,0.0,0.0,1.0,846.0,354.0)" opacity="1.0"><path id="ProcessOnPath1136" d="M0.0 0.0L89.0 0.0L89.0 28.0L0.0 28.0Z" stroke="none" stroke-width="0.0" stroke-dasharray="none" opacity="1.0" fill="none"/><g id="ProcessOnG1137" transform="matrix(1.0,0.0,0.0,1.0,0.0,4.625)"><text id="ProcessOnText1138" fill="#000000" font-size="15" x="43.5" y="15.375" font-family="微软雅黑" font-weight="bold" font-style="normal" text-decoration="none" family="微软雅黑" text-anchor="middle" size="15">FileSystem</text></g></g><g id="ProcessOnG1139" transform="matrix(1.0,0.0,0.0,1.0,820.0,180.0)" opacity="1.0"><path id="ProcessOnPath1140" d="M0.0 0.0L136.0 0.0L136.0 31.0L0.0 31.0Z" stroke="none" stroke-width="0.0" stroke-dasharray="none" opacity="1.0" fill="none"/><g id="ProcessOnG1141" transform="matrix(1.0,0.0,0.0,1.0,0.0,6.125)"><text id="ProcessOnText1142" fill="#000000" font-size="15" x="67.0" y="15.375" font-family="微软雅黑" font-weight="bold" font-style="normal" text-decoration="none" family="微软雅黑" text-anchor="middle" size="15">LinkedHashMap</text></g></g><g id="ProcessOnG1143" transform="matrix(1.0,0.0,0.0,1.0,500.0,244.0)" opacity="1.0"><path id="ProcessOnPath1144" d="M0.0 0.0L117.0 0.0L117.0 37.0L0.0 37.0Z" stroke="none" stroke-width="0.0" stroke-dasharray="none" opacity="1.0" fill="none"/><g id="ProcessOnG1145" transform="matrix(1.0,0.0,0.0,1.0,0.0,2.25)"><text id="ProcessOnText1146" fill="#ff3333" font-size="13" x="57.5" y="13.325" font-family="微软雅黑" font-weight="bold" font-style="normal" text-decoration="none" family="微软雅黑" text-anchor="middle" size="13">2.Journal中增加</text><text id="ProcessOnText1147" fill="#ff3333" font-size="13" x="57.5" y="29.575" font-family="微软雅黑" font-weight="bold" font-style="normal" text-decoration="none" family="微软雅黑" text-anchor="middle" size="13">DIRTY记录</text></g></g><g id="ProcessOnG1148" transform="matrix(1.0,0.0,0.0,1.0,133.5,472.0)" opacity="1.0"><path id="ProcessOnPath1149" d="M22.0 0.0L78.0 0.0C107.33333333333333 0.0 107.33333333333333 66.0 78.0 66.0L22.0 66.0C-7.333333333333333 66.0 -7.333333333333333 0.0 22.0 0.0Z" stroke="#323232" stroke-width="2.0" stroke-dasharray="none" opacity="1.0" fill="#66b2ff"/><g id="ProcessOnG1150" transform="matrix(1.0,0.0,0.0,1.0,10.0,24.875)"><text id="ProcessOnText1151" fill="#000000" font-size="13" x="39.0" y="13.325" font-family="微软雅黑" font-weight="normal" font-style="normal" text-decoration="none" family="微软雅黑" text-anchor="middle" size="13">读</text></g></g><g id="ProcessOnG1152" transform="matrix(1.0,0.0,0.0,1.0,133.0,359.0)" opacity="1.0"><path id="ProcessOnPath1153" d="M21.666666666666668 0.0L79.33333333333333 0.0C108.22222222222223 0.0 108.22222222222223 65.0 79.33333333333333 65.0L21.666666666666668 65.0C-7.222222222222222 65.0 -7.222222222222222 0.0 21.666666666666668 0.0Z" stroke="#323232" stroke-width="2.0" stroke-dasharray="none" opacity="1.0" fill="#ffcccc"/><g id="ProcessOnG1154" transform="matrix(1.0,0.0,0.0,1.0,10.0,24.375)"><text id="ProcessOnText1155" fill="#000000" font-size="13" x="39.5" y="13.325" font-family="微软雅黑" font-weight="normal" font-style="normal" text-decoration="none" family="微软雅黑" text-anchor="middle" size="13">写</text></g></g><g id="ProcessOnG1156"><path id="ProcessOnPath1157" d="M494.0 209.0C336.2780928342546 209.0 391.2219071657454 505.0 248.7360679774998 505.0" stroke="#66b2ff" stroke-width="2.0" stroke-dasharray="none" fill="none" marker-end="url(#ProcessOnMarker1158)"/><g id="ProcessOnG1160" transform="matrix(1.0,0.0,0.0,1.0,365.65450849718746,348.875)"><path id="ProcessOnPath1161" d="M0 0H49.0V16.25H0Z" fill="#fff" transform="matrix(1.0,0.0,0.0,1.0,-24.5,0.0)"/><text id="ProcessOnText1162" fill="#000000" font-size="13" x="0.0" y="13.325" font-family="微软雅黑" font-weight="normal" font-style="normal" text-decoration="none" family="微软雅黑" text-anchor="middle" size="13">get(key)</text></g></g><g id="ProcessOnG1163" transform="matrix(1.0,0.0,0.0,1.0,925.5,556.5)" opacity="1.0"><path id="ProcessOnPath1164" d="M0.0 0.0L99.0 0.0L99.0 33.0L0.0 33.0Z" stroke="#323232" stroke-width="2.0" stroke-dasharray="none" opacity="1.0" fill="#ffffff"/><g id="ProcessOnG1165" transform="matrix(1.0,0.0,0.0,1.0,10.0,8.375)"><text id="ProcessOnText1166" fill="#000000" font-size="13" x="38.5" y="13.325" font-family="微软雅黑" font-weight="normal" font-style="normal" text-decoration="none" family="微软雅黑" text-anchor="middle" size="13">Source[0]</text></g></g><g id="ProcessOnG1167" transform="matrix(1.0,0.0,0.0,1.0,928.5,611.5)" opacity="1.0"><path id="ProcessOnPath1168" d="M0.0 0.0L99.0 0.0L99.0 33.0L0.0 33.0Z" stroke="#323232" stroke-width="2.0" stroke-dasharray="none" opacity="1.0" fill="#ffffff"/><g id="ProcessOnG1169" transform="matrix(1.0,0.0,0.0,1.0,10.0,8.375)"><text id="ProcessOnText1170" fill="#000000" font-size="13" x="38.5" y="13.325" font-family="微软雅黑" font-weight="normal" font-style="normal" text-decoration="none" family="微软雅黑" text-anchor="middle" size="13">Source[1]</text></g></g><g id="ProcessOnG1171" transform="matrix(1.0,0.0,0.0,1.0,937.5,472.0)" opacity="1.0"><path id="ProcessOnPath1172" d="M0.0 0.0L75.0 0.0L75.0 25.0L0.0 25.0Z" stroke="none" stroke-width="0.0" stroke-dasharray="none" opacity="1.0" fill="none"/><g id="ProcessOnG1173" transform="matrix(1.0,0.0,0.0,1.0,0.0,3.75)"><text id="ProcessOnText1174" fill="#000000" font-size="14" x="36.5" y="14.350000000000001" font-family="微软雅黑" font-weight="bold" font-style="normal" text-decoration="none" family="微软雅黑" text-anchor="middle" size="14">Snapshot</text></g></g><g id="ProcessOnG1175"><path id="ProcessOnPath1176" d="M846.7360679774998 578.0L888.7639320225002 578.0" stroke="#323232" stroke-width="2.0" stroke-dasharray="none" fill="none" marker-start="url(#ProcessOnMarker1177)" marker-end="url(#ProcessOnMarker1179)"/></g></g></g></svg>